# This file uses centimeters as units for non-parametric coordinates.

mtllib libroProva1.mtl
g default
v -0.203522 -16.728594 -2.176984
v -2.452475 -16.728594 -2.176984
v 2.355376 -16.728594 -1.644263
v -2.834908 -16.728594 -1.713063
v 1.822960 -16.728594 -2.076503
v -0.203522 2.031522 -2.176984
v -2.452475 2.031522 -2.176984
v 2.355376 2.031522 -1.644263
v -2.834908 2.031522 -1.713063
v 1.822960 2.031522 -2.076503
v 23.256083 -16.485271 -1.009978
v 23.256083 -16.485271 -1.009978
v 23.256083 -16.485271 -1.009978
v 23.256083 -16.485271 -1.009978
v -2.453600 2.734021 -2.050989
v -0.204647 2.734021 -2.050989
v 2.467600 2.734021 -1.426246
v 2.467600 2.734021 -1.426246
v 1.821835 2.734021 -1.950508
v -2.928901 2.734021 -1.474411
v -2.928901 2.734021 -1.474411
v -1.040054 -16.200220 -2.176984
v -0.203522 -16.200220 -2.176984
v -2.452475 -16.200220 -2.176984
v 2.355376 -16.200220 -1.644263
v -2.834909 -16.200220 -1.713063
v 1.822960 -16.200220 -2.076503
v -2.453600 16.862413 -2.050989
v -2.453600 16.862413 -2.050989
v -1.041178 16.862413 -2.050989
v -1.041178 16.862413 -2.050989
v -0.204647 16.862413 -2.050989
v -0.204647 16.862413 -2.050989
v 23.256081 16.862413 -1.558877
v 23.256081 16.862413 -1.558877
v 2.467600 16.862413 -1.426246
v 2.467600 16.862413 -1.426246
v 2.467600 16.862413 -1.426246
v 2.467600 16.862413 -1.426246
v 23.256083 16.862413 -1.009977
v 23.256083 16.862413 -1.009977
v 18.845284 16.862413 -1.270150
v 18.845284 16.862413 -1.270150
v 13.445857 16.862413 -1.207924
v 13.445857 16.862413 -1.207924
v -1.041178 16.862413 -1.512062
v -1.041178 16.862413 -1.512062
v -4.995687 16.862413 -1.644035
v -4.995687 16.862413 -1.644035
v -10.128942 16.862413 -1.229724
v -10.128942 16.862413 -1.229724
v 3.825909 16.862413 -1.745413
v 3.825909 16.862413 -1.745413
v -0.204646 16.862413 -1.553746
v -0.204646 16.862413 -1.553746
v -2.935426 16.862413 -0.846472
v -2.935426 16.862413 -0.846472
v -2.935426 16.862413 -0.846472
v -2.935426 16.862413 -0.846472
v 1.821835 16.862413 -1.950508
v 1.821835 16.862413 -1.950508
v -19.939161 16.862413 -1.852861
v -19.939161 16.862413 -1.852861
v 18.845284 16.862413 -1.731866
v 18.845284 16.862413 -1.731866
v -14.996031 16.862413 -1.779415
v -14.996031 16.862413 -1.779415
v -2.928901 16.862413 -1.474411
v -2.928901 16.862413 -1.474411
v -2.928901 16.862413 -1.474411
v -2.928901 16.862413 -1.474411
v 3.825909 16.862413 -0.941094
v 3.825909 16.862413 -0.941094
v 1.643520 16.862413 -1.430213
v 1.643520 16.862413 -1.430213
v -19.939159 16.862413 -1.441751
v -19.939159 16.862413 -1.441751
v 9.833567 16.862413 -1.704005
v 9.833567 16.862413 -1.704005
v -4.995687 16.862413 -0.996966
v -4.995687 16.862413 -0.996966
v 9.833567 16.862413 -1.195330
v 9.833567 16.862413 -1.195330
v -24.463158 16.862413 -1.373601
v -24.463158 16.862413 -1.373601
v -24.463158 16.862413 -1.373601
v 13.445857 16.862413 -1.698306
v 13.445857 16.862413 -1.698306
v -10.128942 16.862413 -1.712148
v -10.128942 16.862413 -1.712148
v -14.996029 16.862413 -1.372354
v -14.996029 16.862413 -1.372354
v -2.413530 16.862413 -1.384163
v -2.413530 16.862413 -1.384163
v -24.463160 16.862413 -1.896580
v -24.463160 16.862413 -1.896580
v -24.463160 16.862413 -1.896580
v 24.423853 16.862413 -0.912572
v 24.423853 16.862413 -0.912572
v 24.423853 16.862413 -0.912572
v 24.423853 16.862413 -0.912572
v 2.361276 16.862413 -0.757562
v 2.361276 16.862413 -0.757562
v 2.361276 16.862413 -0.757562
v 2.361276 16.862413 -0.757562
v 24.423851 16.862413 -1.340123
v 24.423851 16.862413 -1.340123
v 24.423851 16.862413 -1.340123
v -2.453600 -9.185400 -2.050989
v -0.204647 -9.185400 -2.050989
v 2.467600 -9.185400 -1.426246
v 2.467600 -9.185400 -1.426246
v 1.821835 -9.185400 -1.950508
v -2.928901 -9.185400 -1.474411
v -2.928901 -9.185400 -1.474411
v -2.453600 16.148424 -2.050989
v -0.204647 16.148424 -2.050989
v 2.467600 16.148424 -1.426246
v 2.467600 16.148424 -1.426246
v 1.821835 16.148424 -1.950508
v -2.928901 16.148424 -1.474411
v -2.928901 16.148424 -1.474411
v 18.845285 16.420547 1.935241
v 18.845285 16.420547 1.935241
v 18.845285 16.420547 1.935241
v 18.845284 16.420547 -1.270150
v 18.845284 16.420547 -1.270150
v -2.199631 16.420547 2.175485
v -2.199631 16.420547 2.175485
v 13.445857 16.420547 -1.207924
v 13.445857 16.420547 -1.207924
v 1.793696 16.420547 2.812008
v 1.793696 16.420547 2.812008
v -1.041176 16.420547 1.364835
v -1.041176 16.420547 1.364835
v 0.691642 16.420547 1.883612
v 0.691642 16.420547 1.883612
v -1.041178 16.420547 -1.512062
v -1.041178 16.420547 -1.512062
v 9.833569 16.420547 2.657700
v 9.833569 16.420547 2.657700
v -2.970254 16.420547 2.505595
v -2.970254 16.420547 2.505595
v -10.128942 16.420547 -1.229724
v -10.128942 16.420547 -1.229724
v -0.204647 16.420547 -1.553746
v -0.204647 16.420547 -1.553746
v -0.204647 16.420547 -1.553746
v -2.935426 16.420547 -0.846472
v -2.935426 16.420547 -0.846472
v -2.935426 16.420547 -0.846472
v 3.825909 16.420547 -0.941094
v 3.825909 16.420547 -0.941094
v 1.643521 16.420547 -1.430213
v 1.643521 16.420547 -1.430213
v -19.939159 16.420547 -1.441751
v -19.939159 16.420547 -1.441751
v -4.995685 16.420547 2.771728
v -4.995685 16.420547 2.771728
v -0.204644 16.420547 -0.394275
v -0.204644 16.420547 -0.394275
v -0.204644 16.420547 -0.394275
v -0.204644 16.420547 -0.394275
v -4.995687 16.420547 -0.996966
v -4.995687 16.420547 -0.996966
v 9.833567 16.420547 -1.195330
v 9.833567 16.420547 -1.195330
v -14.996028 16.420547 1.402858
v -14.996028 16.420547 1.402858
v -19.939159 16.420547 1.250064
v -19.939159 16.420547 1.250064
v -19.939159 16.420547 1.250064
v -2.413530 16.420547 -1.384163
v -2.413530 16.420547 -1.384163
v -14.996029 16.420547 -1.372354
v -14.996029 16.420547 -1.372354
v 3.825912 16.420547 3.352518
v 3.825912 16.420547 3.352518
v 2.361276 16.420547 -0.757562
v 2.361276 16.420547 -0.757562
v 2.361276 16.420547 -0.757562
v 13.445859 16.420547 1.973265
v 13.445859 16.420547 1.973265
v 24.423853 -16.500231 -0.912572
v 24.423853 -16.500231 -0.912572
v 24.423853 -16.500231 -0.912572
v -2.453600 8.794745 -2.050989
v -0.204647 8.794745 -2.050989
v 2.467600 8.794745 -1.426246
v 2.467600 8.794745 -1.426246
v 1.821835 8.794745 -1.950508
v -2.928901 8.794745 -1.474411
v -2.928901 8.794745 -1.474411
v -2.453600 -16.054220 -2.050989
v -1.041178 -16.054220 -2.050989
v -0.204647 -16.054220 -2.050989
v 2.467600 -16.054220 -1.426246
v 2.467600 -16.054220 -1.426246
v 1.821835 -16.054220 -1.950508
v -2.928902 -16.054220 -1.474411
v -2.928902 -16.054220 -1.474411
v 9.833569 -16.493580 2.601683
v 9.833569 -16.493580 2.601683
v 18.845285 -16.493580 1.935241
v 18.845285 -16.493580 1.935241
v 18.845285 -16.493580 1.935241
v 18.845284 -16.493580 -1.270150
v 18.845284 -16.493580 -1.270150
v 1.807090 -16.493580 2.691778
v 1.807090 -16.493580 2.691778
v 13.445857 -16.493580 -1.207924
v 13.445857 -16.493580 -1.207924
v -1.041178 -16.493580 -1.512062
v -1.041178 -16.493580 -1.512062
v -2.970254 -16.493580 2.505595
v -2.970254 -16.493580 2.505595
v -10.128942 -16.493580 -1.229724
v -10.128942 -16.493580 -1.229724
v -0.204647 -16.493580 -1.553746
v -0.204647 -16.493580 -1.553746
v -0.204647 -16.493580 -1.553746
v -2.935426 -16.493580 -0.846472
v -2.935426 -16.493580 -0.846472
v -2.935426 -16.493580 -0.846472
v 3.825909 -16.493580 -0.941094
v 3.825909 -16.493580 -0.941094
v -1.937389 -16.493580 2.011863
v -1.937389 -16.493580 2.011863
v 1.643520 -16.493580 -1.430213
v 1.643520 -16.493580 -1.430213
v -19.939159 -16.493580 -1.441751
v -19.939159 -16.493580 -1.441751
v 0.692372 -16.493580 1.619418
v 0.692372 -16.493580 1.619418
v -4.995684 -16.493580 2.771728
v -4.995684 -16.493580 2.771728
v -0.204644 -16.493580 -0.394275
v -0.204644 -16.493580 -0.394275
v -0.204644 -16.493580 -0.394275
v -0.204644 -16.493580 -0.394275
v -4.995687 -16.493580 -0.996966
v -4.995687 -16.493580 -0.996966
v 9.833567 -16.493580 -1.195330
v 9.833567 -16.493580 -1.195330
v 3.612406 -16.493580 3.152787
v 3.612406 -16.493580 3.152787
v -1.041176 -16.493580 1.140268
v -1.041176 -16.493580 1.140268
v -10.128941 -16.493580 2.133461
v -10.128941 -16.493580 2.133461
v -14.996028 -16.493580 1.402858
v -14.996028 -16.493580 1.402858
v -19.939159 -16.493580 1.250064
v -19.939159 -16.493580 1.250064
v -19.939159 -16.493580 1.250064
v -2.413530 -16.493580 -1.384163
v -2.413530 -16.493580 -1.384163
v -14.996029 -16.493580 -1.372354
v -14.996029 -16.493580 -1.372354
v 2.361276 -16.493580 -0.757562
v 2.361276 -16.493580 -0.757562
v 2.361276 -16.493580 -0.757562
v 13.445859 -16.493580 1.973265
v 13.445859 -16.493580 1.973265
v -2.453600 7.825030 -2.050989
v -0.204647 7.825030 -2.050989
v 2.467600 7.825030 -1.426246
v 2.467600 7.825030 -1.426246
v 1.821835 7.825030 -1.950508
v -2.928901 7.825030 -1.474411
v -2.928901 7.825030 -1.474411
v -0.203522 16.294424 -2.176984
v -2.452475 16.294424 -2.176984
v 2.355376 16.294424 -1.644263
v -2.834908 16.294424 -1.713063
v 1.822960 16.294424 -2.076503
v -0.203522 -3.391891 -2.176984
v -2.452475 -3.391891 -2.176984
v 2.355376 -3.391891 -1.644263
v -2.834908 -3.391891 -1.713063
v 1.822960 -3.391891 -2.076503
v -0.203522 8.648746 -2.176984
v -2.452475 8.648746 -2.176984
v 2.355376 8.648746 -1.644263
v -2.834908 8.648746 -1.713063
v 1.822960 8.648746 -2.076503
v -2.453600 -10.033901 -2.050989
v -0.204647 -10.033901 -2.050989
v 2.467600 -10.033901 -1.426246
v 2.467600 -10.033901 -1.426246
v 1.821835 -10.033901 -1.950508
v -2.928901 -10.033901 -1.474411
v -2.928901 -10.033901 -1.474411
v 24.417938 16.445129 -0.913066
v 24.417938 16.445129 -0.913066
v -0.203522 7.971030 -2.176984
v -2.452475 7.971030 -2.176984
v 2.355376 7.971030 -1.644263
v -2.834908 7.971030 -1.713063
v 1.822960 7.971030 -2.076503
v -24.463160 -16.487717 -1.373601
v -24.463160 -16.487717 -1.373601
v -24.463160 -16.487717 -1.373601
v -2.453600 -4.175202 -2.050989
v -0.204647 -4.175202 -2.050989
v 2.467600 -4.175202 -1.426246
v 2.467600 -4.175202 -1.426246
v 1.821835 -4.175202 -1.950508
v -2.928901 -4.175202 -1.474411
v -2.928901 -4.175202 -1.474411
v -2.453600 -3.245891 -2.050989
v -0.204647 -3.245891 -2.050989
v 2.467600 -3.245891 -1.426246
v 2.467600 -3.245891 -1.426246
v 1.821835 -3.245891 -1.950508
v -2.928901 -3.245891 -1.474411
v -2.928901 -3.245891 -1.474411
v -0.203522 -9.887900 -2.176984
v -2.452475 -9.887900 -2.176984
v 2.355376 -9.887900 -1.644263
v -2.834908 -9.887900 -1.713063
v 1.822960 -9.887900 -2.076503
v -10.132499 16.416780 2.138903
v -10.132499 16.416780 2.138903
v -2.453600 -16.874594 -2.050989
v -2.453600 -16.874594 -2.050989
v -0.204647 -16.874594 -2.050989
v -0.204647 -16.874594 -2.050989
v 23.256081 -16.874594 -1.558877
v 23.256081 -16.874594 -1.558877
v 2.467600 -16.874594 -1.426246
v 2.467600 -16.874594 -1.426246
v 2.467600 -16.874594 -1.426246
v 2.467600 -16.874594 -1.426246
v 18.845284 -16.874594 -1.270150
v 18.845284 -16.874594 -1.270150
v 13.445857 -16.874594 -1.207924
v 13.445857 -16.874594 -1.207924
v -1.041178 -16.874594 -1.512062
v -1.041178 -16.874594 -1.512062
v -4.995687 -16.874594 -1.644035
v -4.995687 -16.874594 -1.644035
v -10.128942 -16.874594 -1.229724
v -10.128942 -16.874594 -1.229724
v 3.825909 -16.874594 -1.745413
v 3.825909 -16.874594 -1.745413
v -0.204646 -16.874594 -1.553746
v -0.204646 -16.874594 -1.553746
v -2.935426 -16.874594 -0.846472
v -2.935426 -16.874594 -0.846472
v -2.935426 -16.874594 -0.846472
v -2.935426 -16.874594 -0.846472
v 1.821835 -16.874594 -1.950508
v 1.821835 -16.874594 -1.950508
v -19.939161 -16.874594 -1.852861
v -19.939161 -16.874594 -1.852861
v 18.845284 -16.874594 -1.731866
v 18.845284 -16.874594 -1.731866
v -14.996031 -16.874594 -1.779415
v -14.996031 -16.874594 -1.779415
v -2.928901 -16.874594 -1.474411
v -2.928901 -16.874594 -1.474411
v -2.928901 -16.874594 -1.474411
v -2.928901 -16.874594 -1.474411
v 3.825909 -16.874594 -0.941094
v 3.825909 -16.874594 -0.941094
v 1.643520 -16.874594 -1.430213
v 1.643520 -16.874594 -1.430213
v -19.939159 -16.874594 -1.441751
v -19.939159 -16.874594 -1.441751
v 9.833567 -16.874594 -1.704005
v 9.833567 -16.874594 -1.704005
v -4.995687 -16.874594 -0.996966
v -4.995687 -16.874594 -0.996966
v 9.833567 -16.874594 -1.195330
v 9.833567 -16.874594 -1.195330
v -24.463160 -16.874594 -1.373601
v -24.463160 -16.874594 -1.373601
v -24.463160 -16.874594 -1.373601
v 13.445857 -16.874594 -1.698306
v 13.445857 -16.874594 -1.698306
v -10.128942 -16.874594 -1.712148
v -10.128942 -16.874594 -1.712148
v -14.996029 -16.874594 -1.372354
v -14.996029 -16.874594 -1.372354
v -2.413530 -16.874594 -1.384163
v -2.413530 -16.874594 -1.384163
v -24.463160 -16.874594 -1.896580
v -24.463160 -16.874594 -1.896580
v -24.463160 -16.874594 -1.896580
v 24.423853 -16.874594 -0.912572
v 24.423853 -16.874594 -0.912572
v 24.423853 -16.874594 -0.912572
v 23.256083 -16.874594 -1.009978
v 23.256083 -16.874594 -1.009978
v 2.361276 -16.874594 -0.757562
v 2.361276 -16.874594 -0.757562
v 2.361276 -16.874594 -0.757562
v 2.361276 -16.874594 -0.757562
v 24.423851 -16.874594 -1.340123
v 24.423851 -16.874594 -1.340123
v 24.423851 -16.874594 -1.340123
v -23.931698 16.460318 -1.373601
v -23.931698 16.460318 -1.373601
v -23.931698 16.460318 -1.373601
v -23.931698 16.460318 -1.373601
v -23.931700 -16.583847 -1.373601
v -23.931700 -16.583847 -1.373601
v -23.931700 -16.583847 -1.373601
v -23.931700 -16.583847 -1.373601
v -0.203522 -4.029202 -2.176984
v -2.452475 -4.029202 -2.176984
v 2.355376 -4.029202 -1.644263
v -2.834908 -4.029202 -1.713063
v 1.822960 -4.029202 -2.076503
v -2.453600 1.885522 -2.050989
v -0.204647 1.885522 -2.050989
v 2.467600 1.885522 -1.426246
v 2.467600 1.885522 -1.426246
v 1.821835 1.885522 -1.950508
v -2.928901 1.885522 -1.474411
v -2.928901 1.885522 -1.474411
v -24.463160 16.483156 -1.373601
v -24.463160 16.483156 -1.373601
v -24.463160 16.483156 -1.373601
v -0.203522 2.588022 -2.176984
v -2.452475 2.588022 -2.176984
v 2.355376 2.588022 -1.644263
v -2.834908 2.588022 -1.713063
v 1.822960 2.588022 -2.076503
v -0.203522 16.716413 -2.176984
v -2.452475 16.716413 -2.176984
v 2.355376 16.716413 -1.644263
v -2.834908 16.716413 -1.713063
v 1.822960 16.716413 -2.076503
v 23.256083 16.415375 -1.009977
v 23.256083 16.415375 -1.009977
v 23.256083 16.415375 -1.009977
v 23.256083 16.415375 -1.009977
v -0.203522 -9.331400 -2.176984
v -2.452475 -9.331400 -2.176984
v 2.355376 -9.331400 -1.644263
v -2.834908 -9.331400 -1.713063
v 1.822960 -9.331400 -2.076503
vt 0.659083 0.982467
vt 0.644679 0.982467
vt 0.659083 0.566314
vt 0.919634 0.637850
vt 0.925932 0.637850
vt 0.925513 0.654208
vt 0.919634 0.654292
vt 0.863010 0.973378
vt 0.856991 0.973378
vt 0.856991 0.503672
vt 0.856991 0.498401
vt 0.863010 0.498401
vt 0.923186 0.029112
vt 0.921815 0.012671
vt 0.927834 0.012671
vt 0.930914 0.029112
vt 0.827668 0.502564
vt 0.827668 0.977541
vt 0.820306 0.977541
vt 0.820306 0.972094
vt 0.820306 0.507904
vt 0.820306 0.502564
vt 0.892082 0.336034
vt 0.899445 0.336034
vt 0.898829 0.399726
vt 0.893042 0.399726
vt 0.953728 0.639329
vt 0.953728 0.575677
vt 0.959093 0.575677
vt 0.957823 0.631848
vt 0.959176 0.639329
vt 0.892082 0.315846
vt 0.893042 0.252154
vt 0.898830 0.252154
vt 0.899445 0.315846
vt 0.897795 0.469319
vt 0.892064 0.469319
vt 0.090673 0.475516
vt 0.090453 0.070184
vt 0.151355 0.070151
vt 0.892065 0.182561
vt 0.897795 0.182561
vt 0.896848 0.537841
vt 0.890056 0.537841
vt 0.211991 0.475507
vt 0.211964 0.070118
vt 0.890057 0.114039
vt 0.896848 0.114039
vt 0.895889 0.610111
vt 0.886779 0.610111
vt 0.275703 0.070112
vt 0.886779 0.041769
vt 0.895889 0.041769
vt 0.893501 0.639209
vt 0.884661 0.639117
vt 0.328629 0.475676
vt 0.314981 0.070112
vt 0.330385 0.070106
vt 0.783078 0.617121
vt 0.783078 0.609534
vt 0.802963 0.609534
vt 0.802399 0.618922
vt 0.301182 0.996109
vt 0.301182 0.989266
vt 0.319474 0.989266
vt 0.330308 0.989266
vt 0.330308 0.996109
vt 0.351920 0.070070
vt 0.771301 0.616534
vt 0.771301 0.609534
vt 0.798145 0.579876
vt 0.772125 0.578137
vt 0.772125 0.571137
vt 0.800655 0.572551
vt 0.455081 0.473214
vt 0.429696 0.067795
vt 0.452645 0.067836
vt 0.922216 0.302663
vt 0.933540 0.302663
vt 0.929047 0.321787
vt 0.919632 0.323284
vt 0.890824 0.764596
vt 0.887245 0.680016
vt 0.898568 0.680016
vt 0.897985 0.764596
vt 0.529564 0.067830
vt 0.925796 0.218084
vt 0.932957 0.218084
vt 0.891001 0.815453
vt 0.897905 0.815453
vt 0.574844 0.473185
vt 0.574721 0.067816
vt 0.925973 0.167227
vt 0.932877 0.167227
vt 0.898378 0.891470
vt 0.891877 0.891470
vt 0.641222 0.067796
vt 0.926849 0.091210
vt 0.933349 0.091210
vt 0.888214 0.953568
vt 0.895942 0.953568
vt 0.388248 0.575122
vt 0.388248 0.566314
vt 0.405004 0.566314
vt 0.590271 0.566314
vt 0.644679 0.566314
vt 0.388248 0.982468
vt 0.523668 0.566314
vt 0.479109 0.566314
vt 0.388248 0.972348
vt 0.388248 0.898086
vt 0.388248 0.887620
vt 0.388248 0.825818
vt 0.388248 0.814355
vt 0.388248 0.751058
vt 0.388248 0.740591
vt 0.388248 0.677792
vt 0.388248 0.665831
vt 0.892862 0.970009
vt 0.886843 0.970009
vt 0.741027 0.580525
vt 0.733679 0.588095
vt 0.733771 0.579254
vt 0.740462 0.571137
vt 0.271460 0.980751
vt 0.245951 0.980751
vt 0.182593 0.980751
vt 0.122521 0.980751
vt 0.061511 0.980751
vt 0.005674 0.980751
vt 0.005673 0.564353
vt 0.300875 0.475677
vt 0.300875 0.070112
vt 0.884661 0.012763
vt 0.893501 0.012671
vt 0.296228 0.996109
vt 0.296228 0.989266
vt 0.809654 0.617651
vt 0.809746 0.626492
vt 0.760348 0.578724
vt 0.809747 0.579932
vt 0.808250 0.589346
vt 0.356554 0.989266
vt 0.356554 0.996109
vt 0.411435 0.473108
vt 0.383497 0.067581
vt 0.410646 0.067727
vt 0.745281 0.618274
vt 0.742770 0.610949
vt 0.363449 0.989266
vt 0.363449 0.996109
vt 0.735176 0.627744
vt 0.733679 0.618330
vt 0.884661 0.659396
vt 0.894075 0.660893
vt 0.119441 0.006912
vt 0.119441 0.040064
vt 0.070267 0.007751
vt 0.073762 0.539433
vt 0.122891 0.507149
vt 0.122891 0.540272
vt 0.180321 0.007766
vt 0.183716 0.505269
vt 0.183716 0.539418
vt 0.240264 0.009523
vt 0.240264 0.050944
vt 0.243606 0.537663
vt 0.303486 0.012390
vt 0.306771 0.488425
vt 0.306771 0.534799
vt 0.328860 0.014243
vt 0.328431 0.055527
vt 0.341177 0.495761
vt 0.355432 0.541137
vt 0.338545 0.539563
vt 0.362493 0.019812
vt 0.352190 0.038712
vt 0.362493 0.005532
vt 0.365725 0.527383
vt 0.365725 0.541650
vt 0.386811 0.041081
vt 0.375763 0.016280
vt 0.375763 0.002000
vt 0.416556 0.536093
vt 0.409566 0.492130
vt 0.434594 0.538353
vt 0.499394 0.006414
vt 0.499394 0.053178
vt 0.422774 0.059965
vt 0.508584 0.494031
vt 0.508584 0.541485
vt 0.543882 0.045439
vt 0.553073 0.541640
vt 0.610382 0.005493
vt 0.610382 0.044970
vt 0.619572 0.502929
vt 0.619572 0.542406
vt 0.664705 0.008697
vt 0.673896 0.539202
vt 0.335288 0.007621
vt 0.332123 0.532947
vt 0.341152 0.049447
vt 0.407365 0.011806
vt 0.400540 0.054288
vt 0.384954 0.531619
vt 0.407716 0.544377
vt 0.384954 0.545899
vt 0.959093 0.506068
vt 0.953728 0.506068
vt 0.959093 0.437499
vt 0.953728 0.437499
vt 0.959093 0.365147
vt 0.953728 0.365147
vt 0.959093 0.336085
vt 0.953728 0.336085
vt 0.744228 0.680363
vt 0.733679 0.680297
vt 0.733713 0.674933
vt 0.744262 0.675000
vt 0.763632 0.680486
vt 0.763665 0.675122
vt 0.775423 0.680560
vt 0.775457 0.675196
vt 0.801501 0.680723
vt 0.801535 0.675359
vt 0.815350 0.680809
vt 0.815384 0.675445
vt 0.919750 0.695113
vt 0.919750 0.674479
vt 0.925117 0.674479
vt 0.925117 0.695113
vt 0.919750 0.779749
vt 0.925117 0.779749
vt 0.919750 0.830638
vt 0.925117 0.830638
vt 0.919750 0.906705
vt 0.925117 0.906705
vt 0.919632 0.968844
vt 0.925117 0.968844
vt 0.925859 0.575737
vt 0.919634 0.575737
vt 0.925858 0.499667
vt 0.919633 0.499667
vt 0.925858 0.448778
vt 0.919633 0.448778
vt 0.925858 0.364121
vt 0.919632 0.364121
vt 0.925857 0.343471
vt 0.919632 0.343471
vt 0.801500 0.648032
vt 0.815349 0.647931
vt 0.815394 0.654152
vt 0.801546 0.654253
vt 0.775423 0.648221
vt 0.775468 0.654442
vt 0.763632 0.648307
vt 0.763677 0.654528
vt 0.744228 0.648448
vt 0.744273 0.654669
vt 0.733679 0.648525
vt 0.733724 0.654745
vt 0.953728 0.041732
vt 0.953728 0.012671
vt 0.959950 0.012671
vt 0.959950 0.041732
vt 0.953728 0.114079
vt 0.959950 0.114079
vt 0.953728 0.182643
vt 0.959950 0.182643
vt 0.953728 0.252248
vt 0.959950 0.252248
vt 0.749312 0.470479
vt 0.683992 0.065173
vt 0.749312 0.065275
vt 0.002000 0.073971
vt 0.060839 0.075083
vt 0.060839 0.480451
vt 0.919843 0.985296
vt 0.925117 0.985296
vt 0.836804 0.018965
vt 0.836804 0.482166
vt 0.820306 0.482377
vt 0.954288 0.308417
vt 0.959950 0.315897
vt 0.954609 0.315897
vt 0.864473 0.012671
vt 0.856991 0.478213
vt 0.856991 0.014025
vt 0.330308 0.568420
vt 0.301181 0.568420
vt 0.301181 0.562955
vt 0.330308 0.562955
vt 0.296228 0.568420
vt 0.296228 0.562955
vt 0.356554 0.568420
vt 0.356554 0.562955
vt 0.363449 0.568420
vt 0.363449 0.562955
vt 0.330293 0.665550
vt 0.301167 0.665550
vt 0.301167 0.570311
vt 0.330293 0.570311
vt 0.295011 0.665550
vt 0.295011 0.570311
vt 0.356539 0.665550
vt 0.356539 0.570311
vt 0.364903 0.665550
vt 0.364903 0.570311
vt 0.330308 0.667441
vt 0.330308 0.676218
vt 0.301181 0.676218
vt 0.301181 0.667441
vt 0.296228 0.676218
vt 0.296228 0.667441
vt 0.356554 0.676218
vt 0.356554 0.667441
vt 0.363449 0.676218
vt 0.363449 0.667441
vt 0.330293 0.744044
vt 0.301167 0.744044
vt 0.301167 0.678109
vt 0.330293 0.678109
vt 0.295011 0.744044
vt 0.295011 0.678109
vt 0.356539 0.744044
vt 0.356539 0.678109
vt 0.364903 0.744044
vt 0.364903 0.678109
vt 0.330308 0.745935
vt 0.330308 0.753142
vt 0.301181 0.753142
vt 0.301181 0.745935
vt 0.296228 0.753142
vt 0.296228 0.745935
vt 0.356554 0.753142
vt 0.356554 0.745935
vt 0.363449 0.753142
vt 0.363449 0.745935
vt 0.330293 0.821491
vt 0.301167 0.821491
vt 0.301167 0.755033
vt 0.330293 0.755033
vt 0.295011 0.821491
vt 0.295011 0.755033
vt 0.356539 0.821491
vt 0.356539 0.755033
vt 0.364903 0.821491
vt 0.364903 0.755033
vt 0.330308 0.823382
vt 0.330308 0.831636
vt 0.301181 0.831636
vt 0.301181 0.823382
vt 0.296228 0.831636
vt 0.296228 0.823382
vt 0.356554 0.831636
vt 0.356554 0.823382
vt 0.363449 0.831636
vt 0.363449 0.823382
vt 0.330293 0.898415
vt 0.301167 0.898415
vt 0.301167 0.833527
vt 0.330293 0.833527
vt 0.295011 0.898415
vt 0.295011 0.833527
vt 0.356539 0.898415
vt 0.356539 0.833527
vt 0.364903 0.898415
vt 0.364903 0.833527
vt 0.330308 0.900306
vt 0.330308 0.907514
vt 0.301181 0.907514
vt 0.301181 0.900306
vt 0.296228 0.907514
vt 0.296228 0.900306
vt 0.356554 0.907514
vt 0.356554 0.900306
vt 0.363449 0.907514
vt 0.363449 0.900306
vt 0.319459 0.987375
vt 0.301167 0.987375
vt 0.301167 0.909404
vt 0.330293 0.909404
vt 0.330294 0.987375
vt 0.295011 0.987375
vt 0.295011 0.909404
vt 0.356539 0.987375
vt 0.356539 0.909404
vt 0.364903 0.987375
vt 0.364903 0.909404
vt 0.301167 0.998000
vt 0.295011 0.998000
vt 0.364903 0.998000
vt 0.356539 0.998000
vt 0.330294 0.998000
vt 0.330293 0.561064
vt 0.356539 0.561064
vt 0.364903 0.561064
vt 0.295011 0.561064
vt 0.301167 0.561064
vt 0.319459 0.561064
vt 0.303486 0.058805
vt 0.180321 0.041946
vt 0.352190 0.006046
vt 0.398525 0.003521
vt 0.425403 0.009545
vt 0.543882 0.006259
vt 0.820306 0.012671
vt 0.820389 0.018546
vt 0.683992 0.470542
vt 0.641345 0.473164
vt 0.529564 0.473199
vt 0.429182 0.473166
vt 0.381287 0.472943
vt 0.352630 0.475634
vt 0.311206 0.475677
vt 0.275703 0.475677
vt 0.151576 0.475483
vt 0.002000 0.480941
vt 0.864473 0.477892
vt 0.243606 0.495911
vt 0.331694 0.491699
vt 0.355432 0.505737
vt 0.395993 0.503564
vt 0.434594 0.485473
vt 0.553073 0.502460
vt 0.590271 0.982468
vt 0.523668 0.982468
vt 0.479109 0.982468
vt 0.405004 0.982468
vt 0.182593 0.564353
vt 0.245951 0.564353
vt 0.271460 0.564353
vt 0.271460 0.970625
vt 0.271460 0.896319
vt 0.271460 0.885847
vt 0.271460 0.824009
vt 0.271460 0.812539
vt 0.271460 0.749204
vt 0.271460 0.738732
vt 0.271460 0.675896
vt 0.271460 0.663927
vt 0.271460 0.573165
vt 0.061511 0.564353
vt 0.122521 0.564353
vn 0.184124 0.000000 -0.982903
vn 0.184124 0.000000 -0.982903
vn 0.184124 0.000000 -0.982903
vn -0.083123 0.000000 0.996539
vn -0.083123 0.000000 0.996539
vn -0.083123 0.000000 0.996539
vn -0.083121 0.000001 0.996539
vn -0.083121 0.000001 0.996539
vn -0.083121 0.000001 0.996539
vn 1.000000 0.000000 -0.000004
vn 1.000000 0.000000 -0.000004
vn 1.000000 0.000000 -0.000004
vn 0.000000 0.000000 -0.000000
vn 1.000000 0.000000 -0.000004
vn 1.000000 0.000000 -0.000004
vn 1.000000 0.000000 -0.000004
vn 1.000000 0.000000 -0.000004
vn 1.000000 0.000000 -0.000004
vn 0.000000 1.000000 0.000000
vn 0.000000 1.000000 0.000000
vn 0.000000 1.000000 0.000000
vn 0.000000 1.000000 0.000000
vn 0.000000 1.000000 0.000000
vn 0.000000 1.000000 0.000000
vn -1.000000 0.000000 -0.000000
vn -1.000000 0.000000 -0.000000
vn -1.000000 0.000000 -0.000000
vn -0.000000 0.000000 -0.000000
vn -1.000000 0.000000 -0.000000
vn -1.000000 0.000000 -0.000000
vn -1.000000 0.000000 -0.000000
vn -1.000000 0.000000 -0.000000
vn -1.000000 0.000000 -0.000000
vn -1.000000 0.000010 0.000004
vn -1.000000 0.000010 0.000004
vn -1.000000 0.000010 0.000004
vn 0.000000 -1.000000 0.000000
vn 0.000000 -1.000000 0.000000
vn 0.000000 -1.000000 0.000000
vn 0.000000 -1.000000 -0.000008
vn 0.000000 -1.000000 -0.000008
vn 0.000000 -1.000000 -0.000008
vn 0.015062 0.000000 0.999887
vn 0.015062 0.000000 0.999887
vn 0.015062 0.000000 0.999887
vn 0.017793 -0.032524 0.999313
vn 0.017793 -0.032524 0.999313
vn 0.017793 -0.032524 0.999313
vn -0.000000 0.000000 1.000000
vn -0.000000 0.000000 1.000000
vn -0.000000 0.000000 1.000000
vn 0.000000 1.000000 0.000000
vn 0.000000 1.000000 0.000000
vn 0.000000 1.000000 0.000000
vn 0.000000 1.000000 0.000000
vn 0.000000 1.000000 0.000000
vn 0.000000 1.000000 0.000000
vn -0.000000 -1.000000 0.000008
vn -0.000000 -1.000000 0.000008
vn -0.000000 -1.000000 0.000008
vn 0.000000 -1.000000 -0.000008
vn 0.000000 -1.000000 -0.000008
vn 0.000000 -1.000000 -0.000008
vn -0.030896 0.000000 0.999523
vn -0.030896 0.000000 0.999523
vn -0.030896 0.000000 0.999523
vn 0.000000 1.000000 0.000000
vn 0.000000 1.000000 0.000000
vn 0.000000 1.000000 0.000000
vn 0.000000 1.000000 0.000000
vn 0.000000 1.000000 0.000000
vn 0.000000 1.000000 0.000000
vn 0.000000 -1.000000 0.000000
vn 0.000000 -1.000000 0.000000
vn 0.000000 -1.000000 0.000000
vn 0.000000 -1.000000 0.000000
vn 0.000000 -1.000000 0.000000
vn 0.000000 -1.000000 0.000000
vn -0.148448 -0.000180 0.988920
vn -0.148448 -0.000180 0.988920
vn -0.148448 -0.000180 0.988920
vn 0.000000 1.000000 0.000000
vn 0.000000 1.000000 0.000000
vn 0.000000 1.000000 0.000000
vn 0.000000 1.000000 0.000000
vn 0.000000 1.000000 0.000000
vn 0.000000 1.000000 0.000000
vn 0.000000 -1.000000 0.000000
vn 0.000000 -1.000000 0.000000
vn 0.000000 -1.000000 0.000000
vn 0.000000 -1.000000 0.000000
vn 0.000000 -1.000000 0.000000
vn 0.000000 -1.000000 0.000000
vn -0.123389 -0.000177 0.992358
vn -0.123389 -0.000177 0.992358
vn -0.123389 -0.000177 0.992358
vn 0.000000 1.000000 0.000000
vn 0.000000 1.000000 0.000000
vn 0.000000 1.000000 0.000000
vn 0.000000 1.000000 0.000000
vn 0.000000 1.000000 0.000000
vn 0.000000 1.000000 0.000000
vn 0.000000 -1.000000 0.000000
vn 0.000000 -1.000000 0.000000
vn 0.000000 -1.000000 0.000000
vn 0.000000 -1.000000 0.000000
vn 0.000000 -1.000000 0.000000
vn 0.000000 -1.000000 0.000000
vn 0.697184 -0.004891 0.716876
vn 0.697184 -0.004891 0.716876
vn 0.697184 -0.004891 0.716876
vn 0.000000 1.000000 0.000000
vn 0.000000 1.000000 0.000000
vn 0.000000 1.000000 0.000000
vn 0.000000 1.000000 0.000000
vn 0.000000 1.000000 0.000000
vn 0.000000 1.000000 0.000000
vn 0.000000 0.000000 -1.000000
vn 0.000000 0.000000 -1.000000
vn 0.000000 0.000000 -1.000000
vn 0.000000 0.000000 -1.000000
vn 0.000000 0.000000 -1.000000
vn 0.000000 0.000000 -1.000000
vn 0.000000 0.000000 -1.000000
vn 0.000000 0.000000 -1.000000
vn 0.000000 0.000000 -1.000000
vn 0.878009 -0.003266 0.478632
vn 0.878009 -0.003266 0.478632
vn 0.878009 -0.003266 0.478632
vn 0.000000 1.000000 -0.000005
vn 0.000000 1.000000 -0.000005
vn 0.000000 1.000000 -0.000005
vn -0.000000 1.000000 0.000004
vn -0.000000 1.000000 0.000004
vn -0.000000 1.000000 0.000004
vn 0.000000 -1.000000 0.000000
vn 0.000000 -1.000000 0.000000
vn 0.000000 -1.000000 0.000000
vn -0.000000 -1.000000 0.000004
vn -0.000000 -1.000000 0.000004
vn -0.000000 -1.000000 0.000004
vn -0.247420 -0.004275 0.968899
vn -0.247420 -0.004275 0.968899
vn -0.247420 -0.004275 0.968899
vn 0.000000 1.000000 0.000000
vn 0.000000 1.000000 0.000000
vn 0.000000 1.000000 0.000000
vn 0.000000 1.000000 0.000000
vn 0.000000 1.000000 0.000000
vn 0.000000 1.000000 0.000000
vn 0.000000 -1.000000 0.000000
vn 0.000000 -1.000000 0.000000
vn 0.000000 -1.000000 0.000000
vn 0.000000 -1.000000 0.000000
vn 0.000000 -1.000000 0.000000
vn 0.000000 -1.000000 0.000000
vn 0.088238 -0.006617 0.996077
vn 0.088238 -0.006617 0.996077
vn 0.088238 -0.006617 0.996078
vn 0.000000 1.000000 0.000000
vn 0.000000 1.000000 0.000000
vn 0.000000 1.000000 0.000000
vn 0.000000 1.000000 0.000000
vn 0.000000 1.000000 0.000000
vn 0.000000 1.000000 0.000000
vn 0.000000 -1.000000 0.000000
vn 0.000000 -1.000000 0.000000
vn 0.000000 -1.000000 0.000000
vn 0.000000 -1.000000 0.000000
vn 0.000000 -1.000000 0.000000
vn 0.000000 -1.000000 0.000000
vn 0.171393 0.000000 0.985203
vn 0.171392 0.000000 0.985203
vn 0.171392 0.000000 0.985203
vn 0.000000 1.000000 0.000000
vn 0.000000 1.000000 0.000000
vn 0.000000 1.000000 0.000000
vn 0.000000 1.000000 0.000000
vn 0.000000 1.000000 0.000000
vn 0.000000 1.000000 0.000000
vn 0.000000 -1.000000 0.000000
vn 0.000000 -1.000000 0.000000
vn 0.000000 -1.000000 0.000000
vn 0.000000 -1.000000 0.000000
vn 0.000000 -1.000000 0.000000
vn 0.000000 -1.000000 0.000000
vn 0.007042 0.000000 0.999975
vn 0.007042 0.000000 0.999975
vn 0.007042 0.000000 0.999975
vn 0.000000 1.000000 0.000000
vn 0.000000 1.000000 0.000000
vn 0.000000 1.000000 0.000000
vn 0.000000 1.000000 0.000000
vn 0.000000 1.000000 0.000000
vn 0.000000 1.000000 0.000000
vn 0.000000 -1.000000 0.000000
vn 0.000000 -1.000000 0.000000
vn 0.000000 -1.000000 0.000000
vn 0.000000 -1.000000 0.000000
vn 0.000000 -1.000000 0.000000
vn 0.000000 -1.000000 0.000000
vn -0.228744 0.000000 -0.973487
vn -0.228744 0.000000 -0.973487
vn -0.228744 0.000000 -0.973487
vn 0.039174 -0.028065 -0.998838
vn 0.039174 -0.028065 -0.998838
vn 0.039174 -0.028065 -0.998838
vn -0.006215 -0.006041 -0.999963
vn -0.006215 -0.006041 -0.999963
vn -0.006215 -0.006041 -0.999963
vn 0.001578 -0.008577 -0.999962
vn 0.001578 -0.008577 -0.999962
vn 0.001578 -0.008577 -0.999962
vn 0.006892 -0.009737 -0.999929
vn 0.006892 -0.009737 -0.999929
vn 0.006892 -0.009737 -0.999929
vn -0.228741 0.000000 -0.973487
vn -0.228741 0.000000 -0.973487
vn -0.228741 0.000000 -0.973487
vn -0.228744 0.000000 -0.973487
vn -0.228744 0.000000 -0.973487
vn -0.228744 0.000000 -0.973487
vn -0.228749 0.000000 -0.973485
vn -0.228749 0.000000 -0.973485
vn -0.228749 0.000000 -0.973485
vn -0.228743 0.000000 -0.973487
vn -0.228743 0.000000 -0.973487
vn -0.228743 0.000000 -0.973487
vn -0.228746 0.000000 -0.973486
vn -0.228746 0.000000 -0.973486
vn -0.228746 0.000000 -0.973486
vn -0.228744 0.000000 -0.973487
vn -0.228744 0.000000 -0.973487
vn -0.228744 0.000000 -0.973487
vn -0.228743 0.000000 -0.973487
vn -0.228743 0.000000 -0.973487
vn -0.228743 0.000000 -0.973487
vn -0.228744 0.000000 -0.973487
vn -0.228744 0.000000 -0.973487
vn -0.228744 0.000000 -0.973487
vn -0.228743 0.000000 -0.973487
vn -0.228743 0.000000 -0.973487
vn -0.228743 0.000000 -0.973487
vn -0.228744 0.000000 -0.973487
vn -0.228744 0.000000 -0.973487
vn -0.228744 0.000000 -0.973487
vn 0.000000 1.000000 0.000000
vn 0.000000 1.000000 0.000000
vn 0.000000 1.000000 0.000000
vn 0.000000 1.000000 0.000000
vn 0.000000 1.000000 0.000000
vn 0.000000 1.000000 0.000000
vn 0.000000 -1.000000 0.000000
vn 0.000000 -1.000000 0.000000
vn 0.000000 -1.000000 0.000000
vn 0.000000 -1.000000 0.000000
vn 0.000000 -1.000000 0.000000
vn 0.000000 -1.000000 0.000000
vn 0.000000 -1.000000 -0.000006
vn 0.000000 -1.000000 -0.000006
vn 0.000000 -1.000000 -0.000006
vn -0.000000 -1.000000 0.000006
vn -0.000000 -1.000000 0.000006
vn -0.000000 -1.000000 0.000006
vn 0.000000 1.000000 0.000000
vn 0.000000 1.000000 0.000000
vn 0.000000 1.000000 0.000000
vn 0.000000 1.000000 0.000000
vn 0.000000 1.000000 0.000000
vn 0.000000 1.000000 0.000000
vn 0.000000 1.000000 0.000000
vn 0.000000 1.000000 0.000000
vn 0.000000 1.000000 0.000000
vn 0.000000 1.000000 0.000000
vn 0.000000 1.000000 0.000000
vn 0.000000 1.000000 0.000000
vn 0.019601 0.000000 -0.999808
vn 0.019601 0.000000 -0.999808
vn 0.019601 0.000000 -0.999808
vn 0.130276 0.000000 0.991478
vn 0.130276 0.000000 0.991478
vn 0.130276 0.000000 0.991478
vn 0.000000 1.000000 0.000000
vn 0.000000 1.000000 0.000000
vn 0.000000 1.000000 0.000000
vn 0.000000 1.000000 0.000000
vn 0.000000 1.000000 0.000000
vn 0.000000 1.000000 0.000000
vn -0.771620 0.000000 -0.636084
vn -0.771620 0.000000 -0.636084
vn -0.771620 0.000000 -0.636084
vn -0.771620 -0.000002 -0.636084
vn -0.771620 -0.000002 -0.636084
vn -0.771620 -0.000002 -0.636084
vn 0.431280 0.000000 0.902218
vn 0.431280 0.000000 0.902218
vn 0.431280 0.000000 0.902218
vn 0.000000 1.000000 0.000000
vn 0.000000 1.000000 0.000000
vn 0.000000 1.000000 0.000000
vn 0.000000 1.000000 0.000000
vn 0.000000 1.000000 0.000000
vn 0.000000 1.000000 0.000000
vn 0.000000 -1.000000 -0.000005
vn 0.000000 -1.000000 -0.000005
vn 0.000000 -1.000000 -0.000005
vn -0.000000 -1.000000 0.000004
vn -0.000000 -1.000000 0.000004
vn -0.000000 -1.000000 0.000004
vn 0.000000 -1.000000 0.000000
vn 0.000000 -1.000000 0.000000
vn 0.000000 -1.000000 0.000000
vn 0.000000 -1.000000 0.000000
vn 0.000000 -1.000000 0.000000
vn 0.000000 -1.000000 0.000000
vn 0.000000 -1.000000 0.000000
vn 0.000000 -1.000000 0.000000
vn 0.000000 -1.000000 0.000000
vn 0.049523 0.000000 -0.998773
vn 0.049523 0.000000 -0.998773
vn 0.049523 0.000000 -0.998773
vn 0.049523 0.000000 -0.998773
vn 0.049523 0.000000 -0.998773
vn 0.049523 0.000000 -0.998773
vn -0.913463 -0.003286 0.406910
vn -0.913463 -0.003286 0.406910
vn -0.913463 -0.003286 0.406910
vn 0.000000 1.000000 0.000000
vn 0.000000 1.000000 0.000000
vn 0.000000 1.000000 0.000000
vn 0.000000 1.000000 0.000000
vn 0.000000 1.000000 0.000000
vn 0.000000 1.000000 0.000000
vn 0.630286 0.000000 -0.776363
vn 0.630286 0.000000 -0.776363
vn 0.630286 0.000000 -0.776363
vn 0.630289 0.000000 -0.776361
vn 0.630289 0.000000 -0.776361
vn 0.630289 0.000000 -0.776361
vn -0.693270 -0.005800 0.720654
vn -0.693270 -0.005800 0.720654
vn -0.693270 -0.005800 0.720654
vn 0.000000 1.000000 -0.000003
vn 0.000000 1.000000 -0.000003
vn 0.000000 1.000000 -0.000003
vn 0.000000 1.000000 0.000000
vn 0.000000 1.000000 0.000000
vn 0.000000 1.000000 0.000000
vn -0.000000 -1.000000 0.000004
vn -0.000000 -1.000000 0.000004
vn -0.000000 -1.000000 0.000004
vn 0.000000 -1.000000 -0.000003
vn 0.000000 -1.000000 -0.000003
vn 0.000000 -1.000000 -0.000003
vn 0.022603 -0.999745 0.000000
vn 0.022603 -0.999745 0.000000
vn 0.022603 -0.999745 0.000000
vn 0.009961 0.999950 0.000000
vn 0.009961 0.999950 0.000000
vn 0.009961 0.999950 0.000000
vn 0.000000 -1.000000 0.000000
vn 0.000000 -1.000000 0.000000
vn 0.000000 -1.000000 0.000000
vn 0.000000 1.000000 0.000000
vn 0.000000 1.000000 0.000000
vn 0.000000 1.000000 0.000000
vn 0.000000 -1.000000 0.000000
vn 0.000000 -1.000000 0.000000
vn 0.000000 -1.000000 0.000000
vn 0.000000 1.000000 0.000000
vn 0.000000 1.000000 0.000000
vn 0.000000 1.000000 0.000000
vn 0.000000 -1.000000 0.000000
vn 0.000000 -1.000000 0.000000
vn 0.000000 -1.000000 0.000000
vn 0.000000 1.000000 0.000000
vn 0.000000 1.000000 0.000000
vn 0.000000 1.000000 0.000000
vn 0.000000 -1.000000 0.000000
vn 0.000000 -1.000000 0.000000
vn 0.000000 -1.000000 0.000000
vn 0.000000 1.000000 -0.000000
vn 0.000000 1.000000 -0.000000
vn 0.000000 1.000000 -0.000000
vn -0.000000 -1.000000 0.000000
vn -0.000000 -1.000000 0.000000
vn -0.000000 -1.000000 0.000000
vn 0.000000 1.000000 -0.000002
vn 0.000000 1.000000 -0.000002
vn 0.000000 1.000000 -0.000002
vn -0.000000 -1.000000 0.000002
vn -0.000000 -1.000000 0.000002
vn -0.000000 -1.000000 0.000002
vn 0.000000 1.000000 0.000000
vn 0.000000 1.000000 0.000000
vn 0.000000 1.000000 0.000000
vn 0.000000 -1.000000 0.000000
vn 0.000000 -1.000000 0.000000
vn 0.000000 -1.000000 0.000000
vn 0.000000 1.000000 0.000000
vn 0.000000 1.000000 0.000000
vn 0.000000 1.000000 0.000000
vn 0.000000 -1.000000 0.000000
vn 0.000000 -1.000000 0.000000
vn 0.000000 -1.000000 0.000000
vn 0.000000 1.000000 0.000000
vn 0.000000 1.000000 0.000000
vn 0.000000 1.000000 0.000000
vn 0.000000 -1.000000 0.000000
vn 0.000000 -1.000000 0.000000
vn 0.000000 -1.000000 0.000000
vn 0.000000 1.000000 0.000000
vn 0.000000 1.000000 0.000000
vn 0.000000 1.000000 0.000000
vn 0.001884 -0.999998 0.000000
vn 0.001884 -0.999998 0.000000
vn 0.001884 -0.999998 0.000000
vn 0.001173 0.999999 0.000000
vn 0.001173 0.999999 0.000000
vn 0.001173 0.999999 0.000000
vn 0.000000 -1.000000 0.000000
vn 0.000000 -1.000000 0.000000
vn 0.000000 -1.000000 0.000000
vn 0.000000 1.000000 0.000000
vn 0.000000 1.000000 0.000000
vn 0.000000 1.000000 0.000000
vn 0.000000 1.000000 -0.000001
vn 0.000000 1.000000 -0.000001
vn 0.000000 1.000000 -0.000001
vn 0.000000 -1.000000 -0.000001
vn 0.000000 -1.000000 -0.000001
vn 0.000000 -1.000000 -0.000001
vn -0.000000 -1.000000 0.000001
vn -0.000000 -1.000000 0.000001
vn -0.000000 -1.000000 0.000001
vn -0.000000 1.000000 0.000001
vn -0.000000 1.000000 0.000001
vn -0.000000 1.000000 0.000001
vn -0.000000 1.000000 0.000000
vn -0.000000 1.000000 0.000000
vn -0.000000 1.000000 0.000000
vn 0.000000 -1.000000 0.000000
vn 0.000000 -1.000000 0.000000
vn 0.000000 -1.000000 0.000000
vn -0.014038 0.000000 0.999901
vn -0.014038 0.000000 0.999902
vn -0.014038 0.000000 0.999901
vn -0.014038 0.000000 0.999901
vn -0.014038 0.000000 0.999902
vn -0.014038 0.000000 0.999901
vn -0.029293 0.000000 0.999571
vn -0.029293 0.000000 0.999571
vn -0.029293 0.000000 0.999571
vn -0.029292 0.000000 0.999571
vn -0.029292 0.000000 0.999571
vn -0.029292 0.000000 0.999571
vn -0.045297 0.000000 0.998974
vn -0.045297 0.000000 0.998974
vn -0.045297 0.000000 0.998974
vn -0.045297 0.000000 0.998974
vn -0.045297 0.000000 0.998974
vn -0.045297 0.000000 0.998974
vn -0.072852 0.000000 0.997343
vn -0.072852 0.000000 0.997343
vn -0.072852 0.000000 0.997343
vn -0.072852 0.000000 0.997343
vn -0.072852 0.000000 0.997343
vn -0.072852 0.000000 0.997343
vn 0.717570 0.000000 0.696487
vn 0.717570 0.000000 0.696487
vn 0.717570 0.000000 0.696487
vn 0.717566 0.000000 0.696490
vn 0.717566 0.000000 0.696490
vn 0.717566 0.000000 0.696490
vn 0.092796 0.000000 0.995685
vn 0.092796 0.000000 0.995685
vn 0.092796 0.000000 0.995685
vn 0.092794 0.000000 0.995685
vn 0.092794 0.000000 0.995685
vn 0.092794 0.000000 0.995685
vn 0.049768 0.000000 0.998761
vn 0.049768 0.000000 0.998761
vn 0.049768 0.000000 0.998761
vn 0.049767 0.000000 0.998761
vn 0.049767 0.000000 0.998761
vn 0.049767 0.000000 0.998761
vn -0.066692 0.000000 0.997774
vn -0.066692 0.000000 0.997774
vn -0.066692 0.000000 0.997774
vn -0.066692 0.000000 0.997774
vn -0.066692 0.000000 0.997774
vn -0.066692 0.000000 0.997774
vn -0.683810 0.000000 0.729660
vn -0.683810 0.000000 0.729660
vn -0.683810 0.000000 0.729660
vn -0.683807 0.000000 0.729663
vn -0.683807 0.000000 0.729662
vn -0.683807 0.000000 0.729662
vn 0.124338 0.000000 0.992240
vn 0.124338 0.000000 0.992240
vn 0.124338 0.000000 0.992240
vn 0.124337 0.000000 0.992240
vn 0.124337 0.000000 0.992240
vn 0.124337 0.000000 0.992240
vn 0.042281 0.000000 0.999106
vn 0.042281 0.000000 0.999106
vn 0.042281 0.000000 0.999106
vn 0.042281 0.000000 0.999106
vn 0.042281 0.000000 0.999106
vn 0.042281 0.000000 0.999106
vn 0.003487 0.000000 0.999994
vn 0.003487 0.000000 0.999994
vn 0.003487 0.000000 0.999994
vn 0.003486 0.000000 0.999994
vn 0.003486 0.000000 0.999994
vn 0.003486 0.000000 0.999994
vn 0.011524 0.000000 0.999934
vn 0.011524 0.000000 0.999934
vn 0.011524 0.000000 0.999934
vn 0.011524 0.000000 0.999934
vn 0.011524 0.000000 0.999934
vn 0.011524 0.000000 0.999934
vn -0.058884 0.000000 0.998265
vn -0.058884 0.000000 0.998265
vn -0.058884 0.000000 0.998265
vn -0.058882 0.000000 0.998265
vn -0.058882 0.000000 0.998265
vn -0.058882 0.000000 0.998265
vn -0.058883 0.000000 0.998265
vn -0.058883 0.000000 0.998265
vn -0.058883 0.000000 0.998265
vn -0.058883 0.000000 0.998265
vn -0.058883 0.000000 0.998265
vn -0.058883 0.000000 0.998265
vn 0.011524 0.000000 0.999934
vn 0.011524 0.000000 0.999934
vn 0.011524 0.000000 0.999934
vn 0.011524 0.000000 0.999934
vn 0.011524 0.000000 0.999934
vn 0.011524 0.000000 0.999934
vn 0.003486 0.000000 0.999994
vn 0.003486 0.000000 0.999994
vn 0.003486 0.000000 0.999994
vn 0.003487 0.000000 0.999994
vn 0.003487 0.000000 0.999994
vn 0.003487 0.000000 0.999994
vn 0.042281 0.000000 0.999106
vn 0.042281 0.000000 0.999106
vn 0.042281 0.000000 0.999106
vn 0.042281 0.000000 0.999106
vn 0.042281 0.000000 0.999106
vn 0.042281 0.000000 0.999106
vn 0.124337 0.000000 0.992240
vn 0.124337 0.000000 0.992240
vn 0.124337 0.000000 0.992240
vn 0.124337 -0.000000 0.992240
vn 0.124337 -0.000000 0.992240
vn 0.124337 -0.000000 0.992240
vn -0.683811 0.000002 0.729660
vn -0.683811 0.000002 0.729660
vn -0.683811 0.000002 0.729660
vn -0.683806 -0.000001 0.729664
vn -0.683806 -0.000001 0.729664
vn -0.683806 -0.000001 0.729664
vn -0.066693 -0.000000 0.997774
vn -0.066693 -0.000000 0.997774
vn -0.066693 -0.000000 0.997774
vn -0.066692 0.000000 0.997774
vn -0.066692 0.000000 0.997774
vn -0.066692 0.000000 0.997774
vn 0.049768 0.000000 0.998761
vn 0.049768 0.000000 0.998761
vn 0.049768 0.000000 0.998761
vn 0.049768 0.000000 0.998761
vn 0.049768 0.000000 0.998761
vn 0.049768 0.000000 0.998761
vn 0.092795 0.000000 0.995685
vn 0.092795 0.000000 0.995685
vn 0.092795 0.000000 0.995685
vn 0.092795 0.000000 0.995685
vn 0.092795 0.000000 0.995685
vn 0.092795 0.000000 0.995685
vn 0.717568 0.000000 0.696489
vn 0.717568 0.000000 0.696489
vn 0.717568 0.000000 0.696489
vn 0.717568 0.000000 0.696488
vn 0.717568 0.000000 0.696488
vn 0.717568 0.000000 0.696488
vn -0.072852 0.000000 0.997343
vn -0.072852 0.000000 0.997343
vn -0.072852 0.000000 0.997343
vn -0.072852 0.000000 0.997343
vn -0.072852 0.000000 0.997343
vn -0.072852 0.000000 0.997343
vn -0.045297 0.000000 0.998974
vn -0.045297 0.000000 0.998974
vn -0.045297 0.000000 0.998974
vn -0.045297 0.000000 0.998974
vn -0.045297 0.000000 0.998974
vn -0.045297 0.000000 0.998974
vn -0.029292 0.000000 0.999571
vn -0.029292 0.000000 0.999571
vn -0.029292 0.000000 0.999571
vn -0.029292 0.000000 0.999571
vn -0.029292 0.000000 0.999571
vn -0.029292 0.000000 0.999571
vn -0.014038 0.000000 0.999902
vn -0.014038 0.000000 0.999902
vn -0.014038 0.000000 0.999902
vn -0.014038 0.000000 0.999901
vn -0.014038 0.000000 0.999901
vn -0.014038 0.000000 0.999902
vn 0.555312 -0.000000 0.831642
vn 0.555312 -0.000000 0.831642
vn 0.555312 -0.000000 0.831642
vn -0.549177 0.000000 0.835706
vn -0.549177 0.000000 0.835706
vn -0.549177 0.000000 0.835706
vn -0.083123 0.000000 0.996539
vn -0.083123 0.000000 0.996539
vn -0.083123 0.000000 0.996539
vn -0.083123 0.000000 0.996539
vn -0.083123 0.000000 0.996539
vn -0.083123 0.000000 0.996539
vn -0.083123 -0.000000 0.996539
vn -0.083123 -0.000000 0.996539
vn -0.083123 -0.000000 0.996539
vn 0.017067 0.000000 0.999854
vn 0.017067 0.000000 0.999854
vn 0.017067 0.000000 0.999854
vn 0.015059 0.019904 0.999689
vn 0.015059 0.019904 0.999688
vn 0.015059 0.019904 0.999688
vn 0.000000 0.000000 1.000000
vn 0.000000 0.000000 1.000000
vn 0.000000 0.000000 1.000000
vn 0.000000 0.000000 1.000000
vn 0.000000 0.000000 1.000000
vn 0.000000 0.000000 1.000000
vn 0.000000 0.000000 -1.000000
vn 0.000000 0.000000 -1.000000
vn 0.000000 0.000000 -1.000000
vn 0.000000 0.000000 -1.000000
vn 0.000000 0.000000 -1.000000
vn 0.000000 0.000000 -1.000000
vn -0.771620 0.000000 -0.636084
vn -0.771620 0.000000 -0.636084
vn -0.771620 0.000000 -0.636084
vn -0.771620 0.000000 -0.636084
vn -0.771620 0.000000 -0.636084
vn -0.771620 0.000000 -0.636084
vn 0.049523 0.000000 -0.998773
vn 0.049523 0.000000 -0.998773
vn 0.049523 0.000000 -0.998773
vn 0.049524 0.000000 -0.998773
vn 0.049524 0.000000 -0.998773
vn 0.049524 0.000000 -0.998773
vn 0.630286 0.000000 -0.776363
vn 0.630286 0.000000 -0.776363
vn 0.630286 0.000000 -0.776363
vn 0.630289 0.000000 -0.776361
vn 0.630289 0.000000 -0.776361
vn 0.630289 0.000000 -0.776361
vn 0.000000 0.000000 -1.000000
vn 0.000000 0.000000 -1.000000
vn 0.000000 0.000000 -1.000000
vn 0.000000 0.000000 -1.000000
vn 0.000000 0.000000 -1.000000
vn 0.000000 0.000000 -1.000000
vn -0.771620 0.000000 -0.636084
vn -0.771620 0.000000 -0.636084
vn -0.771620 0.000000 -0.636084
vn -0.771619 0.000000 -0.636085
vn -0.771619 0.000000 -0.636085
vn -0.771619 0.000000 -0.636085
vn 0.049523 0.000000 -0.998773
vn 0.049523 0.000000 -0.998773
vn 0.049523 0.000000 -0.998773
vn 0.049523 0.000000 -0.998773
vn 0.049523 0.000000 -0.998773
vn 0.049523 0.000000 -0.998773
vn 0.630286 0.000000 -0.776363
vn 0.630286 0.000000 -0.776363
vn 0.630286 0.000000 -0.776363
vn 0.630286 0.000000 -0.776363
vn 0.630286 0.000000 -0.776363
vn 0.630286 0.000000 -0.776363
vn 0.000000 0.000000 -1.000000
vn 0.000000 0.000000 -1.000000
vn 0.000000 0.000000 -1.000000
vn 0.000000 0.000000 -1.000000
vn 0.000000 0.000000 -1.000000
vn 0.000000 0.000000 -1.000000
vn -0.771619 0.000000 -0.636085
vn -0.771619 0.000000 -0.636085
vn -0.771619 0.000000 -0.636085
vn -0.771620 0.000000 -0.636084
vn -0.771620 0.000000 -0.636084
vn -0.771620 0.000000 -0.636084
vn 0.049523 0.000000 -0.998773
vn 0.049523 0.000000 -0.998773
vn 0.049523 0.000000 -0.998773
vn 0.049524 0.000000 -0.998773
vn 0.049524 0.000000 -0.998773
vn 0.049524 0.000000 -0.998773
vn 0.630286 0.000000 -0.776363
vn 0.630286 0.000000 -0.776363
vn 0.630286 0.000000 -0.776363
vn 0.630287 0.000000 -0.776362
vn 0.630287 0.000000 -0.776362
vn 0.630287 0.000000 -0.776362
vn 0.000000 0.000000 -1.000000
vn 0.000000 0.000000 -1.000000
vn 0.000000 0.000000 -1.000000
vn 0.000000 0.000000 -1.000000
vn 0.000000 0.000000 -1.000000
vn 0.000000 0.000000 -1.000000
vn -0.771619 0.000000 -0.636084
vn -0.771619 0.000000 -0.636085
vn -0.771619 0.000000 -0.636084
vn -0.771619 0.000000 -0.636085
vn -0.771619 0.000000 -0.636085
vn -0.771619 0.000000 -0.636085
vn 0.049523 0.000000 -0.998773
vn 0.049523 0.000000 -0.998773
vn 0.049523 0.000000 -0.998773
vn 0.049523 0.000000 -0.998773
vn 0.049523 0.000000 -0.998773
vn 0.049523 0.000000 -0.998773
vn 0.630286 0.000000 -0.776363
vn 0.630287 0.000000 -0.776363
vn 0.630286 0.000000 -0.776363
vn 0.630286 0.000000 -0.776363
vn 0.630286 0.000000 -0.776363
vn 0.630286 0.000000 -0.776363
vn 0.000000 0.000000 -1.000000
vn 0.000000 0.000000 -1.000000
vn 0.000000 0.000000 -1.000000
vn 0.000000 0.000000 -1.000000
vn 0.000000 0.000000 -1.000000
vn 0.000000 0.000000 -1.000000
vn -0.771619 0.000000 -0.636085
vn -0.771619 0.000000 -0.636085
vn -0.771619 0.000000 -0.636085
vn -0.771620 0.000000 -0.636084
vn -0.771620 0.000000 -0.636084
vn -0.771620 0.000000 -0.636084
vn 0.049523 0.000000 -0.998773
vn 0.049523 0.000000 -0.998773
vn 0.049523 0.000000 -0.998773
vn 0.049523 0.000000 -0.998773
vn 0.049523 0.000000 -0.998773
vn 0.049523 0.000000 -0.998773
vn 0.630286 0.000000 -0.776363
vn 0.630286 0.000000 -0.776363
vn 0.630286 0.000000 -0.776363
vn 0.630286 0.000000 -0.776363
vn 0.630286 0.000000 -0.776363
vn 0.630287 0.000000 -0.776363
vn 0.000000 0.000000 -1.000000
vn 0.000000 0.000000 -1.000000
vn 0.000000 0.000000 -1.000000
vn 0.000000 0.000000 -1.000000
vn 0.000000 0.000000 -1.000000
vn 0.000000 0.000000 -1.000000
vn -0.771620 0.000000 -0.636084
vn -0.771620 0.000000 -0.636084
vn -0.771620 0.000000 -0.636084
vn -0.771619 0.000000 -0.636085
vn -0.771619 0.000000 -0.636084
vn -0.771619 0.000000 -0.636084
vn 0.049523 0.000000 -0.998773
vn 0.049523 0.000000 -0.998773
vn 0.049523 0.000000 -0.998773
vn 0.049523 0.000000 -0.998773
vn 0.049523 0.000000 -0.998773
vn 0.049523 0.000000 -0.998773
vn 0.630286 0.000000 -0.776363
vn 0.630286 0.000000 -0.776363
vn 0.630286 0.000000 -0.776363
vn 0.630286 0.000000 -0.776363
vn 0.630286 0.000000 -0.776363
vn 0.630286 0.000000 -0.776363
vn 0.000000 0.000000 -1.000000
vn 0.000000 0.000000 -1.000000
vn 0.000000 0.000000 -1.000000
vn 0.000000 0.000000 -1.000000
vn 0.000000 0.000000 -1.000000
vn 0.000000 0.000000 -1.000000
vn -0.771620 0.000000 -0.636084
vn -0.771620 0.000000 -0.636084
vn -0.771620 0.000000 -0.636084
vn -0.771619 0.000000 -0.636085
vn -0.771619 0.000000 -0.636084
vn -0.771619 0.000000 -0.636084
vn 0.049523 0.000000 -0.998773
vn 0.049523 0.000000 -0.998773
vn 0.049523 0.000000 -0.998773
vn 0.049523 0.000000 -0.998773
vn 0.049523 0.000000 -0.998773
vn 0.049523 0.000000 -0.998773
vn 0.630287 0.000000 -0.776363
vn 0.630287 0.000000 -0.776363
vn 0.630287 0.000000 -0.776363
vn 0.630286 0.000000 -0.776363
vn 0.630286 0.000000 -0.776363
vn 0.630286 0.000000 -0.776363
vn 0.000000 0.000000 -1.000000
vn 0.000000 0.000000 -1.000000
vn 0.000000 0.000000 -1.000000
vn 0.000000 0.000000 -1.000000
vn 0.000000 0.000000 -1.000000
vn 0.000000 0.000000 -1.000000
vn -0.771620 0.000000 -0.636084
vn -0.771620 0.000000 -0.636084
vn -0.771620 0.000000 -0.636084
vn -0.771619 0.000000 -0.636085
vn -0.771619 0.000000 -0.636085
vn -0.771619 0.000000 -0.636085
vn 0.049523 0.000000 -0.998773
vn 0.049523 0.000000 -0.998773
vn 0.049523 0.000000 -0.998773
vn 0.049523 0.000000 -0.998773
vn 0.049523 0.000000 -0.998773
vn 0.049523 0.000000 -0.998773
vn 0.630286 0.000000 -0.776363
vn 0.630286 0.000000 -0.776363
vn 0.630286 0.000000 -0.776363
vn 0.630286 0.000000 -0.776363
vn 0.630286 0.000000 -0.776363
vn 0.630286 0.000000 -0.776363
vn 0.000000 0.000000 -1.000000
vn 0.000000 0.000000 -1.000000
vn 0.000000 0.000000 -1.000000
vn 0.000000 0.000000 -1.000000
vn 0.000000 0.000000 -1.000000
vn 0.000000 0.000000 -1.000000
vn -0.771619 0.000000 -0.636085
vn -0.771619 0.000000 -0.636085
vn -0.771619 0.000000 -0.636085
vn -0.771620 0.000000 -0.636084
vn -0.771620 0.000000 -0.636084
vn -0.771620 0.000000 -0.636084
vn 0.049523 0.000000 -0.998773
vn 0.049523 0.000000 -0.998773
vn 0.049523 0.000000 -0.998773
vn 0.049523 0.000000 -0.998773
vn 0.049523 0.000000 -0.998773
vn 0.049523 0.000000 -0.998773
vn 0.630286 0.000000 -0.776363
vn 0.630286 0.000000 -0.776363
vn 0.630286 0.000000 -0.776363
vn 0.630287 0.000000 -0.776363
vn 0.630287 0.000000 -0.776363
vn 0.630287 0.000000 -0.776363
vn 0.000000 0.000000 -1.000000
vn 0.000000 0.000000 -1.000000
vn 0.000000 0.000000 -1.000000
vn 0.000000 0.000000 -1.000000
vn 0.000000 0.000000 -1.000000
vn 0.000000 0.000000 -1.000000
vn 0.000000 0.000000 -1.000000
vn 0.000000 0.000000 -1.000000
vn 0.000000 0.000000 -1.000000
vn -0.771619 0.000000 -0.636085
vn -0.771619 0.000000 -0.636085
vn -0.771619 0.000000 -0.636085
vn -0.771619 0.000000 -0.636085
vn -0.771619 0.000000 -0.636085
vn -0.771619 0.000000 -0.636085
vn 0.049523 0.000000 -0.998773
vn 0.049523 0.000000 -0.998773
vn 0.049523 0.000000 -0.998773
vn 0.049523 0.000000 -0.998773
vn 0.049523 0.000000 -0.998773
vn 0.049523 0.000000 -0.998773
vn 0.630286 0.000000 -0.776363
vn 0.630286 0.000000 -0.776363
vn 0.630286 0.000000 -0.776363
vn 0.630287 0.000000 -0.776363
vn 0.630287 0.000000 -0.776363
vn 0.630287 0.000000 -0.776363
vn -0.678103 -0.477175 -0.559000
vn -0.678103 -0.477175 -0.559000
vn -0.678103 -0.477175 -0.559000
vn -0.678102 -0.477174 -0.559002
vn -0.678102 -0.477174 -0.559002
vn -0.678102 -0.477174 -0.559002
vn -0.930436 -0.000001 -0.366454
vn -0.930436 -0.000001 -0.366454
vn -0.930436 -0.000001 -0.366454
vn -0.930437 0.000000 -0.366453
vn -0.930437 0.000000 -0.366453
vn -0.930437 0.000000 -0.366453
vn -0.678105 0.477182 -0.558991
vn -0.678105 0.477182 -0.558991
vn -0.678105 0.477181 -0.558991
vn -0.678104 0.477177 -0.558996
vn -0.678104 0.477177 -0.558996
vn -0.678104 0.477177 -0.558996
vn 0.000000 0.653340 -0.757065
vn 0.000000 0.653340 -0.757065
vn 0.000000 0.653340 -0.757065
vn 0.000000 0.653333 -0.757071
vn 0.000000 0.653333 -0.757071
vn 0.000000 0.653333 -0.757071
vn 0.000000 0.653337 -0.757068
vn 0.000000 0.653337 -0.757068
vn 0.000000 0.653337 -0.757068
vn 0.000000 0.653336 -0.757068
vn 0.000000 0.653337 -0.757068
vn 0.000000 0.653337 -0.757068
vn 0.037505 0.653049 -0.756386
vn 0.037505 0.653049 -0.756386
vn 0.037505 0.653049 -0.756386
vn 0.037505 0.653039 -0.756395
vn 0.037505 0.653039 -0.756395
vn 0.037505 0.653039 -0.756395
vn 0.522446 0.559379 -0.643541
vn 0.522446 0.559379 -0.643541
vn 0.522446 0.559379 -0.643541
vn 0.522450 0.559380 -0.643537
vn 0.522450 0.559380 -0.643537
vn 0.522450 0.559380 -0.643537
vn 0.889119 0.000000 -0.457676
vn 0.889119 0.000000 -0.457676
vn 0.889119 0.000000 -0.457677
vn 0.889119 0.000000 -0.457675
vn 0.889119 0.000000 -0.457675
vn 0.889119 0.000000 -0.457675
vn 0.522447 -0.559378 -0.643541
vn 0.522447 -0.559378 -0.643541
vn 0.522447 -0.559378 -0.643541
vn 0.522449 -0.559381 -0.643537
vn 0.522449 -0.559381 -0.643537
vn 0.522449 -0.559381 -0.643537
vn 0.037506 -0.653049 -0.756387
vn 0.037506 -0.653049 -0.756387
vn 0.037506 -0.653049 -0.756387
vn 0.037504 -0.653030 -0.756403
vn 0.037504 -0.653030 -0.756403
vn 0.037504 -0.653030 -0.756403
vn 0.000000 -0.653328 -0.757075
vn 0.000000 -0.653328 -0.757075
vn 0.000000 -0.653328 -0.757075
vn 0.000000 -0.653336 -0.757068
vn 0.000000 -0.653337 -0.757068
vn 0.000000 -0.653336 -0.757068
vn 0.037504 0.653030 -0.756403
vn 0.037504 0.653030 -0.756403
vn 0.037504 0.653030 -0.756403
vn 0.037505 0.653039 -0.756395
vn 0.037505 0.653039 -0.756395
vn 0.037505 0.653039 -0.756395
vn 0.522446 0.559379 -0.643541
vn 0.522446 0.559379 -0.643541
vn 0.522446 0.559379 -0.643541
vn 0.522454 0.559385 -0.643530
vn 0.522454 0.559385 -0.643530
vn 0.522454 0.559385 -0.643530
vn 0.889119 0.000000 -0.457676
vn 0.889119 0.000000 -0.457676
vn 0.889119 0.000000 -0.457676
vn 0.889119 0.000000 -0.457676
vn 0.889119 0.000000 -0.457676
vn 0.889119 0.000000 -0.457676
vn 0.522453 -0.559384 -0.643532
vn 0.522453 -0.559384 -0.643532
vn 0.522453 -0.559384 -0.643532
vn 0.522449 -0.559381 -0.643537
vn 0.522449 -0.559381 -0.643537
vn 0.522449 -0.559381 -0.643537
vn 0.037505 -0.653039 -0.756395
vn 0.037505 -0.653039 -0.756395
vn 0.037505 -0.653039 -0.756395
vn 0.037505 -0.653039 -0.756395
vn 0.037505 -0.653039 -0.756395
vn 0.037505 -0.653039 -0.756395
vn 0.000000 -0.653336 -0.757068
vn 0.000000 -0.653336 -0.757068
vn 0.000000 -0.653336 -0.757068
vn 0.000000 -0.653336 -0.757068
vn 0.000000 -0.653336 -0.757068
vn 0.000000 -0.653336 -0.757068
vn -0.678103 -0.477174 -0.559000
vn -0.678103 -0.477175 -0.559000
vn -0.678103 -0.477175 -0.559000
vn -0.678105 -0.477176 -0.558997
vn -0.678105 -0.477176 -0.558997
vn -0.678105 -0.477176 -0.558997
vn -0.930437 0.000000 -0.366453
vn -0.930437 0.000000 -0.366453
vn -0.930437 0.000000 -0.366453
vn -0.930437 0.000000 -0.366453
vn -0.930437 0.000000 -0.366453
vn -0.930436 0.000000 -0.366453
vn -0.678107 0.477178 -0.558993
vn -0.678107 0.477178 -0.558993
vn -0.678107 0.477178 -0.558993
vn -0.678105 0.477176 -0.558997
vn -0.678105 0.477176 -0.558997
vn -0.678105 0.477176 -0.558997
vn 0.000000 0.653336 -0.757068
vn 0.000000 0.653336 -0.757068
vn 0.000000 0.653336 -0.757068
vn 0.000000 0.653332 -0.757072
vn 0.000000 0.653332 -0.757071
vn 0.000000 0.653332 -0.757071
vn 0.000000 0.653333 -0.757071
vn 0.000000 0.653333 -0.757071
vn 0.000000 0.653333 -0.757071
vn 0.000000 0.653336 -0.757068
vn 0.000000 0.653336 -0.757068
vn 0.000000 0.653336 -0.757068
vn 0.000000 0.653337 -0.757068
vn 0.000000 0.653336 -0.757068
vn 0.000000 0.653336 -0.757068
vn 0.037505 0.653039 -0.756395
vn 0.037505 0.653039 -0.756395
vn 0.037505 0.653039 -0.756395
vn 0.037505 0.653044 -0.756391
vn 0.037505 0.653044 -0.756391
vn 0.037505 0.653044 -0.756391
vn 0.522449 0.559386 -0.643533
vn 0.522449 0.559386 -0.643533
vn 0.522449 0.559386 -0.643533
vn 0.522450 0.559383 -0.643535
vn 0.522450 0.559383 -0.643535
vn 0.522450 0.559383 -0.643535
vn 0.889119 0.000000 -0.457676
vn 0.889119 0.000000 -0.457676
vn 0.889119 0.000000 -0.457676
vn 0.889119 0.000000 -0.457675
vn 0.889119 0.000000 -0.457675
vn 0.889119 0.000000 -0.457675
vn 0.522450 -0.559381 -0.643537
vn 0.522450 -0.559381 -0.643537
vn 0.522450 -0.559381 -0.643536
vn 0.522449 -0.559381 -0.643537
vn 0.522449 -0.559381 -0.643537
vn 0.522449 -0.559381 -0.643537
vn 0.037505 -0.653041 -0.756393
vn 0.037505 -0.653041 -0.756393
vn 0.037505 -0.653041 -0.756393
vn 0.037505 -0.653042 -0.756393
vn 0.037505 -0.653042 -0.756393
vn 0.037505 -0.653042 -0.756393
vn 0.000000 -0.653341 -0.757064
vn 0.000000 -0.653341 -0.757064
vn 0.000000 -0.653341 -0.757064
vn 0.000000 -0.653332 -0.757071
vn 0.000000 -0.653332 -0.757072
vn 0.000000 -0.653332 -0.757072
vn -0.678105 -0.477176 -0.558996
vn -0.678105 -0.477176 -0.558996
vn -0.678105 -0.477176 -0.558996
vn -0.678106 -0.477177 -0.558994
vn -0.678106 -0.477177 -0.558994
vn -0.678106 -0.477177 -0.558994
vn -0.930436 0.000000 -0.366455
vn -0.930436 0.000000 -0.366455
vn -0.930436 0.000000 -0.366455
vn -0.930436 0.000000 -0.366454
vn -0.930436 0.000000 -0.366454
vn -0.930436 0.000000 -0.366454
vn -0.678101 0.477177 -0.559001
vn -0.678101 0.477177 -0.559001
vn -0.678101 0.477177 -0.559001
vn -0.678105 0.477179 -0.558993
vn -0.678105 0.477179 -0.558993
vn -0.678105 0.477179 -0.558993
vn 0.000000 0.653335 -0.757069
vn 0.000000 0.653335 -0.757069
vn 0.000000 0.653335 -0.757069
vn 0.000000 0.653334 -0.757070
vn 0.000000 0.653334 -0.757070
vn 0.000000 0.653334 -0.757070
vn 0.037505 0.653042 -0.756393
vn 0.037505 0.653042 -0.756393
vn 0.037505 0.653042 -0.756393
vn 0.037505 0.653041 -0.756393
vn 0.037505 0.653041 -0.756393
vn 0.037505 0.653041 -0.756393
vn 0.522450 0.559384 -0.643534
vn 0.522450 0.559384 -0.643534
vn 0.522450 0.559384 -0.643534
vn 0.522451 0.559381 -0.643535
vn 0.522451 0.559381 -0.643535
vn 0.522451 0.559381 -0.643535
vn 0.889119 0.000000 -0.457675
vn 0.889119 0.000000 -0.457676
vn 0.889119 0.000000 -0.457676
vn 0.889119 0.000000 -0.457676
vn 0.889119 0.000000 -0.457676
vn 0.889119 0.000000 -0.457676
vn 0.522451 -0.559382 -0.643534
vn 0.522451 -0.559382 -0.643534
vn 0.522451 -0.559382 -0.643534
vn 0.522450 -0.559382 -0.643535
vn 0.522450 -0.559382 -0.643535
vn 0.522450 -0.559382 -0.643535
vn 0.037505 -0.653040 -0.756394
vn 0.037505 -0.653040 -0.756394
vn 0.037505 -0.653040 -0.756394
vn 0.037505 -0.653042 -0.756393
vn 0.037505 -0.653042 -0.756393
vn 0.037505 -0.653042 -0.756393
vn 0.000000 -0.653336 -0.757068
vn 0.000000 -0.653336 -0.757068
vn 0.000000 -0.653336 -0.757068
vn 0.000000 -0.653336 -0.757068
vn 0.000000 -0.653337 -0.757068
vn 0.000000 -0.653336 -0.757068
vn -0.678105 -0.477176 -0.558996
vn -0.678105 -0.477176 -0.558996
vn -0.678105 -0.477176 -0.558996
vn -0.678105 -0.477176 -0.558996
vn -0.678105 -0.477176 -0.558996
vn -0.678105 -0.477176 -0.558996
vn -0.930436 0.000000 -0.366454
vn -0.930436 0.000000 -0.366454
vn -0.930436 0.000000 -0.366454
vn -0.930436 0.000000 -0.366453
vn -0.930436 0.000000 -0.366453
vn -0.930436 0.000000 -0.366453
vn -0.678105 0.477177 -0.558996
vn -0.678105 0.477177 -0.558996
vn -0.678105 0.477177 -0.558996
vn -0.678105 0.477176 -0.558996
vn -0.678105 0.477176 -0.558996
vn -0.678105 0.477176 -0.558996
vn 0.000000 0.653335 -0.757069
vn 0.000000 0.653335 -0.757069
vn 0.000000 0.653335 -0.757069
vn 0.000000 0.653338 -0.757067
vn 0.000000 0.653338 -0.757067
vn 0.000000 0.653338 -0.757067
vn 0.037505 0.653043 -0.756392
vn 0.037505 0.653043 -0.756392
vn 0.037505 0.653043 -0.756392
vn 0.037505 0.653041 -0.756393
vn 0.037505 0.653041 -0.756393
vn 0.037505 0.653041 -0.756393
vn 0.522450 0.559384 -0.643534
vn 0.522450 0.559384 -0.643534
vn 0.522450 0.559384 -0.643534
vn 0.522451 0.559381 -0.643535
vn 0.522451 0.559381 -0.643535
vn 0.522451 0.559381 -0.643535
vn 0.889119 0.000000 -0.457676
vn 0.889119 0.000000 -0.457676
vn 0.889119 0.000000 -0.457676
vn 0.889119 0.000000 -0.457676
vn 0.889119 0.000000 -0.457676
vn 0.889119 0.000000 -0.457676
vn 0.522450 -0.559381 -0.643537
vn 0.522450 -0.559381 -0.643537
vn 0.522450 -0.559381 -0.643537
vn 0.522450 -0.559382 -0.643535
vn 0.522450 -0.559382 -0.643535
vn 0.522450 -0.559382 -0.643535
vn 0.037505 -0.653041 -0.756393
vn 0.037505 -0.653041 -0.756393
vn 0.037505 -0.653041 -0.756393
vn 0.037505 -0.653039 -0.756395
vn 0.037505 -0.653039 -0.756395
vn 0.037505 -0.653039 -0.756395
vn 0.000000 -0.653334 -0.757070
vn 0.000000 -0.653334 -0.757070
vn 0.000000 -0.653334 -0.757070
vn 0.000000 -0.653336 -0.757068
vn 0.000000 -0.653337 -0.757068
vn 0.000000 -0.653336 -0.757068
vn -0.678106 -0.477176 -0.558995
vn -0.678106 -0.477176 -0.558995
vn -0.678106 -0.477176 -0.558995
vn -0.678105 -0.477176 -0.558997
vn -0.678105 -0.477176 -0.558997
vn -0.678105 -0.477176 -0.558997
vn -0.930436 0.000000 -0.366454
vn -0.930436 0.000000 -0.366454
vn -0.930436 0.000000 -0.366454
vn -0.930436 0.000000 -0.366454
vn -0.930436 0.000000 -0.366454
vn -0.930436 0.000000 -0.366454
vn -0.678105 0.477177 -0.558996
vn -0.678105 0.477177 -0.558996
vn -0.678105 0.477177 -0.558996
vn -0.678105 0.477176 -0.558996
vn -0.678105 0.477176 -0.558996
vn -0.678105 0.477176 -0.558996
vn 0.000000 0.653336 -0.757068
vn 0.000000 0.653336 -0.757068
vn 0.000000 0.653336 -0.757068
vn 0.000000 0.653341 -0.757064
vn 0.000000 0.653341 -0.757064
vn 0.000000 0.653341 -0.757064
vn 0.037505 0.653044 -0.756391
vn 0.037505 0.653044 -0.756391
vn 0.037505 0.653044 -0.756391
vn 0.037505 0.653039 -0.756395
vn 0.037505 0.653039 -0.756395
vn 0.037505 0.653039 -0.756395
vn 0.522452 0.559385 -0.643531
vn 0.522452 0.559385 -0.643531
vn 0.522452 0.559385 -0.643531
vn 0.522450 0.559380 -0.643537
vn 0.522450 0.559380 -0.643537
vn 0.522450 0.559380 -0.643537
vn 0.889120 0.000000 -0.457675
vn 0.889120 0.000000 -0.457674
vn 0.889120 0.000000 -0.457675
vn 0.889119 0.000000 -0.457677
vn 0.889119 0.000000 -0.457677
vn 0.889119 0.000000 -0.457677
vn 0.522450 -0.559377 -0.643540
vn 0.522450 -0.559377 -0.643540
vn 0.522450 -0.559377 -0.643540
vn 0.522454 -0.559382 -0.643532
vn 0.522454 -0.559382 -0.643532
vn 0.522454 -0.559382 -0.643532
vn 0.037505 -0.653039 -0.756395
vn 0.037505 -0.653039 -0.756395
vn 0.037505 -0.653039 -0.756395
vn 0.037505 -0.653039 -0.756395
vn 0.037505 -0.653039 -0.756395
vn 0.037505 -0.653039 -0.756395
vn 0.000000 -0.653323 -0.757079
vn 0.000000 -0.653323 -0.757079
vn 0.000000 -0.653323 -0.757079
vn 0.000000 -0.653336 -0.757068
vn 0.000000 -0.653337 -0.757068
vn 0.000000 -0.653336 -0.757068
vn -0.678106 -0.477173 -0.558998
vn -0.678106 -0.477173 -0.558998
vn -0.678106 -0.477173 -0.558998
vn -0.678107 -0.477175 -0.558995
vn -0.678107 -0.477175 -0.558995
vn -0.678107 -0.477175 -0.558995
vn -0.930436 0.000000 -0.366454
vn -0.930436 0.000000 -0.366454
vn -0.930436 0.000000 -0.366454
vn -0.930436 0.000000 -0.366454
vn -0.930436 0.000000 -0.366454
vn -0.930436 0.000000 -0.366454
vn -0.678107 0.477178 -0.558993
vn -0.678107 0.477178 -0.558993
vn -0.678107 0.477178 -0.558993
vn -0.678105 0.477176 -0.558997
vn -0.678105 0.477176 -0.558997
vn -0.678105 0.477176 -0.558997
vn 0.000000 -1.000000 0.000000
vn 0.000000 -1.000000 0.000000
vn 0.000000 -1.000000 0.000000
vn -0.000000 -1.000000 0.000001
vn -0.000000 -1.000000 0.000001
vn -0.000000 -1.000000 0.000001
vn 0.000000 -1.000000 0.000000
vn 0.000000 -1.000000 0.000000
vn 0.000000 -1.000000 0.000000
vn 0.000000 -1.000000 0.000000
vn 0.000000 -1.000000 0.000000
vn 0.000000 -1.000000 0.000000
vn 0.000000 -1.000000 0.000000
vn 0.000000 -1.000000 0.000000
vn 0.000000 -1.000000 0.000000
vn -0.000000 -1.000000 0.000001
vn -0.000000 -1.000000 0.000001
vn -0.000000 -1.000000 0.000001
vn 0.000000 -1.000000 0.000000
vn 0.000000 -1.000000 0.000000
vn 0.000000 -1.000000 0.000000
vn 0.000000 -1.000000 -0.000000
vn 0.000000 -1.000000 -0.000000
vn 0.000000 -1.000000 -0.000000
vn 0.000000 -1.000000 -0.000001
vn 0.000000 -1.000000 -0.000001
vn 0.000000 -1.000000 -0.000001
vn 0.000000 -1.000000 0.000000
vn 0.000000 -1.000000 0.000000
vn 0.000000 -1.000000 0.000000
vn 0.000000 -1.000000 -0.000001
vn 0.000000 -1.000000 -0.000001
vn 0.000000 -1.000000 -0.000001
vn 0.000000 -1.000000 0.000000
vn 0.000000 -1.000000 0.000000
vn 0.000000 -1.000000 0.000000
vn 0.000000 -1.000000 0.000000
vn 0.000000 -1.000000 0.000000
vn 0.000000 -1.000000 0.000000
vn -0.000000 0.000000 0.000000
vn -0.083108 0.000000 0.996541
vn -0.083108 0.000000 0.996541
vn -0.083122 -0.000000 0.996539
vn -0.083122 -0.000000 0.996539
vn -0.083122 -0.000000 0.996539
vn 0.555312 0.000000 0.831642
vn 0.555312 0.000000 0.831642
vn 0.555312 0.000000 0.831642
vn 0.007042 0.000000 0.999975
vn 0.007042 0.000000 0.999975
vn 0.007042 0.000000 0.999975
vn 0.186161 -0.001672 0.982518
vn 0.186161 -0.001672 0.982518
vn 0.186161 -0.001672 0.982518
vn 0.114890 -0.001691 0.993377
vn 0.114890 -0.001691 0.993377
vn 0.114890 -0.001691 0.993377
vn -0.257033 -0.003635 0.966396
vn -0.257033 -0.003635 0.966396
vn -0.257033 -0.003635 0.966396
vn -0.644275 -0.003056 0.764788
vn -0.644275 -0.003056 0.764788
vn -0.644275 -0.003056 0.764788
vn -0.930556 0.000000 0.366148
vn -0.930556 0.000000 0.366148
vn -0.930556 0.000000 0.366149
vn 0.903088 0.000000 0.429456
vn 0.903088 0.000000 0.429456
vn 0.903088 0.000000 0.429456
vn 0.573335 0.000495 0.819321
vn 0.573335 0.000495 0.819321
vn 0.573335 0.000495 0.819321
vn 0.393760 -0.001432 0.919212
vn 0.393760 -0.001432 0.919212
vn 0.393760 -0.001432 0.919212
vn 0.130276 0.000000 0.991478
vn 0.130276 0.000000 0.991478
vn 0.130276 0.000000 0.991478
vn -0.122270 0.000000 0.992497
vn -0.122270 0.000000 0.992497
vn -0.122270 0.000000 0.992497
vn -0.149636 0.000000 0.988741
vn -0.149636 0.000000 0.988741
vn -0.149636 0.000000 0.988741
vn -0.030895 0.000000 0.999523
vn -0.030895 0.000000 0.999523
vn -0.030895 0.000000 0.999523
vn -0.549177 0.000000 0.835706
vn -0.549177 0.000000 0.835706
vn -0.549177 0.000000 0.835706
vn 0.000001 0.000000 1.000000
vn 0.000001 0.000000 1.000000
vn 0.000001 0.000000 1.000000
vn 0.000000 1.000000 0.000000
vn 0.000000 1.000000 0.000000
vn 0.000000 1.000000 0.000000
vn 0.000605 0.999999 0.001120
vn 0.000605 0.999999 0.001120
vn 0.000605 0.999999 0.001120
vn -0.000871 0.999999 0.001117
vn -0.000871 0.999999 0.001117
vn -0.000871 0.999999 0.001117
vn 0.000000 1.000000 -0.000001
vn 0.000000 1.000000 -0.000001
vn 0.000000 1.000000 -0.000001
vn -0.000000 1.000000 0.000001
vn -0.000000 1.000000 0.000001
vn -0.000000 1.000000 0.000001
vn 0.000000 1.000000 0.000000
vn 0.000000 1.000000 0.000000
vn 0.000000 1.000000 0.000000
vn 0.000000 1.000000 0.000000
vn 0.000000 1.000000 0.000000
vn 0.000000 1.000000 0.000000
vn 0.000000 1.000000 0.000000
vn 0.000000 1.000000 0.000000
vn 0.000000 1.000000 0.000000
vn 0.000000 1.000000 -0.000000
vn 0.000000 1.000000 -0.000000
vn 0.000000 1.000000 -0.000000
vn 0.000000 1.000000 -0.000001
vn 0.000000 1.000000 -0.000001
vn 0.000000 1.000000 -0.000001
vn 0.000000 1.000000 0.000000
vn 0.000000 1.000000 0.000000
vn 0.000000 1.000000 0.000000
vn 0.000000 1.000000 0.000000
vn 0.000000 1.000000 0.000000
vn 0.000000 1.000000 0.000000
vn 0.000000 1.000000 0.000000
vn 0.000000 1.000000 0.000000
vn 0.000000 1.000000 0.000000
vn 0.039189 0.000000 -0.999232
vn 0.039189 0.000000 -0.999232
vn 0.039189 0.000000 -0.999232
vn -0.006215 0.005940 -0.999963
vn -0.006215 0.005940 -0.999963
vn -0.006215 0.005940 -0.999963
vn 0.001578 0.003674 -0.999992
vn 0.001578 0.003674 -0.999992
vn 0.001578 0.003674 -0.999992
vn 0.006893 0.001559 -0.999975
vn 0.006893 0.001559 -0.999975
vn 0.006893 0.001559 -0.999975
vn -0.226623 0.135852 -0.964462
vn -0.226623 0.135852 -0.964462
vn -0.226623 0.135852 -0.964462
vn 0.184124 0.000000 -0.982903
vn 0.184124 0.000000 -0.982903
vn 0.184124 0.000000 -0.982903
vn 0.000000 -1.000000 0.000000
vn 0.000000 -1.000000 0.000000
vn 0.000000 -1.000000 0.000000
vn 0.019601 0.000000 -0.999808
vn 0.019601 0.000000 -0.999808
vn 0.019601 0.000000 -0.999808
vn 0.019601 0.000000 -0.999808
vn 0.019601 0.000000 -0.999808
vn 0.019601 0.000000 -0.999808
vn 0.019601 0.000000 -0.999808
vn 0.019601 0.000000 -0.999808
vn 0.019601 0.000000 -0.999808
vn 0.019601 0.000000 -0.999808
vn 0.019601 0.000000 -0.999808
vn 0.019601 0.000000 -0.999808
vn 0.019601 0.000000 -0.999808
vn 0.019601 0.000000 -0.999808
vn 0.019601 0.000000 -0.999808
vn 0.019601 0.000000 -0.999808
vn 0.019601 0.000000 -0.999808
vn 0.019601 0.000000 -0.999808
vn 0.019601 0.000000 -0.999808
vn 0.019601 0.000000 -0.999808
vn 0.019601 0.000000 -0.999808
vn 0.019601 0.000000 -0.999808
vn 0.019601 0.000000 -0.999808
vn 0.019601 0.000000 -0.999808
vn 0.019601 0.000000 -0.999808
vn 0.019601 0.000000 -0.999808
vn 0.019601 0.000000 -0.999808
vn 0.019601 0.000000 -0.999808
vn 0.019601 0.000000 -0.999808
vn 0.019601 0.000000 -0.999808
vn 0.000000 -1.000000 0.000000
vn 0.000000 -1.000000 0.000000
vn 0.000000 -1.000000 0.000000
vn 0.012091 -0.212996 -0.976978
vn 0.012091 -0.212996 -0.976978
vn 0.012091 -0.212996 -0.976978
vn 0.025267 0.000000 -0.999681
vn 0.025267 0.000000 -0.999681
vn 0.025267 0.000000 -0.999681
vn -0.000000 -1.000000 0.000023
vn -0.000000 -1.000000 0.000023
vn -0.000000 -1.000000 0.000023
s off
g book_centered:Mesh
usemtl initialShadingGroup
f 401/1/1 329/2/2 108/3/3
f 41/4/4 436/5/5 295/6/6
f 295/6/7 101/7/8 41/4/9
f 107/8/10 100/9/11 185/10/12
f 107/8/13 185/10/14 392/11/15
f 107/8/16 392/11/17 400/12/18
f 40/13/19 98/14/20 106/15/21
f 106/15/22 35/16/23 40/13/24
f 97/17/25 390/18/26 377/19/27
f 97/17/28 377/19/29 301/20/30
f 97/17/31 301/20/32 423/21/33
f 97/17/34 423/21/35 84/22/36
f 379/23/37 388/24/38 355/25/39
f 355/25/40 370/26/41 379/23/42
f 378/27/43 369/28/44 231/29/45
f 378/27/46 231/29/47 408/30/48
f 378/27/49 408/30/50 302/31/51
f 86/32/52 77/33/53 62/34/54
f 62/34/55 95/35/56 86/32/57
f 370/26/58 355/25/59 359/36/60
f 359/36/61 385/37/62 370/26/63
f 171/38/64 254/39/65 252/40/66
f 92/41/67 66/42/68 62/34/69
f 62/34/70 77/33/71 92/41/72
f 385/37/73 359/36/74 382/43/75
f 382/43/76 344/44/77 385/37/78
f 323/45/79 252/40/80 249/46/81
f 51/47/82 89/48/83 66/42/84
f 66/42/85 92/41/86 51/47/87
f 344/44/88 382/43/89 342/49/90
f 342/49/91 374/50/92 344/44/93
f 323/45/94 249/46/95 235/51/96
f 51/47/97 81/52/98 49/53/99
f 49/53/100 89/48/101 51/47/102
f 374/50/103 342/49/104 364/54/105
f 364/54/106 350/55/107 374/50/108
f 134/56/109 227/57/110 248/58/111
f 46/59/112 31/60/113 28/61/114
f 28/61/115 94/62/116 46/59/117
f 2/63/118 24/64/119 22/65/120
f 22/65/121 23/66/122 1/67/123
f 2/63/124 22/65/125 1/67/126
f 134/56/127 248/58/128 239/68/129
f 54/69/130 32/70/131 31/60/132
f 31/60/133 46/59/134 54/69/135
f 367/71/136 347/72/137 327/73/138
f 327/73/139 353/74/140 367/71/141
f 177/75/142 210/76/143 246/77/144
f 72/78/145 52/79/146 38/80/147
f 38/80/148 105/81/149 72/78/150
f 376/82/151 366/83/152 345/84/153
f 345/84/154 371/85/155 376/82/156
f 177/75/157 246/77/158 203/86/159
f 82/87/160 78/88/161 52/79/162
f 52/79/163 72/78/164 82/87/165
f 338/89/166 376/82/167 371/85/168
f 371/85/169 380/90/170 338/89/171
f 182/91/172 203/86/173 264/92/174
f 44/93/175 87/94/176 78/88/177
f 78/88/178 82/87/179 44/93/180
f 338/89/181 380/90/182 358/95/183
f 358/95/184 336/96/185 338/89/186
f 182/91/187 264/92/188 204/97/189
f 42/98/190 65/99/191 87/94/192
f 87/94/193 44/93/194 42/98/195
f 395/100/196 336/96/197 358/95/198
f 358/95/199 330/101/200 395/100/201
f 118/102/202 36/103/203 53/104/204
f 64/105/205 34/106/206 331/107/207
f 88/108/208 64/105/209 331/107/210
f 79/109/211 88/108/212 331/107/213
f 53/104/214 79/109/215 331/107/216
f 53/104/217 331/107/218 197/110/219
f 53/104/220 197/110/221 289/111/222
f 53/104/223 289/111/224 111/112/225
f 53/104/226 111/112/227 306/113/228
f 53/104/229 306/113/230 313/114/231
f 53/104/232 313/114/233 418/115/234
f 53/104/235 418/115/236 17/116/237
f 53/104/238 17/116/239 267/117/240
f 53/104/241 267/117/242 189/118/243
f 118/102/244 53/104/245 189/118/246
f 40/13/247 35/16/248 65/99/249
f 65/99/250 42/98/251 40/13/252
f 395/100/253 330/101/254 402/119/255
f 402/119/256 393/120/257 395/100/258
f 387/121/259 352/122/260 363/123/261
f 363/123/262 326/124/263 387/121/264
f 362/125/265 341/126/266 383/127/267
f 362/125/268 383/127/269 360/128/270
f 362/125/271 360/128/272 356/129/273
f 362/125/274 356/129/275 389/130/276
f 362/125/277 389/130/278 96/131/279
f 142/132/280 235/51/281 215/133/282
f 81/52/283 57/134/284 71/135/285
f 71/135/286 49/53/287 81/52/288
f 24/64/289 2/63/290 4/136/291
f 4/136/292 26/137/293 24/64/294
f 142/132/295 215/133/296 227/57/297
f 94/62/298 28/61/299 70/138/300
f 70/138/301 58/139/302 94/62/303
f 327/73/304 347/72/305 339/140/306
f 339/140/307 387/121/308 326/124/309
f 327/73/310 339/140/311 326/124/312
f 367/71/313 353/74/314 333/141/315
f 333/141/316 398/142/317 367/71/318
f 27/143/319 5/144/320 1/67/321
f 1/67/322 23/66/323 27/143/324
f 136/145/325 240/146/326 233/147/327
f 74/148/328 60/149/329 32/70/330
f 32/70/331 54/69/332 74/148/333
f 25/150/334 3/151/335 5/144/336
f 5/144/337 27/143/338 25/150/339
f 136/145/340 233/147/341 210/76/342
f 74/148/343 102/152/344 39/153/345
f 39/153/346 60/149/347 74/148/348
f 366/83/349 397/154/350 334/155/351
f 334/155/352 345/84/353 366/83/354
f 232/156/355 255/157/356 409/158/357
f 406/159/358 172/160/359 157/161/360
f 258/162/361 255/157/362 232/156/363
f 157/161/364 168/163/365 175/164/366
f 217/165/367 250/166/368 258/162/369
f 175/164/370 168/163/371 145/167/372
f 242/168/373 250/166/374 217/165/375
f 145/167/376 159/169/377 165/170/378
f 224/171/379 216/172/380 242/168/381
f 129/173/382 139/174/383 174/175/384
f 237/176/385 247/177/386 219/178/387
f 161/179/388 147/180/389 139/174/390
f 234/181/391 238/182/392 221/183/393
f 180/184/394 132/185/395 153/186/396
f 243/187/397 202/188/398 245/189/399
f 153/186/400 141/190/401 167/191/402
f 263/192/403 202/188/404 243/187/405
f 167/191/406 141/190/407 131/193/408
f 207/194/409 206/195/410 263/192/411
f 131/193/412 124/196/413 127/197/414
f 14/198/415 206/195/416 207/194/417
f 127/197/418 124/196/419 438/199/420
f 216/172/421 224/171/422 257/200/423
f 165/170/424 159/169/425 151/201/426
f 151/201/427 129/173/428 174/175/429
f 228/202/430 257/200/431 247/177/432
f 261/203/433 209/204/434 234/181/435
f 160/205/436 155/206/437 146/207/438
f 132/185/439 180/184/440 155/206/441
f 245/189/442 209/204/443 261/203/444
f 259/208/445 231/29/446 369/28/447
f 369/28/448 384/209/449 259/208/450
f 218/210/451 259/208/452 384/209/453
f 384/209/454 343/211/455 218/210/456
f 241/212/457 218/210/458 343/211/459
f 343/211/460 373/213/461 241/212/462
f 222/214/463 241/212/464 373/213/465
f 373/213/466 349/215/467 222/214/468
f 256/216/469 223/217/470 351/218/471
f 351/218/472 386/219/473 256/216/474
f 214/220/475 256/216/476 386/219/477
f 386/219/478 340/221/479 214/220/480
f 220/222/481 214/220/482 340/221/483
f 340/221/484 348/223/485 220/222/486
f 229/224/487 220/222/488 348/223/489
f 348/223/490 368/225/491 229/224/492
f 260/226/493 229/224/494 368/225/495
f 368/225/496 399/227/497 260/226/498
f 226/228/499 262/229/500 396/230/501
f 396/230/502 365/231/503 226/228/504
f 244/232/505 226/228/506 365/231/507
f 365/231/508 375/233/509 244/232/510
f 212/234/511 244/232/512 375/233/513
f 375/233/514 337/235/515 212/234/516
f 208/236/517 212/234/518 337/235/519
f 337/235/520 335/237/521 208/236/522
f 13/238/523 208/236/524 335/237/525
f 335/237/526 394/239/527 13/238/528
f 126/240/529 436/5/530 41/4/531
f 41/4/532 43/241/533 126/240/534
f 130/242/535 126/240/536 43/241/537
f 43/241/538 45/243/539 130/242/540
f 166/244/541 130/242/542 45/243/543
f 45/243/544 83/245/545 166/244/546
f 152/246/547 166/244/548 83/245/549
f 83/245/550 73/247/551 152/246/552
f 179/248/553 152/246/554 73/247/555
f 73/247/556 104/249/557 179/248/558
f 154/250/559 181/251/560 103/252/561
f 103/252/562 75/253/563 154/250/564
f 148/254/565 154/250/566 75/253/567
f 75/253/568 55/255/569 148/254/570
f 138/256/571 148/254/572 55/255/573
f 55/255/574 47/257/575 138/256/576
f 173/258/577 138/256/578 47/257/579
f 47/257/580 93/259/581 173/258/582
f 150/260/583 173/258/584 93/259/585
f 93/259/586 59/261/587 150/260/588
f 164/262/589 149/263/590 56/264/591
f 56/264/592 80/265/593 164/262/594
f 144/266/595 164/262/596 80/265/597
f 80/265/598 50/267/599 144/266/600
f 176/268/601 144/266/602 50/267/603
f 50/267/604 91/269/605 176/268/606
f 156/270/607 176/268/608 91/269/609
f 91/269/610 76/271/611 156/270/612
f 437/272/613 205/273/614 11/274/615
f 407/275/616 253/276/617 170/277/618
f 186/278/619 13/238/620 394/239/621
f 394/239/622 391/279/623 186/278/624
f 439/280/625 12/281/626 184/282/627
f 404/283/628 156/270/629 76/271/630
f 404/283/631 76/271/632 85/284/633
f 404/283/634 85/284/635 424/285/636
f 410/286/637 425/287/638 303/288/639
f 272/289/640 273/290/641 432/291/642
f 432/291/643 431/292/644 272/289/645
f 273/290/646 275/293/647 434/294/648
f 434/294/649 432/291/650 273/290/651
f 276/295/652 272/289/653 431/292/654
f 431/292/655 435/296/656 276/295/657
f 274/297/658 276/295/659 435/296/660
f 435/296/661 433/298/662 274/297/663
f 188/299/664 187/300/665 116/301/666
f 116/301/667 117/302/668 188/299/669
f 187/300/670 192/303/671 121/304/672
f 121/304/673 116/301/674 187/300/675
f 191/305/676 188/299/677 117/302/678
f 117/302/679 120/306/680 191/305/681
f 190/307/682 191/305/683 120/306/684
f 120/306/685 119/308/686 190/307/687
f 282/309/688 296/310/689 297/311/690
f 297/311/691 283/312/692 282/309/693
f 297/311/694 299/313/695 285/314/696
f 285/314/697 283/312/698 297/311/699
f 300/315/700 296/310/701 282/309/702
f 282/309/703 286/316/704 300/315/705
f 298/317/706 300/315/707 286/316/708
f 286/316/709 284/318/710 298/317/711
f 16/319/712 15/320/713 265/321/714
f 265/321/715 266/322/716 16/319/717
f 15/320/718 20/323/719 270/324/720
f 270/324/721 265/321/722 15/320/723
f 19/325/724 16/319/725 266/322/726
f 266/322/727 269/326/728 19/325/729
f 18/327/730 19/325/731 269/326/732
f 269/326/733 268/328/734 18/327/735
f 426/329/736 6/330/737 7/331/738
f 7/331/739 427/332/740 426/329/741
f 7/331/742 9/333/743 429/334/744
f 429/334/745 427/332/746 7/331/747
f 10/335/748 6/330/749 426/329/750
f 426/329/751 430/336/752 10/335/753
f 8/337/754 10/335/755 430/336/756
f 430/336/757 428/338/758 8/337/759
f 312/339/760 311/340/761 416/341/762
f 416/341/763 417/342/764 312/339/765
f 311/340/766 316/343/767 421/344/768
f 421/344/769 416/341/770 311/340/771
f 315/345/772 312/339/773 417/342/774
f 417/342/775 420/346/776 315/345/777
f 314/347/778 315/345/779 420/346/780
f 420/346/781 419/348/782 314/347/783
f 277/349/784 411/350/785 412/351/786
f 412/351/787 278/352/788 277/349/789
f 412/351/790 414/353/791 280/354/792
f 280/354/793 278/352/794 412/351/795
f 415/355/796 411/350/797 277/349/798
f 277/349/799 281/356/800 415/355/801
f 413/357/802 415/355/803 281/356/804
f 281/356/805 279/358/806 413/357/807
f 110/359/808 109/360/809 304/361/810
f 304/361/811 305/362/812 110/359/813
f 109/360/814 114/363/815 309/364/816
f 309/364/817 304/361/818 109/360/819
f 113/365/820 110/359/821 305/362/822
f 305/362/823 308/366/824 113/365/825
f 112/367/826 113/365/827 308/366/828
f 308/366/829 307/368/830 112/367/831
f 440/369/832 318/370/833 319/371/834
f 319/371/835 441/372/836 440/369/837
f 319/371/838 321/373/839 443/374/840
f 443/374/841 441/372/842 319/371/843
f 322/375/844 318/370/845 440/369/846
f 440/369/847 444/376/848 322/375/849
f 320/377/850 322/375/851 444/376/852
f 444/376/853 442/378/854 320/377/855
f 195/379/856 194/380/857 287/381/858
f 195/379/859 287/381/860 288/382/861
f 195/379/862 288/382/863 196/383/864
f 194/380/865 200/384/866 292/385/867
f 292/385/868 287/381/869 194/380/870
f 199/386/871 196/383/872 288/382/873
f 288/382/874 291/387/875 199/386/876
f 198/388/877 199/386/878 291/387/879
f 291/387/880 290/389/881 198/388/882
f 4/136/883 2/63/884 325/390/885
f 325/390/886 361/391/887 4/136/888
f 26/137/889 4/136/890 361/391/891
f 361/391/892 200/384/893 26/137/894
f 24/64/895 26/137/896 200/384/897
f 200/384/898 194/380/899 24/64/900
f 22/65/901 24/64/902 194/380/903
f 194/380/904 195/379/905 22/65/906
f 23/66/907 22/65/908 195/379/909
f 195/379/910 196/383/911 23/66/912
f 27/143/913 23/66/914 196/383/915
f 196/383/916 199/386/917 27/143/918
f 25/150/919 27/143/920 199/386/921
f 199/386/922 198/388/923 25/150/924
f 3/151/925 25/150/926 198/388/927
f 198/388/928 332/392/929 3/151/930
f 5/144/931 3/151/932 332/392/933
f 332/392/934 354/393/935 5/144/936
f 1/67/937 5/144/938 354/393/939
f 354/393/940 328/394/941 1/67/942
f 2/63/943 1/67/944 328/394/945
f 328/394/946 325/390/947 2/63/948
f 435/296/949 431/292/950 33/395/951
f 33/395/952 61/396/953 435/296/954
f 433/298/955 435/296/956 61/396/957
f 61/396/958 37/397/959 433/298/960
f 274/297/961 433/298/962 37/397/963
f 37/397/964 119/308/965 274/297/966
f 276/295/967 274/297/968 119/308/969
f 119/308/970 120/306/971 276/295/972
f 272/289/973 276/295/974 120/306/975
f 120/306/976 117/302/977 272/289/978
f 273/290/979 272/289/980 117/302/981
f 117/302/982 116/301/983 273/290/984
f 275/293/985 273/290/986 116/301/987
f 116/301/988 121/304/989 275/293/990
f 434/294/991 275/293/992 121/304/993
f 121/304/994 68/398/995 434/294/996
f 432/291/997 434/294/998 68/398/999
f 68/398/1000 29/399/1001 432/291/1002
f 30/400/1003 33/395/1004 431/292/1005
f 30/400/1006 431/292/1007 432/291/1008
f 30/400/1009 432/291/1010 29/399/1011
f 282/309/1012 283/312/1013 187/300/1014
f 187/300/1015 188/299/1016 282/309/1017
f 286/316/1018 282/309/1019 188/299/1020
f 188/299/1021 191/305/1022 286/316/1023
f 284/318/1024 286/316/1025 191/305/1026
f 191/305/1027 190/307/1028 284/318/1029
f 298/317/1030 284/318/1031 190/307/1032
f 190/307/1033 268/328/1034 298/317/1035
f 300/315/1036 298/317/1037 268/328/1038
f 268/328/1039 269/326/1040 300/315/1041
f 296/310/1042 300/315/1043 269/326/1044
f 269/326/1045 266/322/1046 296/310/1047
f 297/311/1048 296/310/1049 266/322/1050
f 266/322/1051 265/321/1052 297/311/1053
f 299/313/1054 297/311/1055 265/321/1056
f 265/321/1057 270/324/1058 299/313/1059
f 285/314/1060 299/313/1061 270/324/1062
f 270/324/1063 192/303/1064 285/314/1065
f 283/312/1066 285/314/1067 192/303/1068
f 192/303/1069 187/300/1070 283/312/1071
f 426/329/1072 427/332/1073 15/320/1074
f 15/320/1075 16/319/1076 426/329/1077
f 430/336/1078 426/329/1079 16/319/1080
f 16/319/1081 19/325/1082 430/336/1083
f 428/338/1084 430/336/1085 19/325/1086
f 19/325/1087 18/327/1088 428/338/1089
f 8/337/1090 428/338/1091 18/327/1092
f 18/327/1093 419/348/1094 8/337/1095
f 10/335/1096 8/337/1097 419/348/1098
f 419/348/1099 420/346/1100 10/335/1101
f 6/330/1102 10/335/1103 420/346/1104
f 420/346/1105 417/342/1106 6/330/1107
f 7/331/1108 6/330/1109 417/342/1110
f 417/342/1111 416/341/1112 7/331/1113
f 9/333/1114 7/331/1115 416/341/1116
f 416/341/1117 421/344/1118 9/333/1119
f 429/334/1120 9/333/1121 421/344/1122
f 421/344/1123 20/323/1124 429/334/1125
f 427/332/1126 429/334/1127 20/323/1128
f 20/323/1129 15/320/1130 427/332/1131
f 277/349/1132 278/352/1133 311/340/1134
f 311/340/1135 312/339/1136 277/349/1137
f 281/356/1138 277/349/1139 312/339/1140
f 312/339/1141 315/345/1142 281/356/1143
f 279/358/1144 281/356/1145 315/345/1146
f 315/345/1147 314/347/1148 279/358/1149
f 413/357/1150 279/358/1151 314/347/1152
f 314/347/1153 307/368/1154 413/357/1155
f 415/355/1156 413/357/1157 307/368/1158
f 307/368/1159 308/366/1160 415/355/1161
f 411/350/1162 415/355/1163 308/366/1164
f 308/366/1165 305/362/1166 411/350/1167
f 412/351/1168 411/350/1169 305/362/1170
f 305/362/1171 304/361/1172 412/351/1173
f 414/353/1174 412/351/1175 304/361/1176
f 304/361/1177 309/364/1178 414/353/1179
f 280/354/1180 414/353/1181 309/364/1182
f 309/364/1183 316/343/1184 280/354/1185
f 278/352/1186 280/354/1187 316/343/1188
f 316/343/1189 311/340/1190 278/352/1191
f 440/369/1192 441/372/1193 109/360/1194
f 109/360/1195 110/359/1196 440/369/1197
f 444/376/1198 440/369/1199 110/359/1200
f 110/359/1201 113/365/1202 444/376/1203
f 442/378/1204 444/376/1205 113/365/1206
f 113/365/1207 112/367/1208 442/378/1209
f 320/377/1210 442/378/1211 112/367/1212
f 112/367/1213 290/389/1214 320/377/1215
f 322/375/1216 320/377/1217 290/389/1218
f 290/389/1219 291/387/1220 322/375/1221
f 318/370/1222 322/375/1223 291/387/1224
f 291/387/1225 288/382/1226 318/370/1227
f 319/371/1228 318/370/1229 288/382/1230
f 288/382/1231 287/381/1232 319/371/1233
f 321/373/1234 319/371/1235 287/381/1236
f 287/381/1237 292/385/1238 321/373/1239
f 443/374/1240 321/373/1241 292/385/1242
f 292/385/1243 114/363/1244 443/374/1245
f 441/372/1246 443/374/1247 114/363/1248
f 114/363/1249 109/360/1250 441/372/1251
f 257/200/1252 228/202/1253 216/172/1254
f 216/172/1255 236/401/1256 242/168/1257
f 242/168/1258 236/401/1259 250/166/1260
f 250/166/1261 251/402/1262 258/162/1263
f 258/162/1264 251/402/1265 255/157/1266
f 257/200/1267 213/403/1268 247/177/1269
f 247/177/1270 213/403/1271 219/178/1272
f 221/183/1273 230/404/1274 234/181/1275
f 234/181/1276 230/404/1277 261/203/1278
f 261/203/1279 225/405/1280 245/189/1281
f 245/189/1282 225/405/1283 243/187/1284
f 243/187/1285 211/406/1286 263/192/1287
f 263/192/1288 211/406/1289 207/194/1290
f 184/282/1291 99/407/1292 294/408/1293
f 294/408/1294 439/280/1295 184/282/1296
f 437/272/1297 125/409/1298 205/273/1299
f 204/97/1300 123/410/1301 182/91/1302
f 182/91/1303 140/411/1304 203/86/1305
f 203/86/1306 140/411/1307 177/75/1308
f 177/75/1309 133/412/1310 210/76/1311
f 210/76/1312 133/412/1313 136/145/1314
f 136/145/1315 163/413/1316 240/146/1317
f 239/68/1318 162/414/1319 134/56/1320
f 134/56/1321 128/415/1322 227/57/1323
f 227/57/1324 128/415/1325 142/132/1326
f 142/132/1327 158/416/1328 235/51/1329
f 235/51/1330 158/416/1331 323/45/1332
f 323/45/1333 169/417/1334 252/40/1335
f 252/40/1336 169/417/1337 171/38/1338
f 170/277/1339 403/418/1340 407/275/1341
f 410/286/1342 405/419/1343 425/287/1344
f 157/161/1345 172/160/1346 168/163/1347
f 168/163/1348 324/420/1349 145/167/1350
f 145/167/1351 324/420/1352 159/169/1353
f 159/169/1354 143/421/1355 151/201/1356
f 151/201/1357 143/421/1358 129/173/1359
f 129/173/1360 135/422/1361 139/174/1362
f 139/174/1363 135/422/1364 161/179/1365
f 160/205/1366 137/423/1367 155/206/1368
f 155/206/1369 137/423/1370 132/185/1371
f 132/185/1372 178/424/1373 153/186/1374
f 153/186/1375 178/424/1376 141/190/1377
f 141/190/1378 183/425/1379 131/193/1380
f 131/193/1381 183/425/1382 124/196/1383
f 34/106/1384 329/2/1385 357/426/1386
f 34/106/1387 357/426/1388 381/427/1389
f 34/106/1390 381/427/1391 372/428/1392
f 34/106/1393 372/428/1394 346/429/1395
f 34/106/1396 346/429/1397 331/107/1398
f 329/2/1399 34/106/1400 108/3/1401
f 90/430/1402 48/431/1403 69/432/1404
f 201/433/1405 362/125/1406 96/131/1407
f 293/434/1408 201/433/1409 96/131/1410
f 115/435/1411 293/434/1412 96/131/1413
f 310/436/1414 115/435/1415 96/131/1416
f 317/437/1417 310/436/1418 96/131/1419
f 422/438/1420 317/437/1421 96/131/1422
f 21/439/1423 422/438/1424 96/131/1425
f 271/440/1426 21/439/1427 96/131/1428
f 193/441/1429 271/440/1430 96/131/1431
f 122/442/1432 193/441/1433 96/131/1434
f 96/131/1435 63/443/1436 67/444/1437
f 122/442/1438 96/131/1439 67/444/1440
f 69/432/1441 122/442/1442 67/444/1443
f 90/430/1444 69/432/1445 67/444/1446
