# Page mesh oriented along +X, long side on Y, normal +Z
v 0.0000 -1.0000 0.0000
vt 0.0000 0.0000
v 0.0750 -1.0000 0.0000
vt 0.0250 0.0000
v 0.1500 -1.0000 0.0000
vt 0.0500 0.0000
v 0.2250 -1.0000 0.0000
vt 0.0750 0.0000
v 0.3000 -1.0000 0.0000
vt 0.1000 0.0000
v 0.3750 -1.0000 0.0000
vt 0.1250 0.0000
v 0.4500 -1.0000 0.0000
vt 0.1500 0.0000
v 0.5250 -1.0000 0.0000
vt 0.1750 0.0000
v 0.6000 -1.0000 0.0000
vt 0.2000 0.0000
v 0.6750 -1.0000 0.0000
vt 0.2250 0.0000
v 0.7500 -1.0000 0.0000
vt 0.2500 0.0000
v 0.8250 -1.0000 0.0000
vt 0.2750 0.0000
v 0.9000 -1.0000 0.0000
vt 0.3000 0.0000
v 0.9750 -1.0000 0.0000
vt 0.3250 0.0000
v 1.0500 -1.0000 0.0000
vt 0.3500 0.0000
v 1.1250 -1.0000 0.0000
vt 0.3750 0.0000
v 1.2000 -1.0000 0.0000
vt 0.4000 0.0000
v 1.2750 -1.0000 0.0000
vt 0.4250 0.0000
v 1.3500 -1.0000 0.0000
vt 0.4500 0.0000
v 1.4250 -1.0000 0.0000
vt 0.4750 0.0000
v 1.5000 -1.0000 0.0000
vt 0.5000 0.0000
v 1.5750 -1.0000 0.0000
vt 0.5250 0.0000
v 1.6500 -1.0000 0.0000
vt 0.5500 0.0000
v 1.7250 -1.0000 0.0000
vt 0.5750 0.0000
v 1.8000 -1.0000 0.0000
vt 0.6000 0.0000
v 1.8750 -1.0000 0.0000
vt 0.6250 0.0000
v 1.9500 -1.0000 0.0000
vt 0.6500 0.0000
v 2.0250 -1.0000 0.0000
vt 0.6750 0.0000
v 2.1000 -1.0000 0.0000
vt 0.7000 0.0000
v 2.1750 -1.0000 0.0000
vt 0.7250 0.0000
v 2.2500 -1.0000 0.0000
vt 0.7500 0.0000
v 2.3250 -1.0000 0.0000
vt 0.7750 0.0000
v 2.4000 -1.0000 0.0000
vt 0.8000 0.0000
v 2.4750 -1.0000 0.0000
vt 0.8250 0.0000
v 2.5500 -1.0000 0.0000
vt 0.8500 0.0000
v 2.6250 -1.0000 0.0000
vt 0.8750 0.0000
v 2.7000 -1.0000 0.0000
vt 0.9000 0.0000
v 2.7750 -1.0000 0.0000
vt 0.9250 0.0000
v 2.8500 -1.0000 0.0000
vt 0.9500 0.0000
v 2.9250 -1.0000 0.0000
vt 0.9750 0.0000
v 3.0000 -1.0000 0.0000
vt 1.0000 0.0000
v 0.0000 -0.9333 0.0000
vt 0.0000 0.0333
v 0.0750 -0.9333 0.0000
vt 0.0250 0.0333
v 0.1500 -0.9333 0.0000
vt 0.0500 0.0333
v 0.2250 -0.9333 0.0000
vt 0.0750 0.0333
v 0.3000 -0.9333 0.0000
vt 0.1000 0.0333
v 0.3750 -0.9333 0.0000
vt 0.1250 0.0333
v 0.4500 -0.9333 0.0000
vt 0.1500 0.0333
v 0.5250 -0.9333 0.0000
vt 0.1750 0.0333
v 0.6000 -0.9333 0.0000
vt 0.2000 0.0333
v 0.6750 -0.9333 0.0000
vt 0.2250 0.0333
v 0.7500 -0.9333 0.0000
vt 0.2500 0.0333
v 0.8250 -0.9333 0.0000
vt 0.2750 0.0333
v 0.9000 -0.9333 0.0000
vt 0.3000 0.0333
v 0.9750 -0.9333 0.0000
vt 0.3250 0.0333
v 1.0500 -0.9333 0.0000
vt 0.3500 0.0333
v 1.1250 -0.9333 0.0000
vt 0.3750 0.0333
v 1.2000 -0.9333 0.0000
vt 0.4000 0.0333
v 1.2750 -0.9333 0.0000
vt 0.4250 0.0333
v 1.3500 -0.9333 0.0000
vt 0.4500 0.0333
v 1.4250 -0.9333 0.0000
vt 0.4750 0.0333
v 1.5000 -0.9333 0.0000
vt 0.5000 0.0333
v 1.5750 -0.9333 0.0000
vt 0.5250 0.0333
v 1.6500 -0.9333 0.0000
vt 0.5500 0.0333
v 1.7250 -0.9333 0.0000
vt 0.5750 0.0333
v 1.8000 -0.9333 0.0000
vt 0.6000 0.0333
v 1.8750 -0.9333 0.0000
vt 0.6250 0.0333
v 1.9500 -0.9333 0.0000
vt 0.6500 0.0333
v 2.0250 -0.9333 0.0000
vt 0.6750 0.0333
v 2.1000 -0.9333 0.0000
vt 0.7000 0.0333
v 2.1750 -0.9333 0.0000
vt 0.7250 0.0333
v 2.2500 -0.9333 0.0000
vt 0.7500 0.0333
v 2.3250 -0.9333 0.0000
vt 0.7750 0.0333
v 2.4000 -0.9333 0.0000
vt 0.8000 0.0333
v 2.4750 -0.9333 0.0000
vt 0.8250 0.0333
v 2.5500 -0.9333 0.0000
vt 0.8500 0.0333
v 2.6250 -0.9333 0.0000
vt 0.8750 0.0333
v 2.7000 -0.9333 0.0000
vt 0.9000 0.0333
v 2.7750 -0.9333 0.0000
vt 0.9250 0.0333
v 2.8500 -0.9333 0.0000
vt 0.9500 0.0333
v 2.9250 -0.9333 0.0000
vt 0.9750 0.0333
v 3.0000 -0.9333 0.0000
vt 1.0000 0.0333
v 0.0000 -0.8667 0.0000
vt 0.0000 0.0667
v 0.0750 -0.8667 0.0000
vt 0.0250 0.0667
v 0.1500 -0.8667 0.0000
vt 0.0500 0.0667
v 0.2250 -0.8667 0.0000
vt 0.0750 0.0667
v 0.3000 -0.8667 0.0000
vt 0.1000 0.0667
v 0.3750 -0.8667 0.0000
vt 0.1250 0.0667
v 0.4500 -0.8667 0.0000
vt 0.1500 0.0667
v 0.5250 -0.8667 0.0000
vt 0.1750 0.0667
v 0.6000 -0.8667 0.0000
vt 0.2000 0.0667
v 0.6750 -0.8667 0.0000
vt 0.2250 0.0667
v 0.7500 -0.8667 0.0000
vt 0.2500 0.0667
v 0.8250 -0.8667 0.0000
vt 0.2750 0.0667
v 0.9000 -0.8667 0.0000
vt 0.3000 0.0667
v 0.9750 -0.8667 0.0000
vt 0.3250 0.0667
v 1.0500 -0.8667 0.0000
vt 0.3500 0.0667
v 1.1250 -0.8667 0.0000
vt 0.3750 0.0667
v 1.2000 -0.8667 0.0000
vt 0.4000 0.0667
v 1.2750 -0.8667 0.0000
vt 0.4250 0.0667
v 1.3500 -0.8667 0.0000
vt 0.4500 0.0667
v 1.4250 -0.8667 0.0000
vt 0.4750 0.0667
v 1.5000 -0.8667 0.0000
vt 0.5000 0.0667
v 1.5750 -0.8667 0.0000
vt 0.5250 0.0667
v 1.6500 -0.8667 0.0000
vt 0.5500 0.0667
v 1.7250 -0.8667 0.0000
vt 0.5750 0.0667
v 1.8000 -0.8667 0.0000
vt 0.6000 0.0667
v 1.8750 -0.8667 0.0000
vt 0.6250 0.0667
v 1.9500 -0.8667 0.0000
vt 0.6500 0.0667
v 2.0250 -0.8667 0.0000
vt 0.6750 0.0667
v 2.1000 -0.8667 0.0000
vt 0.7000 0.0667
v 2.1750 -0.8667 0.0000
vt 0.7250 0.0667
v 2.2500 -0.8667 0.0000
vt 0.7500 0.0667
v 2.3250 -0.8667 0.0000
vt 0.7750 0.0667
v 2.4000 -0.8667 0.0000
vt 0.8000 0.0667
v 2.4750 -0.8667 0.0000
vt 0.8250 0.0667
v 2.5500 -0.8667 0.0000
vt 0.8500 0.0667
v 2.6250 -0.8667 0.0000
vt 0.8750 0.0667
v 2.7000 -0.8667 0.0000
vt 0.9000 0.0667
v 2.7750 -0.8667 0.0000
vt 0.9250 0.0667
v 2.8500 -0.8667 0.0000
vt 0.9500 0.0667
v 2.9250 -0.8667 0.0000
vt 0.9750 0.0667
v 3.0000 -0.8667 0.0000
vt 1.0000 0.0667
v 0.0000 -0.8000 0.0000
vt 0.0000 0.1000
v 0.0750 -0.8000 0.0000
vt 0.0250 0.1000
v 0.1500 -0.8000 0.0000
vt 0.0500 0.1000
v 0.2250 -0.8000 0.0000
vt 0.0750 0.1000
v 0.3000 -0.8000 0.0000
vt 0.1000 0.1000
v 0.3750 -0.8000 0.0000
vt 0.1250 0.1000
v 0.4500 -0.8000 0.0000
vt 0.1500 0.1000
v 0.5250 -0.8000 0.0000
vt 0.1750 0.1000
v 0.6000 -0.8000 0.0000
vt 0.2000 0.1000
v 0.6750 -0.8000 0.0000
vt 0.2250 0.1000
v 0.7500 -0.8000 0.0000
vt 0.2500 0.1000
v 0.8250 -0.8000 0.0000
vt 0.2750 0.1000
v 0.9000 -0.8000 0.0000
vt 0.3000 0.1000
v 0.9750 -0.8000 0.0000
vt 0.3250 0.1000
v 1.0500 -0.8000 0.0000
vt 0.3500 0.1000
v 1.1250 -0.8000 0.0000
vt 0.3750 0.1000
v 1.2000 -0.8000 0.0000
vt 0.4000 0.1000
v 1.2750 -0.8000 0.0000
vt 0.4250 0.1000
v 1.3500 -0.8000 0.0000
vt 0.4500 0.1000
v 1.4250 -0.8000 0.0000
vt 0.4750 0.1000
v 1.5000 -0.8000 0.0000
vt 0.5000 0.1000
v 1.5750 -0.8000 0.0000
vt 0.5250 0.1000
v 1.6500 -0.8000 0.0000
vt 0.5500 0.1000
v 1.7250 -0.8000 0.0000
vt 0.5750 0.1000
v 1.8000 -0.8000 0.0000
vt 0.6000 0.1000
v 1.8750 -0.8000 0.0000
vt 0.6250 0.1000
v 1.9500 -0.8000 0.0000
vt 0.6500 0.1000
v 2.0250 -0.8000 0.0000
vt 0.6750 0.1000
v 2.1000 -0.8000 0.0000
vt 0.7000 0.1000
v 2.1750 -0.8000 0.0000
vt 0.7250 0.1000
v 2.2500 -0.8000 0.0000
vt 0.7500 0.1000
v 2.3250 -0.8000 0.0000
vt 0.7750 0.1000
v 2.4000 -0.8000 0.0000
vt 0.8000 0.1000
v 2.4750 -0.8000 0.0000
vt 0.8250 0.1000
v 2.5500 -0.8000 0.0000
vt 0.8500 0.1000
v 2.6250 -0.8000 0.0000
vt 0.8750 0.1000
v 2.7000 -0.8000 0.0000
vt 0.9000 0.1000
v 2.7750 -0.8000 0.0000
vt 0.9250 0.1000
v 2.8500 -0.8000 0.0000
vt 0.9500 0.1000
v 2.9250 -0.8000 0.0000
vt 0.9750 0.1000
v 3.0000 -0.8000 0.0000
vt 1.0000 0.1000
v 0.0000 -0.7333 0.0000
vt 0.0000 0.1333
v 0.0750 -0.7333 0.0000
vt 0.0250 0.1333
v 0.1500 -0.7333 0.0000
vt 0.0500 0.1333
v 0.2250 -0.7333 0.0000
vt 0.0750 0.1333
v 0.3000 -0.7333 0.0000
vt 0.1000 0.1333
v 0.3750 -0.7333 0.0000
vt 0.1250 0.1333
v 0.4500 -0.7333 0.0000
vt 0.1500 0.1333
v 0.5250 -0.7333 0.0000
vt 0.1750 0.1333
v 0.6000 -0.7333 0.0000
vt 0.2000 0.1333
v 0.6750 -0.7333 0.0000
vt 0.2250 0.1333
v 0.7500 -0.7333 0.0000
vt 0.2500 0.1333
v 0.8250 -0.7333 0.0000
vt 0.2750 0.1333
v 0.9000 -0.7333 0.0000
vt 0.3000 0.1333
v 0.9750 -0.7333 0.0000
vt 0.3250 0.1333
v 1.0500 -0.7333 0.0000
vt 0.3500 0.1333
v 1.1250 -0.7333 0.0000
vt 0.3750 0.1333
v 1.2000 -0.7333 0.0000
vt 0.4000 0.1333
v 1.2750 -0.7333 0.0000
vt 0.4250 0.1333
v 1.3500 -0.7333 0.0000
vt 0.4500 0.1333
v 1.4250 -0.7333 0.0000
vt 0.4750 0.1333
v 1.5000 -0.7333 0.0000
vt 0.5000 0.1333
v 1.5750 -0.7333 0.0000
vt 0.5250 0.1333
v 1.6500 -0.7333 0.0000
vt 0.5500 0.1333
v 1.7250 -0.7333 0.0000
vt 0.5750 0.1333
v 1.8000 -0.7333 0.0000
vt 0.6000 0.1333
v 1.8750 -0.7333 0.0000
vt 0.6250 0.1333
v 1.9500 -0.7333 0.0000
vt 0.6500 0.1333
v 2.0250 -0.7333 0.0000
vt 0.6750 0.1333
v 2.1000 -0.7333 0.0000
vt 0.7000 0.1333
v 2.1750 -0.7333 0.0000
vt 0.7250 0.1333
v 2.2500 -0.7333 0.0000
vt 0.7500 0.1333
v 2.3250 -0.7333 0.0000
vt 0.7750 0.1333
v 2.4000 -0.7333 0.0000
vt 0.8000 0.1333
v 2.4750 -0.7333 0.0000
vt 0.8250 0.1333
v 2.5500 -0.7333 0.0000
vt 0.8500 0.1333
v 2.6250 -0.7333 0.0000
vt 0.8750 0.1333
v 2.7000 -0.7333 0.0000
vt 0.9000 0.1333
v 2.7750 -0.7333 0.0000
vt 0.9250 0.1333
v 2.8500 -0.7333 0.0000
vt 0.9500 0.1333
v 2.9250 -0.7333 0.0000
vt 0.9750 0.1333
v 3.0000 -0.7333 0.0000
vt 1.0000 0.1333
v 0.0000 -0.6667 0.0000
vt 0.0000 0.1667
v 0.0750 -0.6667 0.0000
vt 0.0250 0.1667
v 0.1500 -0.6667 0.0000
vt 0.0500 0.1667
v 0.2250 -0.6667 0.0000
vt 0.0750 0.1667
v 0.3000 -0.6667 0.0000
vt 0.1000 0.1667
v 0.3750 -0.6667 0.0000
vt 0.1250 0.1667
v 0.4500 -0.6667 0.0000
vt 0.1500 0.1667
v 0.5250 -0.6667 0.0000
vt 0.1750 0.1667
v 0.6000 -0.6667 0.0000
vt 0.2000 0.1667
v 0.6750 -0.6667 0.0000
vt 0.2250 0.1667
v 0.7500 -0.6667 0.0000
vt 0.2500 0.1667
v 0.8250 -0.6667 0.0000
vt 0.2750 0.1667
v 0.9000 -0.6667 0.0000
vt 0.3000 0.1667
v 0.9750 -0.6667 0.0000
vt 0.3250 0.1667
v 1.0500 -0.6667 0.0000
vt 0.3500 0.1667
v 1.1250 -0.6667 0.0000
vt 0.3750 0.1667
v 1.2000 -0.6667 0.0000
vt 0.4000 0.1667
v 1.2750 -0.6667 0.0000
vt 0.4250 0.1667
v 1.3500 -0.6667 0.0000
vt 0.4500 0.1667
v 1.4250 -0.6667 0.0000
vt 0.4750 0.1667
v 1.5000 -0.6667 0.0000
vt 0.5000 0.1667
v 1.5750 -0.6667 0.0000
vt 0.5250 0.1667
v 1.6500 -0.6667 0.0000
vt 0.5500 0.1667
v 1.7250 -0.6667 0.0000
vt 0.5750 0.1667
v 1.8000 -0.6667 0.0000
vt 0.6000 0.1667
v 1.8750 -0.6667 0.0000
vt 0.6250 0.1667
v 1.9500 -0.6667 0.0000
vt 0.6500 0.1667
v 2.0250 -0.6667 0.0000
vt 0.6750 0.1667
v 2.1000 -0.6667 0.0000
vt 0.7000 0.1667
v 2.1750 -0.6667 0.0000
vt 0.7250 0.1667
v 2.2500 -0.6667 0.0000
vt 0.7500 0.1667
v 2.3250 -0.6667 0.0000
vt 0.7750 0.1667
v 2.4000 -0.6667 0.0000
vt 0.8000 0.1667
v 2.4750 -0.6667 0.0000
vt 0.8250 0.1667
v 2.5500 -0.6667 0.0000
vt 0.8500 0.1667
v 2.6250 -0.6667 0.0000
vt 0.8750 0.1667
v 2.7000 -0.6667 0.0000
vt 0.9000 0.1667
v 2.7750 -0.6667 0.0000
vt 0.9250 0.1667
v 2.8500 -0.6667 0.0000
vt 0.9500 0.1667
v 2.9250 -0.6667 0.0000
vt 0.9750 0.1667
v 3.0000 -0.6667 0.0000
vt 1.0000 0.1667
v 0.0000 -0.6000 0.0000
vt 0.0000 0.2000
v 0.0750 -0.6000 0.0000
vt 0.0250 0.2000
v 0.1500 -0.6000 0.0000
vt 0.0500 0.2000
v 0.2250 -0.6000 0.0000
vt 0.0750 0.2000
v 0.3000 -0.6000 0.0000
vt 0.1000 0.2000
v 0.3750 -0.6000 0.0000
vt 0.1250 0.2000
v 0.4500 -0.6000 0.0000
vt 0.1500 0.2000
v 0.5250 -0.6000 0.0000
vt 0.1750 0.2000
v 0.6000 -0.6000 0.0000
vt 0.2000 0.2000
v 0.6750 -0.6000 0.0000
vt 0.2250 0.2000
v 0.7500 -0.6000 0.0000
vt 0.2500 0.2000
v 0.8250 -0.6000 0.0000
vt 0.2750 0.2000
v 0.9000 -0.6000 0.0000
vt 0.3000 0.2000
v 0.9750 -0.6000 0.0000
vt 0.3250 0.2000
v 1.0500 -0.6000 0.0000
vt 0.3500 0.2000
v 1.1250 -0.6000 0.0000
vt 0.3750 0.2000
v 1.2000 -0.6000 0.0000
vt 0.4000 0.2000
v 1.2750 -0.6000 0.0000
vt 0.4250 0.2000
v 1.3500 -0.6000 0.0000
vt 0.4500 0.2000
v 1.4250 -0.6000 0.0000
vt 0.4750 0.2000
v 1.5000 -0.6000 0.0000
vt 0.5000 0.2000
v 1.5750 -0.6000 0.0000
vt 0.5250 0.2000
v 1.6500 -0.6000 0.0000
vt 0.5500 0.2000
v 1.7250 -0.6000 0.0000
vt 0.5750 0.2000
v 1.8000 -0.6000 0.0000
vt 0.6000 0.2000
v 1.8750 -0.6000 0.0000
vt 0.6250 0.2000
v 1.9500 -0.6000 0.0000
vt 0.6500 0.2000
v 2.0250 -0.6000 0.0000
vt 0.6750 0.2000
v 2.1000 -0.6000 0.0000
vt 0.7000 0.2000
v 2.1750 -0.6000 0.0000
vt 0.7250 0.2000
v 2.2500 -0.6000 0.0000
vt 0.7500 0.2000
v 2.3250 -0.6000 0.0000
vt 0.7750 0.2000
v 2.4000 -0.6000 0.0000
vt 0.8000 0.2000
v 2.4750 -0.6000 0.0000
vt 0.8250 0.2000
v 2.5500 -0.6000 0.0000
vt 0.8500 0.2000
v 2.6250 -0.6000 0.0000
vt 0.8750 0.2000
v 2.7000 -0.6000 0.0000
vt 0.9000 0.2000
v 2.7750 -0.6000 0.0000
vt 0.9250 0.2000
v 2.8500 -0.6000 0.0000
vt 0.9500 0.2000
v 2.9250 -0.6000 0.0000
vt 0.9750 0.2000
v 3.0000 -0.6000 0.0000
vt 1.0000 0.2000
v 0.0000 -0.5333 0.0000
vt 0.0000 0.2333
v 0.0750 -0.5333 0.0000
vt 0.0250 0.2333
v 0.1500 -0.5333 0.0000
vt 0.0500 0.2333
v 0.2250 -0.5333 0.0000
vt 0.0750 0.2333
v 0.3000 -0.5333 0.0000
vt 0.1000 0.2333
v 0.3750 -0.5333 0.0000
vt 0.1250 0.2333
v 0.4500 -0.5333 0.0000
vt 0.1500 0.2333
v 0.5250 -0.5333 0.0000
vt 0.1750 0.2333
v 0.6000 -0.5333 0.0000
vt 0.2000 0.2333
v 0.6750 -0.5333 0.0000
vt 0.2250 0.2333
v 0.7500 -0.5333 0.0000
vt 0.2500 0.2333
v 0.8250 -0.5333 0.0000
vt 0.2750 0.2333
v 0.9000 -0.5333 0.0000
vt 0.3000 0.2333
v 0.9750 -0.5333 0.0000
vt 0.3250 0.2333
v 1.0500 -0.5333 0.0000
vt 0.3500 0.2333
v 1.1250 -0.5333 0.0000
vt 0.3750 0.2333
v 1.2000 -0.5333 0.0000
vt 0.4000 0.2333
v 1.2750 -0.5333 0.0000
vt 0.4250 0.2333
v 1.3500 -0.5333 0.0000
vt 0.4500 0.2333
v 1.4250 -0.5333 0.0000
vt 0.4750 0.2333
v 1.5000 -0.5333 0.0000
vt 0.5000 0.2333
v 1.5750 -0.5333 0.0000
vt 0.5250 0.2333
v 1.6500 -0.5333 0.0000
vt 0.5500 0.2333
v 1.7250 -0.5333 0.0000
vt 0.5750 0.2333
v 1.8000 -0.5333 0.0000
vt 0.6000 0.2333
v 1.8750 -0.5333 0.0000
vt 0.6250 0.2333
v 1.9500 -0.5333 0.0000
vt 0.6500 0.2333
v 2.0250 -0.5333 0.0000
vt 0.6750 0.2333
v 2.1000 -0.5333 0.0000
vt 0.7000 0.2333
v 2.1750 -0.5333 0.0000
vt 0.7250 0.2333
v 2.2500 -0.5333 0.0000
vt 0.7500 0.2333
v 2.3250 -0.5333 0.0000
vt 0.7750 0.2333
v 2.4000 -0.5333 0.0000
vt 0.8000 0.2333
v 2.4750 -0.5333 0.0000
vt 0.8250 0.2333
v 2.5500 -0.5333 0.0000
vt 0.8500 0.2333
v 2.6250 -0.5333 0.0000
vt 0.8750 0.2333
v 2.7000 -0.5333 0.0000
vt 0.9000 0.2333
v 2.7750 -0.5333 0.0000
vt 0.9250 0.2333
v 2.8500 -0.5333 0.0000
vt 0.9500 0.2333
v 2.9250 -0.5333 0.0000
vt 0.9750 0.2333
v 3.0000 -0.5333 0.0000
vt 1.0000 0.2333
v 0.0000 -0.4667 0.0000
vt 0.0000 0.2667
v 0.0750 -0.4667 0.0000
vt 0.0250 0.2667
v 0.1500 -0.4667 0.0000
vt 0.0500 0.2667
v 0.2250 -0.4667 0.0000
vt 0.0750 0.2667
v 0.3000 -0.4667 0.0000
vt 0.1000 0.2667
v 0.3750 -0.4667 0.0000
vt 0.1250 0.2667
v 0.4500 -0.4667 0.0000
vt 0.1500 0.2667
v 0.5250 -0.4667 0.0000
vt 0.1750 0.2667
v 0.6000 -0.4667 0.0000
vt 0.2000 0.2667
v 0.6750 -0.4667 0.0000
vt 0.2250 0.2667
v 0.7500 -0.4667 0.0000
vt 0.2500 0.2667
v 0.8250 -0.4667 0.0000
vt 0.2750 0.2667
v 0.9000 -0.4667 0.0000
vt 0.3000 0.2667
v 0.9750 -0.4667 0.0000
vt 0.3250 0.2667
v 1.0500 -0.4667 0.0000
vt 0.3500 0.2667
v 1.1250 -0.4667 0.0000
vt 0.3750 0.2667
v 1.2000 -0.4667 0.0000
vt 0.4000 0.2667
v 1.2750 -0.4667 0.0000
vt 0.4250 0.2667
v 1.3500 -0.4667 0.0000
vt 0.4500 0.2667
v 1.4250 -0.4667 0.0000
vt 0.4750 0.2667
v 1.5000 -0.4667 0.0000
vt 0.5000 0.2667
v 1.5750 -0.4667 0.0000
vt 0.5250 0.2667
v 1.6500 -0.4667 0.0000
vt 0.5500 0.2667
v 1.7250 -0.4667 0.0000
vt 0.5750 0.2667
v 1.8000 -0.4667 0.0000
vt 0.6000 0.2667
v 1.8750 -0.4667 0.0000
vt 0.6250 0.2667
v 1.9500 -0.4667 0.0000
vt 0.6500 0.2667
v 2.0250 -0.4667 0.0000
vt 0.6750 0.2667
v 2.1000 -0.4667 0.0000
vt 0.7000 0.2667
v 2.1750 -0.4667 0.0000
vt 0.7250 0.2667
v 2.2500 -0.4667 0.0000
vt 0.7500 0.2667
v 2.3250 -0.4667 0.0000
vt 0.7750 0.2667
v 2.4000 -0.4667 0.0000
vt 0.8000 0.2667
v 2.4750 -0.4667 0.0000
vt 0.8250 0.2667
v 2.5500 -0.4667 0.0000
vt 0.8500 0.2667
v 2.6250 -0.4667 0.0000
vt 0.8750 0.2667
v 2.7000 -0.4667 0.0000
vt 0.9000 0.2667
v 2.7750 -0.4667 0.0000
vt 0.9250 0.2667
v 2.8500 -0.4667 0.0000
vt 0.9500 0.2667
v 2.9250 -0.4667 0.0000
vt 0.9750 0.2667
v 3.0000 -0.4667 0.0000
vt 1.0000 0.2667
v 0.0000 -0.4000 0.0000
vt 0.0000 0.3000
v 0.0750 -0.4000 0.0000
vt 0.0250 0.3000
v 0.1500 -0.4000 0.0000
vt 0.0500 0.3000
v 0.2250 -0.4000 0.0000
vt 0.0750 0.3000
v 0.3000 -0.4000 0.0000
vt 0.1000 0.3000
v 0.3750 -0.4000 0.0000
vt 0.1250 0.3000
v 0.4500 -0.4000 0.0000
vt 0.1500 0.3000
v 0.5250 -0.4000 0.0000
vt 0.1750 0.3000
v 0.6000 -0.4000 0.0000
vt 0.2000 0.3000
v 0.6750 -0.4000 0.0000
vt 0.2250 0.3000
v 0.7500 -0.4000 0.0000
vt 0.2500 0.3000
v 0.8250 -0.4000 0.0000
vt 0.2750 0.3000
v 0.9000 -0.4000 0.0000
vt 0.3000 0.3000
v 0.9750 -0.4000 0.0000
vt 0.3250 0.3000
v 1.0500 -0.4000 0.0000
vt 0.3500 0.3000
v 1.1250 -0.4000 0.0000
vt 0.3750 0.3000
v 1.2000 -0.4000 0.0000
vt 0.4000 0.3000
v 1.2750 -0.4000 0.0000
vt 0.4250 0.3000
v 1.3500 -0.4000 0.0000
vt 0.4500 0.3000
v 1.4250 -0.4000 0.0000
vt 0.4750 0.3000
v 1.5000 -0.4000 0.0000
vt 0.5000 0.3000
v 1.5750 -0.4000 0.0000
vt 0.5250 0.3000
v 1.6500 -0.4000 0.0000
vt 0.5500 0.3000
v 1.7250 -0.4000 0.0000
vt 0.5750 0.3000
v 1.8000 -0.4000 0.0000
vt 0.6000 0.3000
v 1.8750 -0.4000 0.0000
vt 0.6250 0.3000
v 1.9500 -0.4000 0.0000
vt 0.6500 0.3000
v 2.0250 -0.4000 0.0000
vt 0.6750 0.3000
v 2.1000 -0.4000 0.0000
vt 0.7000 0.3000
v 2.1750 -0.4000 0.0000
vt 0.7250 0.3000
v 2.2500 -0.4000 0.0000
vt 0.7500 0.3000
v 2.3250 -0.4000 0.0000
vt 0.7750 0.3000
v 2.4000 -0.4000 0.0000
vt 0.8000 0.3000
v 2.4750 -0.4000 0.0000
vt 0.8250 0.3000
v 2.5500 -0.4000 0.0000
vt 0.8500 0.3000
v 2.6250 -0.4000 0.0000
vt 0.8750 0.3000
v 2.7000 -0.4000 0.0000
vt 0.9000 0.3000
v 2.7750 -0.4000 0.0000
vt 0.9250 0.3000
v 2.8500 -0.4000 0.0000
vt 0.9500 0.3000
v 2.9250 -0.4000 0.0000
vt 0.9750 0.3000
v 3.0000 -0.4000 0.0000
vt 1.0000 0.3000
v 0.0000 -0.3333 0.0000
vt 0.0000 0.3333
v 0.0750 -0.3333 0.0000
vt 0.0250 0.3333
v 0.1500 -0.3333 0.0000
vt 0.0500 0.3333
v 0.2250 -0.3333 0.0000
vt 0.0750 0.3333
v 0.3000 -0.3333 0.0000
vt 0.1000 0.3333
v 0.3750 -0.3333 0.0000
vt 0.1250 0.3333
v 0.4500 -0.3333 0.0000
vt 0.1500 0.3333
v 0.5250 -0.3333 0.0000
vt 0.1750 0.3333
v 0.6000 -0.3333 0.0000
vt 0.2000 0.3333
v 0.6750 -0.3333 0.0000
vt 0.2250 0.3333
v 0.7500 -0.3333 0.0000
vt 0.2500 0.3333
v 0.8250 -0.3333 0.0000
vt 0.2750 0.3333
v 0.9000 -0.3333 0.0000
vt 0.3000 0.3333
v 0.9750 -0.3333 0.0000
vt 0.3250 0.3333
v 1.0500 -0.3333 0.0000
vt 0.3500 0.3333
v 1.1250 -0.3333 0.0000
vt 0.3750 0.3333
v 1.2000 -0.3333 0.0000
vt 0.4000 0.3333
v 1.2750 -0.3333 0.0000
vt 0.4250 0.3333
v 1.3500 -0.3333 0.0000
vt 0.4500 0.3333
v 1.4250 -0.3333 0.0000
vt 0.4750 0.3333
v 1.5000 -0.3333 0.0000
vt 0.5000 0.3333
v 1.5750 -0.3333 0.0000
vt 0.5250 0.3333
v 1.6500 -0.3333 0.0000
vt 0.5500 0.3333
v 1.7250 -0.3333 0.0000
vt 0.5750 0.3333
v 1.8000 -0.3333 0.0000
vt 0.6000 0.3333
v 1.8750 -0.3333 0.0000
vt 0.6250 0.3333
v 1.9500 -0.3333 0.0000
vt 0.6500 0.3333
v 2.0250 -0.3333 0.0000
vt 0.6750 0.3333
v 2.1000 -0.3333 0.0000
vt 0.7000 0.3333
v 2.1750 -0.3333 0.0000
vt 0.7250 0.3333
v 2.2500 -0.3333 0.0000
vt 0.7500 0.3333
v 2.3250 -0.3333 0.0000
vt 0.7750 0.3333
v 2.4000 -0.3333 0.0000
vt 0.8000 0.3333
v 2.4750 -0.3333 0.0000
vt 0.8250 0.3333
v 2.5500 -0.3333 0.0000
vt 0.8500 0.3333
v 2.6250 -0.3333 0.0000
vt 0.8750 0.3333
v 2.7000 -0.3333 0.0000
vt 0.9000 0.3333
v 2.7750 -0.3333 0.0000
vt 0.9250 0.3333
v 2.8500 -0.3333 0.0000
vt 0.9500 0.3333
v 2.9250 -0.3333 0.0000
vt 0.9750 0.3333
v 3.0000 -0.3333 0.0000
vt 1.0000 0.3333
v 0.0000 -0.2667 0.0000
vt 0.0000 0.3667
v 0.0750 -0.2667 0.0000
vt 0.0250 0.3667
v 0.1500 -0.2667 0.0000
vt 0.0500 0.3667
v 0.2250 -0.2667 0.0000
vt 0.0750 0.3667
v 0.3000 -0.2667 0.0000
vt 0.1000 0.3667
v 0.3750 -0.2667 0.0000
vt 0.1250 0.3667
v 0.4500 -0.2667 0.0000
vt 0.1500 0.3667
v 0.5250 -0.2667 0.0000
vt 0.1750 0.3667
v 0.6000 -0.2667 0.0000
vt 0.2000 0.3667
v 0.6750 -0.2667 0.0000
vt 0.2250 0.3667
v 0.7500 -0.2667 0.0000
vt 0.2500 0.3667
v 0.8250 -0.2667 0.0000
vt 0.2750 0.3667
v 0.9000 -0.2667 0.0000
vt 0.3000 0.3667
v 0.9750 -0.2667 0.0000
vt 0.3250 0.3667
v 1.0500 -0.2667 0.0000
vt 0.3500 0.3667
v 1.1250 -0.2667 0.0000
vt 0.3750 0.3667
v 1.2000 -0.2667 0.0000
vt 0.4000 0.3667
v 1.2750 -0.2667 0.0000
vt 0.4250 0.3667
v 1.3500 -0.2667 0.0000
vt 0.4500 0.3667
v 1.4250 -0.2667 0.0000
vt 0.4750 0.3667
v 1.5000 -0.2667 0.0000
vt 0.5000 0.3667
v 1.5750 -0.2667 0.0000
vt 0.5250 0.3667
v 1.6500 -0.2667 0.0000
vt 0.5500 0.3667
v 1.7250 -0.2667 0.0000
vt 0.5750 0.3667
v 1.8000 -0.2667 0.0000
vt 0.6000 0.3667
v 1.8750 -0.2667 0.0000
vt 0.6250 0.3667
v 1.9500 -0.2667 0.0000
vt 0.6500 0.3667
v 2.0250 -0.2667 0.0000
vt 0.6750 0.3667
v 2.1000 -0.2667 0.0000
vt 0.7000 0.3667
v 2.1750 -0.2667 0.0000
vt 0.7250 0.3667
v 2.2500 -0.2667 0.0000
vt 0.7500 0.3667
v 2.3250 -0.2667 0.0000
vt 0.7750 0.3667
v 2.4000 -0.2667 0.0000
vt 0.8000 0.3667
v 2.4750 -0.2667 0.0000
vt 0.8250 0.3667
v 2.5500 -0.2667 0.0000
vt 0.8500 0.3667
v 2.6250 -0.2667 0.0000
vt 0.8750 0.3667
v 2.7000 -0.2667 0.0000
vt 0.9000 0.3667
v 2.7750 -0.2667 0.0000
vt 0.9250 0.3667
v 2.8500 -0.2667 0.0000
vt 0.9500 0.3667
v 2.9250 -0.2667 0.0000
vt 0.9750 0.3667
v 3.0000 -0.2667 0.0000
vt 1.0000 0.3667
v 0.0000 -0.2000 0.0000
vt 0.0000 0.4000
v 0.0750 -0.2000 0.0000
vt 0.0250 0.4000
v 0.1500 -0.2000 0.0000
vt 0.0500 0.4000
v 0.2250 -0.2000 0.0000
vt 0.0750 0.4000
v 0.3000 -0.2000 0.0000
vt 0.1000 0.4000
v 0.3750 -0.2000 0.0000
vt 0.1250 0.4000
v 0.4500 -0.2000 0.0000
vt 0.1500 0.4000
v 0.5250 -0.2000 0.0000
vt 0.1750 0.4000
v 0.6000 -0.2000 0.0000
vt 0.2000 0.4000
v 0.6750 -0.2000 0.0000
vt 0.2250 0.4000
v 0.7500 -0.2000 0.0000
vt 0.2500 0.4000
v 0.8250 -0.2000 0.0000
vt 0.2750 0.4000
v 0.9000 -0.2000 0.0000
vt 0.3000 0.4000
v 0.9750 -0.2000 0.0000
vt 0.3250 0.4000
v 1.0500 -0.2000 0.0000
vt 0.3500 0.4000
v 1.1250 -0.2000 0.0000
vt 0.3750 0.4000
v 1.2000 -0.2000 0.0000
vt 0.4000 0.4000
v 1.2750 -0.2000 0.0000
vt 0.4250 0.4000
v 1.3500 -0.2000 0.0000
vt 0.4500 0.4000
v 1.4250 -0.2000 0.0000
vt 0.4750 0.4000
v 1.5000 -0.2000 0.0000
vt 0.5000 0.4000
v 1.5750 -0.2000 0.0000
vt 0.5250 0.4000
v 1.6500 -0.2000 0.0000
vt 0.5500 0.4000
v 1.7250 -0.2000 0.0000
vt 0.5750 0.4000
v 1.8000 -0.2000 0.0000
vt 0.6000 0.4000
v 1.8750 -0.2000 0.0000
vt 0.6250 0.4000
v 1.9500 -0.2000 0.0000
vt 0.6500 0.4000
v 2.0250 -0.2000 0.0000
vt 0.6750 0.4000
v 2.1000 -0.2000 0.0000
vt 0.7000 0.4000
v 2.1750 -0.2000 0.0000
vt 0.7250 0.4000
v 2.2500 -0.2000 0.0000
vt 0.7500 0.4000
v 2.3250 -0.2000 0.0000
vt 0.7750 0.4000
v 2.4000 -0.2000 0.0000
vt 0.8000 0.4000
v 2.4750 -0.2000 0.0000
vt 0.8250 0.4000
v 2.5500 -0.2000 0.0000
vt 0.8500 0.4000
v 2.6250 -0.2000 0.0000
vt 0.8750 0.4000
v 2.7000 -0.2000 0.0000
vt 0.9000 0.4000
v 2.7750 -0.2000 0.0000
vt 0.9250 0.4000
v 2.8500 -0.2000 0.0000
vt 0.9500 0.4000
v 2.9250 -0.2000 0.0000
vt 0.9750 0.4000
v 3.0000 -0.2000 0.0000
vt 1.0000 0.4000
v 0.0000 -0.1333 0.0000
vt 0.0000 0.4333
v 0.0750 -0.1333 0.0000
vt 0.0250 0.4333
v 0.1500 -0.1333 0.0000
vt 0.0500 0.4333
v 0.2250 -0.1333 0.0000
vt 0.0750 0.4333
v 0.3000 -0.1333 0.0000
vt 0.1000 0.4333
v 0.3750 -0.1333 0.0000
vt 0.1250 0.4333
v 0.4500 -0.1333 0.0000
vt 0.1500 0.4333
v 0.5250 -0.1333 0.0000
vt 0.1750 0.4333
v 0.6000 -0.1333 0.0000
vt 0.2000 0.4333
v 0.6750 -0.1333 0.0000
vt 0.2250 0.4333
v 0.7500 -0.1333 0.0000
vt 0.2500 0.4333
v 0.8250 -0.1333 0.0000
vt 0.2750 0.4333
v 0.9000 -0.1333 0.0000
vt 0.3000 0.4333
v 0.9750 -0.1333 0.0000
vt 0.3250 0.4333
v 1.0500 -0.1333 0.0000
vt 0.3500 0.4333
v 1.1250 -0.1333 0.0000
vt 0.3750 0.4333
v 1.2000 -0.1333 0.0000
vt 0.4000 0.4333
v 1.2750 -0.1333 0.0000
vt 0.4250 0.4333
v 1.3500 -0.1333 0.0000
vt 0.4500 0.4333
v 1.4250 -0.1333 0.0000
vt 0.4750 0.4333
v 1.5000 -0.1333 0.0000
vt 0.5000 0.4333
v 1.5750 -0.1333 0.0000
vt 0.5250 0.4333
v 1.6500 -0.1333 0.0000
vt 0.5500 0.4333
v 1.7250 -0.1333 0.0000
vt 0.5750 0.4333
v 1.8000 -0.1333 0.0000
vt 0.6000 0.4333
v 1.8750 -0.1333 0.0000
vt 0.6250 0.4333
v 1.9500 -0.1333 0.0000
vt 0.6500 0.4333
v 2.0250 -0.1333 0.0000
vt 0.6750 0.4333
v 2.1000 -0.1333 0.0000
vt 0.7000 0.4333
v 2.1750 -0.1333 0.0000
vt 0.7250 0.4333
v 2.2500 -0.1333 0.0000
vt 0.7500 0.4333
v 2.3250 -0.1333 0.0000
vt 0.7750 0.4333
v 2.4000 -0.1333 0.0000
vt 0.8000 0.4333
v 2.4750 -0.1333 0.0000
vt 0.8250 0.4333
v 2.5500 -0.1333 0.0000
vt 0.8500 0.4333
v 2.6250 -0.1333 0.0000
vt 0.8750 0.4333
v 2.7000 -0.1333 0.0000
vt 0.9000 0.4333
v 2.7750 -0.1333 0.0000
vt 0.9250 0.4333
v 2.8500 -0.1333 0.0000
vt 0.9500 0.4333
v 2.9250 -0.1333 0.0000
vt 0.9750 0.4333
v 3.0000 -0.1333 0.0000
vt 1.0000 0.4333
v 0.0000 -0.0667 0.0000
vt 0.0000 0.4667
v 0.0750 -0.0667 0.0000
vt 0.0250 0.4667
v 0.1500 -0.0667 0.0000
vt 0.0500 0.4667
v 0.2250 -0.0667 0.0000
vt 0.0750 0.4667
v 0.3000 -0.0667 0.0000
vt 0.1000 0.4667
v 0.3750 -0.0667 0.0000
vt 0.1250 0.4667
v 0.4500 -0.0667 0.0000
vt 0.1500 0.4667
v 0.5250 -0.0667 0.0000
vt 0.1750 0.4667
v 0.6000 -0.0667 0.0000
vt 0.2000 0.4667
v 0.6750 -0.0667 0.0000
vt 0.2250 0.4667
v 0.7500 -0.0667 0.0000
vt 0.2500 0.4667
v 0.8250 -0.0667 0.0000
vt 0.2750 0.4667
v 0.9000 -0.0667 0.0000
vt 0.3000 0.4667
v 0.9750 -0.0667 0.0000
vt 0.3250 0.4667
v 1.0500 -0.0667 0.0000
vt 0.3500 0.4667
v 1.1250 -0.0667 0.0000
vt 0.3750 0.4667
v 1.2000 -0.0667 0.0000
vt 0.4000 0.4667
v 1.2750 -0.0667 0.0000
vt 0.4250 0.4667
v 1.3500 -0.0667 0.0000
vt 0.4500 0.4667
v 1.4250 -0.0667 0.0000
vt 0.4750 0.4667
v 1.5000 -0.0667 0.0000
vt 0.5000 0.4667
v 1.5750 -0.0667 0.0000
vt 0.5250 0.4667
v 1.6500 -0.0667 0.0000
vt 0.5500 0.4667
v 1.7250 -0.0667 0.0000
vt 0.5750 0.4667
v 1.8000 -0.0667 0.0000
vt 0.6000 0.4667
v 1.8750 -0.0667 0.0000
vt 0.6250 0.4667
v 1.9500 -0.0667 0.0000
vt 0.6500 0.4667
v 2.0250 -0.0667 0.0000
vt 0.6750 0.4667
v 2.1000 -0.0667 0.0000
vt 0.7000 0.4667
v 2.1750 -0.0667 0.0000
vt 0.7250 0.4667
v 2.2500 -0.0667 0.0000
vt 0.7500 0.4667
v 2.3250 -0.0667 0.0000
vt 0.7750 0.4667
v 2.4000 -0.0667 0.0000
vt 0.8000 0.4667
v 2.4750 -0.0667 0.0000
vt 0.8250 0.4667
v 2.5500 -0.0667 0.0000
vt 0.8500 0.4667
v 2.6250 -0.0667 0.0000
vt 0.8750 0.4667
v 2.7000 -0.0667 0.0000
vt 0.9000 0.4667
v 2.7750 -0.0667 0.0000
vt 0.9250 0.4667
v 2.8500 -0.0667 0.0000
vt 0.9500 0.4667
v 2.9250 -0.0667 0.0000
vt 0.9750 0.4667
v 3.0000 -0.0667 0.0000
vt 1.0000 0.4667
v 0.0000 0.0000 0.0000
vt 0.0000 0.5000
v 0.0750 0.0000 0.0000
vt 0.0250 0.5000
v 0.1500 0.0000 0.0000
vt 0.0500 0.5000
v 0.2250 0.0000 0.0000
vt 0.0750 0.5000
v 0.3000 0.0000 0.0000
vt 0.1000 0.5000
v 0.3750 0.0000 0.0000
vt 0.1250 0.5000
v 0.4500 0.0000 0.0000
vt 0.1500 0.5000
v 0.5250 0.0000 0.0000
vt 0.1750 0.5000
v 0.6000 0.0000 0.0000
vt 0.2000 0.5000
v 0.6750 0.0000 0.0000
vt 0.2250 0.5000
v 0.7500 0.0000 0.0000
vt 0.2500 0.5000
v 0.8250 0.0000 0.0000
vt 0.2750 0.5000
v 0.9000 0.0000 0.0000
vt 0.3000 0.5000
v 0.9750 0.0000 0.0000
vt 0.3250 0.5000
v 1.0500 0.0000 0.0000
vt 0.3500 0.5000
v 1.1250 0.0000 0.0000
vt 0.3750 0.5000
v 1.2000 0.0000 0.0000
vt 0.4000 0.5000
v 1.2750 0.0000 0.0000
vt 0.4250 0.5000
v 1.3500 0.0000 0.0000
vt 0.4500 0.5000
v 1.4250 0.0000 0.0000
vt 0.4750 0.5000
v 1.5000 0.0000 0.0000
vt 0.5000 0.5000
v 1.5750 0.0000 0.0000
vt 0.5250 0.5000
v 1.6500 0.0000 0.0000
vt 0.5500 0.5000
v 1.7250 0.0000 0.0000
vt 0.5750 0.5000
v 1.8000 0.0000 0.0000
vt 0.6000 0.5000
v 1.8750 0.0000 0.0000
vt 0.6250 0.5000
v 1.9500 0.0000 0.0000
vt 0.6500 0.5000
v 2.0250 0.0000 0.0000
vt 0.6750 0.5000
v 2.1000 0.0000 0.0000
vt 0.7000 0.5000
v 2.1750 0.0000 0.0000
vt 0.7250 0.5000
v 2.2500 0.0000 0.0000
vt 0.7500 0.5000
v 2.3250 0.0000 0.0000
vt 0.7750 0.5000
v 2.4000 0.0000 0.0000
vt 0.8000 0.5000
v 2.4750 0.0000 0.0000
vt 0.8250 0.5000
v 2.5500 0.0000 0.0000
vt 0.8500 0.5000
v 2.6250 0.0000 0.0000
vt 0.8750 0.5000
v 2.7000 0.0000 0.0000
vt 0.9000 0.5000
v 2.7750 0.0000 0.0000
vt 0.9250 0.5000
v 2.8500 0.0000 0.0000
vt 0.9500 0.5000
v 2.9250 0.0000 0.0000
vt 0.9750 0.5000
v 3.0000 0.0000 0.0000
vt 1.0000 0.5000
v 0.0000 0.0667 0.0000
vt 0.0000 0.5333
v 0.0750 0.0667 0.0000
vt 0.0250 0.5333
v 0.1500 0.0667 0.0000
vt 0.0500 0.5333
v 0.2250 0.0667 0.0000
vt 0.0750 0.5333
v 0.3000 0.0667 0.0000
vt 0.1000 0.5333
v 0.3750 0.0667 0.0000
vt 0.1250 0.5333
v 0.4500 0.0667 0.0000
vt 0.1500 0.5333
v 0.5250 0.0667 0.0000
vt 0.1750 0.5333
v 0.6000 0.0667 0.0000
vt 0.2000 0.5333
v 0.6750 0.0667 0.0000
vt 0.2250 0.5333
v 0.7500 0.0667 0.0000
vt 0.2500 0.5333
v 0.8250 0.0667 0.0000
vt 0.2750 0.5333
v 0.9000 0.0667 0.0000
vt 0.3000 0.5333
v 0.9750 0.0667 0.0000
vt 0.3250 0.5333
v 1.0500 0.0667 0.0000
vt 0.3500 0.5333
v 1.1250 0.0667 0.0000
vt 0.3750 0.5333
v 1.2000 0.0667 0.0000
vt 0.4000 0.5333
v 1.2750 0.0667 0.0000
vt 0.4250 0.5333
v 1.3500 0.0667 0.0000
vt 0.4500 0.5333
v 1.4250 0.0667 0.0000
vt 0.4750 0.5333
v 1.5000 0.0667 0.0000
vt 0.5000 0.5333
v 1.5750 0.0667 0.0000
vt 0.5250 0.5333
v 1.6500 0.0667 0.0000
vt 0.5500 0.5333
v 1.7250 0.0667 0.0000
vt 0.5750 0.5333
v 1.8000 0.0667 0.0000
vt 0.6000 0.5333
v 1.8750 0.0667 0.0000
vt 0.6250 0.5333
v 1.9500 0.0667 0.0000
vt 0.6500 0.5333
v 2.0250 0.0667 0.0000
vt 0.6750 0.5333
v 2.1000 0.0667 0.0000
vt 0.7000 0.5333
v 2.1750 0.0667 0.0000
vt 0.7250 0.5333
v 2.2500 0.0667 0.0000
vt 0.7500 0.5333
v 2.3250 0.0667 0.0000
vt 0.7750 0.5333
v 2.4000 0.0667 0.0000
vt 0.8000 0.5333
v 2.4750 0.0667 0.0000
vt 0.8250 0.5333
v 2.5500 0.0667 0.0000
vt 0.8500 0.5333
v 2.6250 0.0667 0.0000
vt 0.8750 0.5333
v 2.7000 0.0667 0.0000
vt 0.9000 0.5333
v 2.7750 0.0667 0.0000
vt 0.9250 0.5333
v 2.8500 0.0667 0.0000
vt 0.9500 0.5333
v 2.9250 0.0667 0.0000
vt 0.9750 0.5333
v 3.0000 0.0667 0.0000
vt 1.0000 0.5333
v 0.0000 0.1333 0.0000
vt 0.0000 0.5667
v 0.0750 0.1333 0.0000
vt 0.0250 0.5667
v 0.1500 0.1333 0.0000
vt 0.0500 0.5667
v 0.2250 0.1333 0.0000
vt 0.0750 0.5667
v 0.3000 0.1333 0.0000
vt 0.1000 0.5667
v 0.3750 0.1333 0.0000
vt 0.1250 0.5667
v 0.4500 0.1333 0.0000
vt 0.1500 0.5667
v 0.5250 0.1333 0.0000
vt 0.1750 0.5667
v 0.6000 0.1333 0.0000
vt 0.2000 0.5667
v 0.6750 0.1333 0.0000
vt 0.2250 0.5667
v 0.7500 0.1333 0.0000
vt 0.2500 0.5667
v 0.8250 0.1333 0.0000
vt 0.2750 0.5667
v 0.9000 0.1333 0.0000
vt 0.3000 0.5667
v 0.9750 0.1333 0.0000
vt 0.3250 0.5667
v 1.0500 0.1333 0.0000
vt 0.3500 0.5667
v 1.1250 0.1333 0.0000
vt 0.3750 0.5667
v 1.2000 0.1333 0.0000
vt 0.4000 0.5667
v 1.2750 0.1333 0.0000
vt 0.4250 0.5667
v 1.3500 0.1333 0.0000
vt 0.4500 0.5667
v 1.4250 0.1333 0.0000
vt 0.4750 0.5667
v 1.5000 0.1333 0.0000
vt 0.5000 0.5667
v 1.5750 0.1333 0.0000
vt 0.5250 0.5667
v 1.6500 0.1333 0.0000
vt 0.5500 0.5667
v 1.7250 0.1333 0.0000
vt 0.5750 0.5667
v 1.8000 0.1333 0.0000
vt 0.6000 0.5667
v 1.8750 0.1333 0.0000
vt 0.6250 0.5667
v 1.9500 0.1333 0.0000
vt 0.6500 0.5667
v 2.0250 0.1333 0.0000
vt 0.6750 0.5667
v 2.1000 0.1333 0.0000
vt 0.7000 0.5667
v 2.1750 0.1333 0.0000
vt 0.7250 0.5667
v 2.2500 0.1333 0.0000
vt 0.7500 0.5667
v 2.3250 0.1333 0.0000
vt 0.7750 0.5667
v 2.4000 0.1333 0.0000
vt 0.8000 0.5667
v 2.4750 0.1333 0.0000
vt 0.8250 0.5667
v 2.5500 0.1333 0.0000
vt 0.8500 0.5667
v 2.6250 0.1333 0.0000
vt 0.8750 0.5667
v 2.7000 0.1333 0.0000
vt 0.9000 0.5667
v 2.7750 0.1333 0.0000
vt 0.9250 0.5667
v 2.8500 0.1333 0.0000
vt 0.9500 0.5667
v 2.9250 0.1333 0.0000
vt 0.9750 0.5667
v 3.0000 0.1333 0.0000
vt 1.0000 0.5667
v 0.0000 0.2000 0.0000
vt 0.0000 0.6000
v 0.0750 0.2000 0.0000
vt 0.0250 0.6000
v 0.1500 0.2000 0.0000
vt 0.0500 0.6000
v 0.2250 0.2000 0.0000
vt 0.0750 0.6000
v 0.3000 0.2000 0.0000
vt 0.1000 0.6000
v 0.3750 0.2000 0.0000
vt 0.1250 0.6000
v 0.4500 0.2000 0.0000
vt 0.1500 0.6000
v 0.5250 0.2000 0.0000
vt 0.1750 0.6000
v 0.6000 0.2000 0.0000
vt 0.2000 0.6000
v 0.6750 0.2000 0.0000
vt 0.2250 0.6000
v 0.7500 0.2000 0.0000
vt 0.2500 0.6000
v 0.8250 0.2000 0.0000
vt 0.2750 0.6000
v 0.9000 0.2000 0.0000
vt 0.3000 0.6000
v 0.9750 0.2000 0.0000
vt 0.3250 0.6000
v 1.0500 0.2000 0.0000
vt 0.3500 0.6000
v 1.1250 0.2000 0.0000
vt 0.3750 0.6000
v 1.2000 0.2000 0.0000
vt 0.4000 0.6000
v 1.2750 0.2000 0.0000
vt 0.4250 0.6000
v 1.3500 0.2000 0.0000
vt 0.4500 0.6000
v 1.4250 0.2000 0.0000
vt 0.4750 0.6000
v 1.5000 0.2000 0.0000
vt 0.5000 0.6000
v 1.5750 0.2000 0.0000
vt 0.5250 0.6000
v 1.6500 0.2000 0.0000
vt 0.5500 0.6000
v 1.7250 0.2000 0.0000
vt 0.5750 0.6000
v 1.8000 0.2000 0.0000
vt 0.6000 0.6000
v 1.8750 0.2000 0.0000
vt 0.6250 0.6000
v 1.9500 0.2000 0.0000
vt 0.6500 0.6000
v 2.0250 0.2000 0.0000
vt 0.6750 0.6000
v 2.1000 0.2000 0.0000
vt 0.7000 0.6000
v 2.1750 0.2000 0.0000
vt 0.7250 0.6000
v 2.2500 0.2000 0.0000
vt 0.7500 0.6000
v 2.3250 0.2000 0.0000
vt 0.7750 0.6000
v 2.4000 0.2000 0.0000
vt 0.8000 0.6000
v 2.4750 0.2000 0.0000
vt 0.8250 0.6000
v 2.5500 0.2000 0.0000
vt 0.8500 0.6000
v 2.6250 0.2000 0.0000
vt 0.8750 0.6000
v 2.7000 0.2000 0.0000
vt 0.9000 0.6000
v 2.7750 0.2000 0.0000
vt 0.9250 0.6000
v 2.8500 0.2000 0.0000
vt 0.9500 0.6000
v 2.9250 0.2000 0.0000
vt 0.9750 0.6000
v 3.0000 0.2000 0.0000
vt 1.0000 0.6000
v 0.0000 0.2667 0.0000
vt 0.0000 0.6333
v 0.0750 0.2667 0.0000
vt 0.0250 0.6333
v 0.1500 0.2667 0.0000
vt 0.0500 0.6333
v 0.2250 0.2667 0.0000
vt 0.0750 0.6333
v 0.3000 0.2667 0.0000
vt 0.1000 0.6333
v 0.3750 0.2667 0.0000
vt 0.1250 0.6333
v 0.4500 0.2667 0.0000
vt 0.1500 0.6333
v 0.5250 0.2667 0.0000
vt 0.1750 0.6333
v 0.6000 0.2667 0.0000
vt 0.2000 0.6333
v 0.6750 0.2667 0.0000
vt 0.2250 0.6333
v 0.7500 0.2667 0.0000
vt 0.2500 0.6333
v 0.8250 0.2667 0.0000
vt 0.2750 0.6333
v 0.9000 0.2667 0.0000
vt 0.3000 0.6333
v 0.9750 0.2667 0.0000
vt 0.3250 0.6333
v 1.0500 0.2667 0.0000
vt 0.3500 0.6333
v 1.1250 0.2667 0.0000
vt 0.3750 0.6333
v 1.2000 0.2667 0.0000
vt 0.4000 0.6333
v 1.2750 0.2667 0.0000
vt 0.4250 0.6333
v 1.3500 0.2667 0.0000
vt 0.4500 0.6333
v 1.4250 0.2667 0.0000
vt 0.4750 0.6333
v 1.5000 0.2667 0.0000
vt 0.5000 0.6333
v 1.5750 0.2667 0.0000
vt 0.5250 0.6333
v 1.6500 0.2667 0.0000
vt 0.5500 0.6333
v 1.7250 0.2667 0.0000
vt 0.5750 0.6333
v 1.8000 0.2667 0.0000
vt 0.6000 0.6333
v 1.8750 0.2667 0.0000
vt 0.6250 0.6333
v 1.9500 0.2667 0.0000
vt 0.6500 0.6333
v 2.0250 0.2667 0.0000
vt 0.6750 0.6333
v 2.1000 0.2667 0.0000
vt 0.7000 0.6333
v 2.1750 0.2667 0.0000
vt 0.7250 0.6333
v 2.2500 0.2667 0.0000
vt 0.7500 0.6333
v 2.3250 0.2667 0.0000
vt 0.7750 0.6333
v 2.4000 0.2667 0.0000
vt 0.8000 0.6333
v 2.4750 0.2667 0.0000
vt 0.8250 0.6333
v 2.5500 0.2667 0.0000
vt 0.8500 0.6333
v 2.6250 0.2667 0.0000
vt 0.8750 0.6333
v 2.7000 0.2667 0.0000
vt 0.9000 0.6333
v 2.7750 0.2667 0.0000
vt 0.9250 0.6333
v 2.8500 0.2667 0.0000
vt 0.9500 0.6333
v 2.9250 0.2667 0.0000
vt 0.9750 0.6333
v 3.0000 0.2667 0.0000
vt 1.0000 0.6333
v 0.0000 0.3333 0.0000
vt 0.0000 0.6667
v 0.0750 0.3333 0.0000
vt 0.0250 0.6667
v 0.1500 0.3333 0.0000
vt 0.0500 0.6667
v 0.2250 0.3333 0.0000
vt 0.0750 0.6667
v 0.3000 0.3333 0.0000
vt 0.1000 0.6667
v 0.3750 0.3333 0.0000
vt 0.1250 0.6667
v 0.4500 0.3333 0.0000
vt 0.1500 0.6667
v 0.5250 0.3333 0.0000
vt 0.1750 0.6667
v 0.6000 0.3333 0.0000
vt 0.2000 0.6667
v 0.6750 0.3333 0.0000
vt 0.2250 0.6667
v 0.7500 0.3333 0.0000
vt 0.2500 0.6667
v 0.8250 0.3333 0.0000
vt 0.2750 0.6667
v 0.9000 0.3333 0.0000
vt 0.3000 0.6667
v 0.9750 0.3333 0.0000
vt 0.3250 0.6667
v 1.0500 0.3333 0.0000
vt 0.3500 0.6667
v 1.1250 0.3333 0.0000
vt 0.3750 0.6667
v 1.2000 0.3333 0.0000
vt 0.4000 0.6667
v 1.2750 0.3333 0.0000
vt 0.4250 0.6667
v 1.3500 0.3333 0.0000
vt 0.4500 0.6667
v 1.4250 0.3333 0.0000
vt 0.4750 0.6667
v 1.5000 0.3333 0.0000
vt 0.5000 0.6667
v 1.5750 0.3333 0.0000
vt 0.5250 0.6667
v 1.6500 0.3333 0.0000
vt 0.5500 0.6667
v 1.7250 0.3333 0.0000
vt 0.5750 0.6667
v 1.8000 0.3333 0.0000
vt 0.6000 0.6667
v 1.8750 0.3333 0.0000
vt 0.6250 0.6667
v 1.9500 0.3333 0.0000
vt 0.6500 0.6667
v 2.0250 0.3333 0.0000
vt 0.6750 0.6667
v 2.1000 0.3333 0.0000
vt 0.7000 0.6667
v 2.1750 0.3333 0.0000
vt 0.7250 0.6667
v 2.2500 0.3333 0.0000
vt 0.7500 0.6667
v 2.3250 0.3333 0.0000
vt 0.7750 0.6667
v 2.4000 0.3333 0.0000
vt 0.8000 0.6667
v 2.4750 0.3333 0.0000
vt 0.8250 0.6667
v 2.5500 0.3333 0.0000
vt 0.8500 0.6667
v 2.6250 0.3333 0.0000
vt 0.8750 0.6667
v 2.7000 0.3333 0.0000
vt 0.9000 0.6667
v 2.7750 0.3333 0.0000
vt 0.9250 0.6667
v 2.8500 0.3333 0.0000
vt 0.9500 0.6667
v 2.9250 0.3333 0.0000
vt 0.9750 0.6667
v 3.0000 0.3333 0.0000
vt 1.0000 0.6667
v 0.0000 0.4000 0.0000
vt 0.0000 0.7000
v 0.0750 0.4000 0.0000
vt 0.0250 0.7000
v 0.1500 0.4000 0.0000
vt 0.0500 0.7000
v 0.2250 0.4000 0.0000
vt 0.0750 0.7000
v 0.3000 0.4000 0.0000
vt 0.1000 0.7000
v 0.3750 0.4000 0.0000
vt 0.1250 0.7000
v 0.4500 0.4000 0.0000
vt 0.1500 0.7000
v 0.5250 0.4000 0.0000
vt 0.1750 0.7000
v 0.6000 0.4000 0.0000
vt 0.2000 0.7000
v 0.6750 0.4000 0.0000
vt 0.2250 0.7000
v 0.7500 0.4000 0.0000
vt 0.2500 0.7000
v 0.8250 0.4000 0.0000
vt 0.2750 0.7000
v 0.9000 0.4000 0.0000
vt 0.3000 0.7000
v 0.9750 0.4000 0.0000
vt 0.3250 0.7000
v 1.0500 0.4000 0.0000
vt 0.3500 0.7000
v 1.1250 0.4000 0.0000
vt 0.3750 0.7000
v 1.2000 0.4000 0.0000
vt 0.4000 0.7000
v 1.2750 0.4000 0.0000
vt 0.4250 0.7000
v 1.3500 0.4000 0.0000
vt 0.4500 0.7000
v 1.4250 0.4000 0.0000
vt 0.4750 0.7000
v 1.5000 0.4000 0.0000
vt 0.5000 0.7000
v 1.5750 0.4000 0.0000
vt 0.5250 0.7000
v 1.6500 0.4000 0.0000
vt 0.5500 0.7000
v 1.7250 0.4000 0.0000
vt 0.5750 0.7000
v 1.8000 0.4000 0.0000
vt 0.6000 0.7000
v 1.8750 0.4000 0.0000
vt 0.6250 0.7000
v 1.9500 0.4000 0.0000
vt 0.6500 0.7000
v 2.0250 0.4000 0.0000
vt 0.6750 0.7000
v 2.1000 0.4000 0.0000
vt 0.7000 0.7000
v 2.1750 0.4000 0.0000
vt 0.7250 0.7000
v 2.2500 0.4000 0.0000
vt 0.7500 0.7000
v 2.3250 0.4000 0.0000
vt 0.7750 0.7000
v 2.4000 0.4000 0.0000
vt 0.8000 0.7000
v 2.4750 0.4000 0.0000
vt 0.8250 0.7000
v 2.5500 0.4000 0.0000
vt 0.8500 0.7000
v 2.6250 0.4000 0.0000
vt 0.8750 0.7000
v 2.7000 0.4000 0.0000
vt 0.9000 0.7000
v 2.7750 0.4000 0.0000
vt 0.9250 0.7000
v 2.8500 0.4000 0.0000
vt 0.9500 0.7000
v 2.9250 0.4000 0.0000
vt 0.9750 0.7000
v 3.0000 0.4000 0.0000
vt 1.0000 0.7000
v 0.0000 0.4667 0.0000
vt 0.0000 0.7333
v 0.0750 0.4667 0.0000
vt 0.0250 0.7333
v 0.1500 0.4667 0.0000
vt 0.0500 0.7333
v 0.2250 0.4667 0.0000
vt 0.0750 0.7333
v 0.3000 0.4667 0.0000
vt 0.1000 0.7333
v 0.3750 0.4667 0.0000
vt 0.1250 0.7333
v 0.4500 0.4667 0.0000
vt 0.1500 0.7333
v 0.5250 0.4667 0.0000
vt 0.1750 0.7333
v 0.6000 0.4667 0.0000
vt 0.2000 0.7333
v 0.6750 0.4667 0.0000
vt 0.2250 0.7333
v 0.7500 0.4667 0.0000
vt 0.2500 0.7333
v 0.8250 0.4667 0.0000
vt 0.2750 0.7333
v 0.9000 0.4667 0.0000
vt 0.3000 0.7333
v 0.9750 0.4667 0.0000
vt 0.3250 0.7333
v 1.0500 0.4667 0.0000
vt 0.3500 0.7333
v 1.1250 0.4667 0.0000
vt 0.3750 0.7333
v 1.2000 0.4667 0.0000
vt 0.4000 0.7333
v 1.2750 0.4667 0.0000
vt 0.4250 0.7333
v 1.3500 0.4667 0.0000
vt 0.4500 0.7333
v 1.4250 0.4667 0.0000
vt 0.4750 0.7333
v 1.5000 0.4667 0.0000
vt 0.5000 0.7333
v 1.5750 0.4667 0.0000
vt 0.5250 0.7333
v 1.6500 0.4667 0.0000
vt 0.5500 0.7333
v 1.7250 0.4667 0.0000
vt 0.5750 0.7333
v 1.8000 0.4667 0.0000
vt 0.6000 0.7333
v 1.8750 0.4667 0.0000
vt 0.6250 0.7333
v 1.9500 0.4667 0.0000
vt 0.6500 0.7333
v 2.0250 0.4667 0.0000
vt 0.6750 0.7333
v 2.1000 0.4667 0.0000
vt 0.7000 0.7333
v 2.1750 0.4667 0.0000
vt 0.7250 0.7333
v 2.2500 0.4667 0.0000
vt 0.7500 0.7333
v 2.3250 0.4667 0.0000
vt 0.7750 0.7333
v 2.4000 0.4667 0.0000
vt 0.8000 0.7333
v 2.4750 0.4667 0.0000
vt 0.8250 0.7333
v 2.5500 0.4667 0.0000
vt 0.8500 0.7333
v 2.6250 0.4667 0.0000
vt 0.8750 0.7333
v 2.7000 0.4667 0.0000
vt 0.9000 0.7333
v 2.7750 0.4667 0.0000
vt 0.9250 0.7333
v 2.8500 0.4667 0.0000
vt 0.9500 0.7333
v 2.9250 0.4667 0.0000
vt 0.9750 0.7333
v 3.0000 0.4667 0.0000
vt 1.0000 0.7333
v 0.0000 0.5333 0.0000
vt 0.0000 0.7667
v 0.0750 0.5333 0.0000
vt 0.0250 0.7667
v 0.1500 0.5333 0.0000
vt 0.0500 0.7667
v 0.2250 0.5333 0.0000
vt 0.0750 0.7667
v 0.3000 0.5333 0.0000
vt 0.1000 0.7667
v 0.3750 0.5333 0.0000
vt 0.1250 0.7667
v 0.4500 0.5333 0.0000
vt 0.1500 0.7667
v 0.5250 0.5333 0.0000
vt 0.1750 0.7667
v 0.6000 0.5333 0.0000
vt 0.2000 0.7667
v 0.6750 0.5333 0.0000
vt 0.2250 0.7667
v 0.7500 0.5333 0.0000
vt 0.2500 0.7667
v 0.8250 0.5333 0.0000
vt 0.2750 0.7667
v 0.9000 0.5333 0.0000
vt 0.3000 0.7667
v 0.9750 0.5333 0.0000
vt 0.3250 0.7667
v 1.0500 0.5333 0.0000
vt 0.3500 0.7667
v 1.1250 0.5333 0.0000
vt 0.3750 0.7667
v 1.2000 0.5333 0.0000
vt 0.4000 0.7667
v 1.2750 0.5333 0.0000
vt 0.4250 0.7667
v 1.3500 0.5333 0.0000
vt 0.4500 0.7667
v 1.4250 0.5333 0.0000
vt 0.4750 0.7667
v 1.5000 0.5333 0.0000
vt 0.5000 0.7667
v 1.5750 0.5333 0.0000
vt 0.5250 0.7667
v 1.6500 0.5333 0.0000
vt 0.5500 0.7667
v 1.7250 0.5333 0.0000
vt 0.5750 0.7667
v 1.8000 0.5333 0.0000
vt 0.6000 0.7667
v 1.8750 0.5333 0.0000
vt 0.6250 0.7667
v 1.9500 0.5333 0.0000
vt 0.6500 0.7667
v 2.0250 0.5333 0.0000
vt 0.6750 0.7667
v 2.1000 0.5333 0.0000
vt 0.7000 0.7667
v 2.1750 0.5333 0.0000
vt 0.7250 0.7667
v 2.2500 0.5333 0.0000
vt 0.7500 0.7667
v 2.3250 0.5333 0.0000
vt 0.7750 0.7667
v 2.4000 0.5333 0.0000
vt 0.8000 0.7667
v 2.4750 0.5333 0.0000
vt 0.8250 0.7667
v 2.5500 0.5333 0.0000
vt 0.8500 0.7667
v 2.6250 0.5333 0.0000
vt 0.8750 0.7667
v 2.7000 0.5333 0.0000
vt 0.9000 0.7667
v 2.7750 0.5333 0.0000
vt 0.9250 0.7667
v 2.8500 0.5333 0.0000
vt 0.9500 0.7667
v 2.9250 0.5333 0.0000
vt 0.9750 0.7667
v 3.0000 0.5333 0.0000
vt 1.0000 0.7667
v 0.0000 0.6000 0.0000
vt 0.0000 0.8000
v 0.0750 0.6000 0.0000
vt 0.0250 0.8000
v 0.1500 0.6000 0.0000
vt 0.0500 0.8000
v 0.2250 0.6000 0.0000
vt 0.0750 0.8000
v 0.3000 0.6000 0.0000
vt 0.1000 0.8000
v 0.3750 0.6000 0.0000
vt 0.1250 0.8000
v 0.4500 0.6000 0.0000
vt 0.1500 0.8000
v 0.5250 0.6000 0.0000
vt 0.1750 0.8000
v 0.6000 0.6000 0.0000
vt 0.2000 0.8000
v 0.6750 0.6000 0.0000
vt 0.2250 0.8000
v 0.7500 0.6000 0.0000
vt 0.2500 0.8000
v 0.8250 0.6000 0.0000
vt 0.2750 0.8000
v 0.9000 0.6000 0.0000
vt 0.3000 0.8000
v 0.9750 0.6000 0.0000
vt 0.3250 0.8000
v 1.0500 0.6000 0.0000
vt 0.3500 0.8000
v 1.1250 0.6000 0.0000
vt 0.3750 0.8000
v 1.2000 0.6000 0.0000
vt 0.4000 0.8000
v 1.2750 0.6000 0.0000
vt 0.4250 0.8000
v 1.3500 0.6000 0.0000
vt 0.4500 0.8000
v 1.4250 0.6000 0.0000
vt 0.4750 0.8000
v 1.5000 0.6000 0.0000
vt 0.5000 0.8000
v 1.5750 0.6000 0.0000
vt 0.5250 0.8000
v 1.6500 0.6000 0.0000
vt 0.5500 0.8000
v 1.7250 0.6000 0.0000
vt 0.5750 0.8000
v 1.8000 0.6000 0.0000
vt 0.6000 0.8000
v 1.8750 0.6000 0.0000
vt 0.6250 0.8000
v 1.9500 0.6000 0.0000
vt 0.6500 0.8000
v 2.0250 0.6000 0.0000
vt 0.6750 0.8000
v 2.1000 0.6000 0.0000
vt 0.7000 0.8000
v 2.1750 0.6000 0.0000
vt 0.7250 0.8000
v 2.2500 0.6000 0.0000
vt 0.7500 0.8000
v 2.3250 0.6000 0.0000
vt 0.7750 0.8000
v 2.4000 0.6000 0.0000
vt 0.8000 0.8000
v 2.4750 0.6000 0.0000
vt 0.8250 0.8000
v 2.5500 0.6000 0.0000
vt 0.8500 0.8000
v 2.6250 0.6000 0.0000
vt 0.8750 0.8000
v 2.7000 0.6000 0.0000
vt 0.9000 0.8000
v 2.7750 0.6000 0.0000
vt 0.9250 0.8000
v 2.8500 0.6000 0.0000
vt 0.9500 0.8000
v 2.9250 0.6000 0.0000
vt 0.9750 0.8000
v 3.0000 0.6000 0.0000
vt 1.0000 0.8000
v 0.0000 0.6667 0.0000
vt 0.0000 0.8333
v 0.0750 0.6667 0.0000
vt 0.0250 0.8333
v 0.1500 0.6667 0.0000
vt 0.0500 0.8333
v 0.2250 0.6667 0.0000
vt 0.0750 0.8333
v 0.3000 0.6667 0.0000
vt 0.1000 0.8333
v 0.3750 0.6667 0.0000
vt 0.1250 0.8333
v 0.4500 0.6667 0.0000
vt 0.1500 0.8333
v 0.5250 0.6667 0.0000
vt 0.1750 0.8333
v 0.6000 0.6667 0.0000
vt 0.2000 0.8333
v 0.6750 0.6667 0.0000
vt 0.2250 0.8333
v 0.7500 0.6667 0.0000
vt 0.2500 0.8333
v 0.8250 0.6667 0.0000
vt 0.2750 0.8333
v 0.9000 0.6667 0.0000
vt 0.3000 0.8333
v 0.9750 0.6667 0.0000
vt 0.3250 0.8333
v 1.0500 0.6667 0.0000
vt 0.3500 0.8333
v 1.1250 0.6667 0.0000
vt 0.3750 0.8333
v 1.2000 0.6667 0.0000
vt 0.4000 0.8333
v 1.2750 0.6667 0.0000
vt 0.4250 0.8333
v 1.3500 0.6667 0.0000
vt 0.4500 0.8333
v 1.4250 0.6667 0.0000
vt 0.4750 0.8333
v 1.5000 0.6667 0.0000
vt 0.5000 0.8333
v 1.5750 0.6667 0.0000
vt 0.5250 0.8333
v 1.6500 0.6667 0.0000
vt 0.5500 0.8333
v 1.7250 0.6667 0.0000
vt 0.5750 0.8333
v 1.8000 0.6667 0.0000
vt 0.6000 0.8333
v 1.8750 0.6667 0.0000
vt 0.6250 0.8333
v 1.9500 0.6667 0.0000
vt 0.6500 0.8333
v 2.0250 0.6667 0.0000
vt 0.6750 0.8333
v 2.1000 0.6667 0.0000
vt 0.7000 0.8333
v 2.1750 0.6667 0.0000
vt 0.7250 0.8333
v 2.2500 0.6667 0.0000
vt 0.7500 0.8333
v 2.3250 0.6667 0.0000
vt 0.7750 0.8333
v 2.4000 0.6667 0.0000
vt 0.8000 0.8333
v 2.4750 0.6667 0.0000
vt 0.8250 0.8333
v 2.5500 0.6667 0.0000
vt 0.8500 0.8333
v 2.6250 0.6667 0.0000
vt 0.8750 0.8333
v 2.7000 0.6667 0.0000
vt 0.9000 0.8333
v 2.7750 0.6667 0.0000
vt 0.9250 0.8333
v 2.8500 0.6667 0.0000
vt 0.9500 0.8333
v 2.9250 0.6667 0.0000
vt 0.9750 0.8333
v 3.0000 0.6667 0.0000
vt 1.0000 0.8333
v 0.0000 0.7333 0.0000
vt 0.0000 0.8667
v 0.0750 0.7333 0.0000
vt 0.0250 0.8667
v 0.1500 0.7333 0.0000
vt 0.0500 0.8667
v 0.2250 0.7333 0.0000
vt 0.0750 0.8667
v 0.3000 0.7333 0.0000
vt 0.1000 0.8667
v 0.3750 0.7333 0.0000
vt 0.1250 0.8667
v 0.4500 0.7333 0.0000
vt 0.1500 0.8667
v 0.5250 0.7333 0.0000
vt 0.1750 0.8667
v 0.6000 0.7333 0.0000
vt 0.2000 0.8667
v 0.6750 0.7333 0.0000
vt 0.2250 0.8667
v 0.7500 0.7333 0.0000
vt 0.2500 0.8667
v 0.8250 0.7333 0.0000
vt 0.2750 0.8667
v 0.9000 0.7333 0.0000
vt 0.3000 0.8667
v 0.9750 0.7333 0.0000
vt 0.3250 0.8667
v 1.0500 0.7333 0.0000
vt 0.3500 0.8667
v 1.1250 0.7333 0.0000
vt 0.3750 0.8667
v 1.2000 0.7333 0.0000
vt 0.4000 0.8667
v 1.2750 0.7333 0.0000
vt 0.4250 0.8667
v 1.3500 0.7333 0.0000
vt 0.4500 0.8667
v 1.4250 0.7333 0.0000
vt 0.4750 0.8667
v 1.5000 0.7333 0.0000
vt 0.5000 0.8667
v 1.5750 0.7333 0.0000
vt 0.5250 0.8667
v 1.6500 0.7333 0.0000
vt 0.5500 0.8667
v 1.7250 0.7333 0.0000
vt 0.5750 0.8667
v 1.8000 0.7333 0.0000
vt 0.6000 0.8667
v 1.8750 0.7333 0.0000
vt 0.6250 0.8667
v 1.9500 0.7333 0.0000
vt 0.6500 0.8667
v 2.0250 0.7333 0.0000
vt 0.6750 0.8667
v 2.1000 0.7333 0.0000
vt 0.7000 0.8667
v 2.1750 0.7333 0.0000
vt 0.7250 0.8667
v 2.2500 0.7333 0.0000
vt 0.7500 0.8667
v 2.3250 0.7333 0.0000
vt 0.7750 0.8667
v 2.4000 0.7333 0.0000
vt 0.8000 0.8667
v 2.4750 0.7333 0.0000
vt 0.8250 0.8667
v 2.5500 0.7333 0.0000
vt 0.8500 0.8667
v 2.6250 0.7333 0.0000
vt 0.8750 0.8667
v 2.7000 0.7333 0.0000
vt 0.9000 0.8667
v 2.7750 0.7333 0.0000
vt 0.9250 0.8667
v 2.8500 0.7333 0.0000
vt 0.9500 0.8667
v 2.9250 0.7333 0.0000
vt 0.9750 0.8667
v 3.0000 0.7333 0.0000
vt 1.0000 0.8667
v 0.0000 0.8000 0.0000
vt 0.0000 0.9000
v 0.0750 0.8000 0.0000
vt 0.0250 0.9000
v 0.1500 0.8000 0.0000
vt 0.0500 0.9000
v 0.2250 0.8000 0.0000
vt 0.0750 0.9000
v 0.3000 0.8000 0.0000
vt 0.1000 0.9000
v 0.3750 0.8000 0.0000
vt 0.1250 0.9000
v 0.4500 0.8000 0.0000
vt 0.1500 0.9000
v 0.5250 0.8000 0.0000
vt 0.1750 0.9000
v 0.6000 0.8000 0.0000
vt 0.2000 0.9000
v 0.6750 0.8000 0.0000
vt 0.2250 0.9000
v 0.7500 0.8000 0.0000
vt 0.2500 0.9000
v 0.8250 0.8000 0.0000
vt 0.2750 0.9000
v 0.9000 0.8000 0.0000
vt 0.3000 0.9000
v 0.9750 0.8000 0.0000
vt 0.3250 0.9000
v 1.0500 0.8000 0.0000
vt 0.3500 0.9000
v 1.1250 0.8000 0.0000
vt 0.3750 0.9000
v 1.2000 0.8000 0.0000
vt 0.4000 0.9000
v 1.2750 0.8000 0.0000
vt 0.4250 0.9000
v 1.3500 0.8000 0.0000
vt 0.4500 0.9000
v 1.4250 0.8000 0.0000
vt 0.4750 0.9000
v 1.5000 0.8000 0.0000
vt 0.5000 0.9000
v 1.5750 0.8000 0.0000
vt 0.5250 0.9000
v 1.6500 0.8000 0.0000
vt 0.5500 0.9000
v 1.7250 0.8000 0.0000
vt 0.5750 0.9000
v 1.8000 0.8000 0.0000
vt 0.6000 0.9000
v 1.8750 0.8000 0.0000
vt 0.6250 0.9000
v 1.9500 0.8000 0.0000
vt 0.6500 0.9000
v 2.0250 0.8000 0.0000
vt 0.6750 0.9000
v 2.1000 0.8000 0.0000
vt 0.7000 0.9000
v 2.1750 0.8000 0.0000
vt 0.7250 0.9000
v 2.2500 0.8000 0.0000
vt 0.7500 0.9000
v 2.3250 0.8000 0.0000
vt 0.7750 0.9000
v 2.4000 0.8000 0.0000
vt 0.8000 0.9000
v 2.4750 0.8000 0.0000
vt 0.8250 0.9000
v 2.5500 0.8000 0.0000
vt 0.8500 0.9000
v 2.6250 0.8000 0.0000
vt 0.8750 0.9000
v 2.7000 0.8000 0.0000
vt 0.9000 0.9000
v 2.7750 0.8000 0.0000
vt 0.9250 0.9000
v 2.8500 0.8000 0.0000
vt 0.9500 0.9000
v 2.9250 0.8000 0.0000
vt 0.9750 0.9000
v 3.0000 0.8000 0.0000
vt 1.0000 0.9000
v 0.0000 0.8667 0.0000
vt 0.0000 0.9333
v 0.0750 0.8667 0.0000
vt 0.0250 0.9333
v 0.1500 0.8667 0.0000
vt 0.0500 0.9333
v 0.2250 0.8667 0.0000
vt 0.0750 0.9333
v 0.3000 0.8667 0.0000
vt 0.1000 0.9333
v 0.3750 0.8667 0.0000
vt 0.1250 0.9333
v 0.4500 0.8667 0.0000
vt 0.1500 0.9333
v 0.5250 0.8667 0.0000
vt 0.1750 0.9333
v 0.6000 0.8667 0.0000
vt 0.2000 0.9333
v 0.6750 0.8667 0.0000
vt 0.2250 0.9333
v 0.7500 0.8667 0.0000
vt 0.2500 0.9333
v 0.8250 0.8667 0.0000
vt 0.2750 0.9333
v 0.9000 0.8667 0.0000
vt 0.3000 0.9333
v 0.9750 0.8667 0.0000
vt 0.3250 0.9333
v 1.0500 0.8667 0.0000
vt 0.3500 0.9333
v 1.1250 0.8667 0.0000
vt 0.3750 0.9333
v 1.2000 0.8667 0.0000
vt 0.4000 0.9333
v 1.2750 0.8667 0.0000
vt 0.4250 0.9333
v 1.3500 0.8667 0.0000
vt 0.4500 0.9333
v 1.4250 0.8667 0.0000
vt 0.4750 0.9333
v 1.5000 0.8667 0.0000
vt 0.5000 0.9333
v 1.5750 0.8667 0.0000
vt 0.5250 0.9333
v 1.6500 0.8667 0.0000
vt 0.5500 0.9333
v 1.7250 0.8667 0.0000
vt 0.5750 0.9333
v 1.8000 0.8667 0.0000
vt 0.6000 0.9333
v 1.8750 0.8667 0.0000
vt 0.6250 0.9333
v 1.9500 0.8667 0.0000
vt 0.6500 0.9333
v 2.0250 0.8667 0.0000
vt 0.6750 0.9333
v 2.1000 0.8667 0.0000
vt 0.7000 0.9333
v 2.1750 0.8667 0.0000
vt 0.7250 0.9333
v 2.2500 0.8667 0.0000
vt 0.7500 0.9333
v 2.3250 0.8667 0.0000
vt 0.7750 0.9333
v 2.4000 0.8667 0.0000
vt 0.8000 0.9333
v 2.4750 0.8667 0.0000
vt 0.8250 0.9333
v 2.5500 0.8667 0.0000
vt 0.8500 0.9333
v 2.6250 0.8667 0.0000
vt 0.8750 0.9333
v 2.7000 0.8667 0.0000
vt 0.9000 0.9333
v 2.7750 0.8667 0.0000
vt 0.9250 0.9333
v 2.8500 0.8667 0.0000
vt 0.9500 0.9333
v 2.9250 0.8667 0.0000
vt 0.9750 0.9333
v 3.0000 0.8667 0.0000
vt 1.0000 0.9333
v 0.0000 0.9333 0.0000
vt 0.0000 0.9667
v 0.0750 0.9333 0.0000
vt 0.0250 0.9667
v 0.1500 0.9333 0.0000
vt 0.0500 0.9667
v 0.2250 0.9333 0.0000
vt 0.0750 0.9667
v 0.3000 0.9333 0.0000
vt 0.1000 0.9667
v 0.3750 0.9333 0.0000
vt 0.1250 0.9667
v 0.4500 0.9333 0.0000
vt 0.1500 0.9667
v 0.5250 0.9333 0.0000
vt 0.1750 0.9667
v 0.6000 0.9333 0.0000
vt 0.2000 0.9667
v 0.6750 0.9333 0.0000
vt 0.2250 0.9667
v 0.7500 0.9333 0.0000
vt 0.2500 0.9667
v 0.8250 0.9333 0.0000
vt 0.2750 0.9667
v 0.9000 0.9333 0.0000
vt 0.3000 0.9667
v 0.9750 0.9333 0.0000
vt 0.3250 0.9667
v 1.0500 0.9333 0.0000
vt 0.3500 0.9667
v 1.1250 0.9333 0.0000
vt 0.3750 0.9667
v 1.2000 0.9333 0.0000
vt 0.4000 0.9667
v 1.2750 0.9333 0.0000
vt 0.4250 0.9667
v 1.3500 0.9333 0.0000
vt 0.4500 0.9667
v 1.4250 0.9333 0.0000
vt 0.4750 0.9667
v 1.5000 0.9333 0.0000
vt 0.5000 0.9667
v 1.5750 0.9333 0.0000
vt 0.5250 0.9667
v 1.6500 0.9333 0.0000
vt 0.5500 0.9667
v 1.7250 0.9333 0.0000
vt 0.5750 0.9667
v 1.8000 0.9333 0.0000
vt 0.6000 0.9667
v 1.8750 0.9333 0.0000
vt 0.6250 0.9667
v 1.9500 0.9333 0.0000
vt 0.6500 0.9667
v 2.0250 0.9333 0.0000
vt 0.6750 0.9667
v 2.1000 0.9333 0.0000
vt 0.7000 0.9667
v 2.1750 0.9333 0.0000
vt 0.7250 0.9667
v 2.2500 0.9333 0.0000
vt 0.7500 0.9667
v 2.3250 0.9333 0.0000
vt 0.7750 0.9667
v 2.4000 0.9333 0.0000
vt 0.8000 0.9667
v 2.4750 0.9333 0.0000
vt 0.8250 0.9667
v 2.5500 0.9333 0.0000
vt 0.8500 0.9667
v 2.6250 0.9333 0.0000
vt 0.8750 0.9667
v 2.7000 0.9333 0.0000
vt 0.9000 0.9667
v 2.7750 0.9333 0.0000
vt 0.9250 0.9667
v 2.8500 0.9333 0.0000
vt 0.9500 0.9667
v 2.9250 0.9333 0.0000
vt 0.9750 0.9667
v 3.0000 0.9333 0.0000
vt 1.0000 0.9667
v 0.0000 1.0000 0.0000
vt 0.0000 1.0000
v 0.0750 1.0000 0.0000
vt 0.0250 1.0000
v 0.1500 1.0000 0.0000
vt 0.0500 1.0000
v 0.2250 1.0000 0.0000
vt 0.0750 1.0000
v 0.3000 1.0000 0.0000
vt 0.1000 1.0000
v 0.3750 1.0000 0.0000
vt 0.1250 1.0000
v 0.4500 1.0000 0.0000
vt 0.1500 1.0000
v 0.5250 1.0000 0.0000
vt 0.1750 1.0000
v 0.6000 1.0000 0.0000
vt 0.2000 1.0000
v 0.6750 1.0000 0.0000
vt 0.2250 1.0000
v 0.7500 1.0000 0.0000
vt 0.2500 1.0000
v 0.8250 1.0000 0.0000
vt 0.2750 1.0000
v 0.9000 1.0000 0.0000
vt 0.3000 1.0000
v 0.9750 1.0000 0.0000
vt 0.3250 1.0000
v 1.0500 1.0000 0.0000
vt 0.3500 1.0000
v 1.1250 1.0000 0.0000
vt 0.3750 1.0000
v 1.2000 1.0000 0.0000
vt 0.4000 1.0000
v 1.2750 1.0000 0.0000
vt 0.4250 1.0000
v 1.3500 1.0000 0.0000
vt 0.4500 1.0000
v 1.4250 1.0000 0.0000
vt 0.4750 1.0000
v 1.5000 1.0000 0.0000
vt 0.5000 1.0000
v 1.5750 1.0000 0.0000
vt 0.5250 1.0000
v 1.6500 1.0000 0.0000
vt 0.5500 1.0000
v 1.7250 1.0000 0.0000
vt 0.5750 1.0000
v 1.8000 1.0000 0.0000
vt 0.6000 1.0000
v 1.8750 1.0000 0.0000
vt 0.6250 1.0000
v 1.9500 1.0000 0.0000
vt 0.6500 1.0000
v 2.0250 1.0000 0.0000
vt 0.6750 1.0000
v 2.1000 1.0000 0.0000
vt 0.7000 1.0000
v 2.1750 1.0000 0.0000
vt 0.7250 1.0000
v 2.2500 1.0000 0.0000
vt 0.7500 1.0000
v 2.3250 1.0000 0.0000
vt 0.7750 1.0000
v 2.4000 1.0000 0.0000
vt 0.8000 1.0000
v 2.4750 1.0000 0.0000
vt 0.8250 1.0000
v 2.5500 1.0000 0.0000
vt 0.8500 1.0000
v 2.6250 1.0000 0.0000
vt 0.8750 1.0000
v 2.7000 1.0000 0.0000
vt 0.9000 1.0000
v 2.7750 1.0000 0.0000
vt 0.9250 1.0000
v 2.8500 1.0000 0.0000
vt 0.9500 1.0000
v 2.9250 1.0000 0.0000
vt 0.9750 1.0000
v 3.0000 1.0000 0.0000
vt 1.0000 1.0000
f 1/1 2/2 43/43 42/42
f 2/2 3/3 44/44 43/43
f 3/3 4/4 45/45 44/44
f 4/4 5/5 46/46 45/45
f 5/5 6/6 47/47 46/46
f 6/6 7/7 48/48 47/47
f 7/7 8/8 49/49 48/48
f 8/8 9/9 50/50 49/49
f 9/9 10/10 51/51 50/50
f 10/10 11/11 52/52 51/51
f 11/11 12/12 53/53 52/52
f 12/12 13/13 54/54 53/53
f 13/13 14/14 55/55 54/54
f 14/14 15/15 56/56 55/55
f 15/15 16/16 57/57 56/56
f 16/16 17/17 58/58 57/57
f 17/17 18/18 59/59 58/58
f 18/18 19/19 60/60 59/59
f 19/19 20/20 61/61 60/60
f 20/20 21/21 62/62 61/61
f 21/21 22/22 63/63 62/62
f 22/22 23/23 64/64 63/63
f 23/23 24/24 65/65 64/64
f 24/24 25/25 66/66 65/65
f 25/25 26/26 67/67 66/66
f 26/26 27/27 68/68 67/67
f 27/27 28/28 69/69 68/68
f 28/28 29/29 70/70 69/69
f 29/29 30/30 71/71 70/70
f 30/30 31/31 72/72 71/71
f 31/31 32/32 73/73 72/72
f 32/32 33/33 74/74 73/73
f 33/33 34/34 75/75 74/74
f 34/34 35/35 76/76 75/75
f 35/35 36/36 77/77 76/76
f 36/36 37/37 78/78 77/77
f 37/37 38/38 79/79 78/78
f 38/38 39/39 80/80 79/79
f 39/39 40/40 81/81 80/80
f 40/40 41/41 82/82 81/81
f 42/42 43/43 84/84 83/83
f 43/43 44/44 85/85 84/84
f 44/44 45/45 86/86 85/85
f 45/45 46/46 87/87 86/86
f 46/46 47/47 88/88 87/87
f 47/47 48/48 89/89 88/88
f 48/48 49/49 90/90 89/89
f 49/49 50/50 91/91 90/90
f 50/50 51/51 92/92 91/91
f 51/51 52/52 93/93 92/92
f 52/52 53/53 94/94 93/93
f 53/53 54/54 95/95 94/94
f 54/54 55/55 96/96 95/95
f 55/55 56/56 97/97 96/96
f 56/56 57/57 98/98 97/97
f 57/57 58/58 99/99 98/98
f 58/58 59/59 100/100 99/99
f 59/59 60/60 101/101 100/100
f 60/60 61/61 102/102 101/101
f 61/61 62/62 103/103 102/102
f 62/62 63/63 104/104 103/103
f 63/63 64/64 105/105 104/104
f 64/64 65/65 106/106 105/105
f 65/65 66/66 107/107 106/106
f 66/66 67/67 108/108 107/107
f 67/67 68/68 109/109 108/108
f 68/68 69/69 110/110 109/109
f 69/69 70/70 111/111 110/110
f 70/70 71/71 112/112 111/111
f 71/71 72/72 113/113 112/112
f 72/72 73/73 114/114 113/113
f 73/73 74/74 115/115 114/114
f 74/74 75/75 116/116 115/115
f 75/75 76/76 117/117 116/116
f 76/76 77/77 118/118 117/117
f 77/77 78/78 119/119 118/118
f 78/78 79/79 120/120 119/119
f 79/79 80/80 121/121 120/120
f 80/80 81/81 122/122 121/121
f 81/81 82/82 123/123 122/122
f 83/83 84/84 125/125 124/124
f 84/84 85/85 126/126 125/125
f 85/85 86/86 127/127 126/126
f 86/86 87/87 128/128 127/127
f 87/87 88/88 129/129 128/128
f 88/88 89/89 130/130 129/129
f 89/89 90/90 131/131 130/130
f 90/90 91/91 132/132 131/131
f 91/91 92/92 133/133 132/132
f 92/92 93/93 134/134 133/133
f 93/93 94/94 135/135 134/134
f 94/94 95/95 136/136 135/135
f 95/95 96/96 137/137 136/136
f 96/96 97/97 138/138 137/137
f 97/97 98/98 139/139 138/138
f 98/98 99/99 140/140 139/139
f 99/99 100/100 141/141 140/140
f 100/100 101/101 142/142 141/141
f 101/101 102/102 143/143 142/142
f 102/102 103/103 144/144 143/143
f 103/103 104/104 145/145 144/144
f 104/104 105/105 146/146 145/145
f 105/105 106/106 147/147 146/146
f 106/106 107/107 148/148 147/147
f 107/107 108/108 149/149 148/148
f 108/108 109/109 150/150 149/149
f 109/109 110/110 151/151 150/150
f 110/110 111/111 152/152 151/151
f 111/111 112/112 153/153 152/152
f 112/112 113/113 154/154 153/153
f 113/113 114/114 155/155 154/154
f 114/114 115/115 156/156 155/155
f 115/115 116/116 157/157 156/156
f 116/116 117/117 158/158 157/157
f 117/117 118/118 159/159 158/158
f 118/118 119/119 160/160 159/159
f 119/119 120/120 161/161 160/160
f 120/120 121/121 162/162 161/161
f 121/121 122/122 163/163 162/162
f 122/122 123/123 164/164 163/163
f 124/124 125/125 166/166 165/165
f 125/125 126/126 167/167 166/166
f 126/126 127/127 168/168 167/167
f 127/127 128/128 169/169 168/168
f 128/128 129/129 170/170 169/169
f 129/129 130/130 171/171 170/170
f 130/130 131/131 172/172 171/171
f 131/131 132/132 173/173 172/172
f 132/132 133/133 174/174 173/173
f 133/133 134/134 175/175 174/174
f 134/134 135/135 176/176 175/175
f 135/135 136/136 177/177 176/176
f 136/136 137/137 178/178 177/177
f 137/137 138/138 179/179 178/178
f 138/138 139/139 180/180 179/179
f 139/139 140/140 181/181 180/180
f 140/140 141/141 182/182 181/181
f 141/141 142/142 183/183 182/182
f 142/142 143/143 184/184 183/183
f 143/143 144/144 185/185 184/184
f 144/144 145/145 186/186 185/185
f 145/145 146/146 187/187 186/186
f 146/146 147/147 188/188 187/187
f 147/147 148/148 189/189 188/188
f 148/148 149/149 190/190 189/189
f 149/149 150/150 191/191 190/190
f 150/150 151/151 192/192 191/191
f 151/151 152/152 193/193 192/192
f 152/152 153/153 194/194 193/193
f 153/153 154/154 195/195 194/194
f 154/154 155/155 196/196 195/195
f 155/155 156/156 197/197 196/196
f 156/156 157/157 198/198 197/197
f 157/157 158/158 199/199 198/198
f 158/158 159/159 200/200 199/199
f 159/159 160/160 201/201 200/200
f 160/160 161/161 202/202 201/201
f 161/161 162/162 203/203 202/202
f 162/162 163/163 204/204 203/203
f 163/163 164/164 205/205 204/204
f 165/165 166/166 207/207 206/206
f 166/166 167/167 208/208 207/207
f 167/167 168/168 209/209 208/208
f 168/168 169/169 210/210 209/209
f 169/169 170/170 211/211 210/210
f 170/170 171/171 212/212 211/211
f 171/171 172/172 213/213 212/212
f 172/172 173/173 214/214 213/213
f 173/173 174/174 215/215 214/214
f 174/174 175/175 216/216 215/215
f 175/175 176/176 217/217 216/216
f 176/176 177/177 218/218 217/217
f 177/177 178/178 219/219 218/218
f 178/178 179/179 220/220 219/219
f 179/179 180/180 221/221 220/220
f 180/180 181/181 222/222 221/221
f 181/181 182/182 223/223 222/222
f 182/182 183/183 224/224 223/223
f 183/183 184/184 225/225 224/224
f 184/184 185/185 226/226 225/225
f 185/185 186/186 227/227 226/226
f 186/186 187/187 228/228 227/227
f 187/187 188/188 229/229 228/228
f 188/188 189/189 230/230 229/229
f 189/189 190/190 231/231 230/230
f 190/190 191/191 232/232 231/231
f 191/191 192/192 233/233 232/232
f 192/192 193/193 234/234 233/233
f 193/193 194/194 235/235 234/234
f 194/194 195/195 236/236 235/235
f 195/195 196/196 237/237 236/236
f 196/196 197/197 238/238 237/237
f 197/197 198/198 239/239 238/238
f 198/198 199/199 240/240 239/239
f 199/199 200/200 241/241 240/240
f 200/200 201/201 242/242 241/241
f 201/201 202/202 243/243 242/242
f 202/202 203/203 244/244 243/243
f 203/203 204/204 245/245 244/244
f 204/204 205/205 246/246 245/245
f 206/206 207/207 248/248 247/247
f 207/207 208/208 249/249 248/248
f 208/208 209/209 250/250 249/249
f 209/209 210/210 251/251 250/250
f 210/210 211/211 252/252 251/251
f 211/211 212/212 253/253 252/252
f 212/212 213/213 254/254 253/253
f 213/213 214/214 255/255 254/254
f 214/214 215/215 256/256 255/255
f 215/215 216/216 257/257 256/256
f 216/216 217/217 258/258 257/257
f 217/217 218/218 259/259 258/258
f 218/218 219/219 260/260 259/259
f 219/219 220/220 261/261 260/260
f 220/220 221/221 262/262 261/261
f 221/221 222/222 263/263 262/262
f 222/222 223/223 264/264 263/263
f 223/223 224/224 265/265 264/264
f 224/224 225/225 266/266 265/265
f 225/225 226/226 267/267 266/266
f 226/226 227/227 268/268 267/267
f 227/227 228/228 269/269 268/268
f 228/228 229/229 270/270 269/269
f 229/229 230/230 271/271 270/270
f 230/230 231/231 272/272 271/271
f 231/231 232/232 273/273 272/272
f 232/232 233/233 274/274 273/273
f 233/233 234/234 275/275 274/274
f 234/234 235/235 276/276 275/275
f 235/235 236/236 277/277 276/276
f 236/236 237/237 278/278 277/277
f 237/237 238/238 279/279 278/278
f 238/238 239/239 280/280 279/279
f 239/239 240/240 281/281 280/280
f 240/240 241/241 282/282 281/281
f 241/241 242/242 283/283 282/282
f 242/242 243/243 284/284 283/283
f 243/243 244/244 285/285 284/284
f 244/244 245/245 286/286 285/285
f 245/245 246/246 287/287 286/286
f 247/247 248/248 289/289 288/288
f 248/248 249/249 290/290 289/289
f 249/249 250/250 291/291 290/290
f 250/250 251/251 292/292 291/291
f 251/251 252/252 293/293 292/292
f 252/252 253/253 294/294 293/293
f 253/253 254/254 295/295 294/294
f 254/254 255/255 296/296 295/295
f 255/255 256/256 297/297 296/296
f 256/256 257/257 298/298 297/297
f 257/257 258/258 299/299 298/298
f 258/258 259/259 300/300 299/299
f 259/259 260/260 301/301 300/300
f 260/260 261/261 302/302 301/301
f 261/261 262/262 303/303 302/302
f 262/262 263/263 304/304 303/303
f 263/263 264/264 305/305 304/304
f 264/264 265/265 306/306 305/305
f 265/265 266/266 307/307 306/306
f 266/266 267/267 308/308 307/307
f 267/267 268/268 309/309 308/308
f 268/268 269/269 310/310 309/309
f 269/269 270/270 311/311 310/310
f 270/270 271/271 312/312 311/311
f 271/271 272/272 313/313 312/312
f 272/272 273/273 314/314 313/313
f 273/273 274/274 315/315 314/314
f 274/274 275/275 316/316 315/315
f 275/275 276/276 317/317 316/316
f 276/276 277/277 318/318 317/317
f 277/277 278/278 319/319 318/318
f 278/278 279/279 320/320 319/319
f 279/279 280/280 321/321 320/320
f 280/280 281/281 322/322 321/321
f 281/281 282/282 323/323 322/322
f 282/282 283/283 324/324 323/323
f 283/283 284/284 325/325 324/324
f 284/284 285/285 326/326 325/325
f 285/285 286/286 327/327 326/326
f 286/286 287/287 328/328 327/327
f 288/288 289/289 330/330 329/329
f 289/289 290/290 331/331 330/330
f 290/290 291/291 332/332 331/331
f 291/291 292/292 333/333 332/332
f 292/292 293/293 334/334 333/333
f 293/293 294/294 335/335 334/334
f 294/294 295/295 336/336 335/335
f 295/295 296/296 337/337 336/336
f 296/296 297/297 338/338 337/337
f 297/297 298/298 339/339 338/338
f 298/298 299/299 340/340 339/339
f 299/299 300/300 341/341 340/340
f 300/300 301/301 342/342 341/341
f 301/301 302/302 343/343 342/342
f 302/302 303/303 344/344 343/343
f 303/303 304/304 345/345 344/344
f 304/304 305/305 346/346 345/345
f 305/305 306/306 347/347 346/346
f 306/306 307/307 348/348 347/347
f 307/307 308/308 349/349 348/348
f 308/308 309/309 350/350 349/349
f 309/309 310/310 351/351 350/350
f 310/310 311/311 352/352 351/351
f 311/311 312/312 353/353 352/352
f 312/312 313/313 354/354 353/353
f 313/313 314/314 355/355 354/354
f 314/314 315/315 356/356 355/355
f 315/315 316/316 357/357 356/356
f 316/316 317/317 358/358 357/357
f 317/317 318/318 359/359 358/358
f 318/318 319/319 360/360 359/359
f 319/319 320/320 361/361 360/360
f 320/320 321/321 362/362 361/361
f 321/321 322/322 363/363 362/362
f 322/322 323/323 364/364 363/363
f 323/323 324/324 365/365 364/364
f 324/324 325/325 366/366 365/365
f 325/325 326/326 367/367 366/366
f 326/326 327/327 368/368 367/367
f 327/327 328/328 369/369 368/368
f 329/329 330/330 371/371 370/370
f 330/330 331/331 372/372 371/371
f 331/331 332/332 373/373 372/372
f 332/332 333/333 374/374 373/373
f 333/333 334/334 375/375 374/374
f 334/334 335/335 376/376 375/375
f 335/335 336/336 377/377 376/376
f 336/336 337/337 378/378 377/377
f 337/337 338/338 379/379 378/378
f 338/338 339/339 380/380 379/379
f 339/339 340/340 381/381 380/380
f 340/340 341/341 382/382 381/381
f 341/341 342/342 383/383 382/382
f 342/342 343/343 384/384 383/383
f 343/343 344/344 385/385 384/384
f 344/344 345/345 386/386 385/385
f 345/345 346/346 387/387 386/386
f 346/346 347/347 388/388 387/387
f 347/347 348/348 389/389 388/388
f 348/348 349/349 390/390 389/389
f 349/349 350/350 391/391 390/390
f 350/350 351/351 392/392 391/391
f 351/351 352/352 393/393 392/392
f 352/352 353/353 394/394 393/393
f 353/353 354/354 395/395 394/394
f 354/354 355/355 396/396 395/395
f 355/355 356/356 397/397 396/396
f 356/356 357/357 398/398 397/397
f 357/357 358/358 399/399 398/398
f 358/358 359/359 400/400 399/399
f 359/359 360/360 401/401 400/400
f 360/360 361/361 402/402 401/401
f 361/361 362/362 403/403 402/402
f 362/362 363/363 404/404 403/403
f 363/363 364/364 405/405 404/404
f 364/364 365/365 406/406 405/405
f 365/365 366/366 407/407 406/406
f 366/366 367/367 408/408 407/407
f 367/367 368/368 409/409 408/408
f 368/368 369/369 410/410 409/409
f 370/370 371/371 412/412 411/411
f 371/371 372/372 413/413 412/412
f 372/372 373/373 414/414 413/413
f 373/373 374/374 415/415 414/414
f 374/374 375/375 416/416 415/415
f 375/375 376/376 417/417 416/416
f 376/376 377/377 418/418 417/417
f 377/377 378/378 419/419 418/418
f 378/378 379/379 420/420 419/419
f 379/379 380/380 421/421 420/420
f 380/380 381/381 422/422 421/421
f 381/381 382/382 423/423 422/422
f 382/382 383/383 424/424 423/423
f 383/383 384/384 425/425 424/424
f 384/384 385/385 426/426 425/425
f 385/385 386/386 427/427 426/426
f 386/386 387/387 428/428 427/427
f 387/387 388/388 429/429 428/428
f 388/388 389/389 430/430 429/429
f 389/389 390/390 431/431 430/430
f 390/390 391/391 432/432 431/431
f 391/391 392/392 433/433 432/432
f 392/392 393/393 434/434 433/433
f 393/393 394/394 435/435 434/434
f 394/394 395/395 436/436 435/435
f 395/395 396/396 437/437 436/436
f 396/396 397/397 438/438 437/437
f 397/397 398/398 439/439 438/438
f 398/398 399/399 440/440 439/439
f 399/399 400/400 441/441 440/440
f 400/400 401/401 442/442 441/441
f 401/401 402/402 443/443 442/442
f 402/402 403/403 444/444 443/443
f 403/403 404/404 445/445 444/444
f 404/404 405/405 446/446 445/445
f 405/405 406/406 447/447 446/446
f 406/406 407/407 448/448 447/447
f 407/407 408/408 449/449 448/448
f 408/408 409/409 450/450 449/449
f 409/409 410/410 451/451 450/450
f 411/411 412/412 453/453 452/452
f 412/412 413/413 454/454 453/453
f 413/413 414/414 455/455 454/454
f 414/414 415/415 456/456 455/455
f 415/415 416/416 457/457 456/456
f 416/416 417/417 458/458 457/457
f 417/417 418/418 459/459 458/458
f 418/418 419/419 460/460 459/459
f 419/419 420/420 461/461 460/460
f 420/420 421/421 462/462 461/461
f 421/421 422/422 463/463 462/462
f 422/422 423/423 464/464 463/463
f 423/423 424/424 465/465 464/464
f 424/424 425/425 466/466 465/465
f 425/425 426/426 467/467 466/466
f 426/426 427/427 468/468 467/467
f 427/427 428/428 469/469 468/468
f 428/428 429/429 470/470 469/469
f 429/429 430/430 471/471 470/470
f 430/430 431/431 472/472 471/471
f 431/431 432/432 473/473 472/472
f 432/432 433/433 474/474 473/473
f 433/433 434/434 475/475 474/474
f 434/434 435/435 476/476 475/475
f 435/435 436/436 477/477 476/476
f 436/436 437/437 478/478 477/477
f 437/437 438/438 479/479 478/478
f 438/438 439/439 480/480 479/479
f 439/439 440/440 481/481 480/480
f 440/440 441/441 482/482 481/481
f 441/441 442/442 483/483 482/482
f 442/442 443/443 484/484 483/483
f 443/443 444/444 485/485 484/484
f 444/444 445/445 486/486 485/485
f 445/445 446/446 487/487 486/486
f 446/446 447/447 488/488 487/487
f 447/447 448/448 489/489 488/488
f 448/448 449/449 490/490 489/489
f 449/449 450/450 491/491 490/490
f 450/450 451/451 492/492 491/491
f 452/452 453/453 494/494 493/493
f 453/453 454/454 495/495 494/494
f 454/454 455/455 496/496 495/495
f 455/455 456/456 497/497 496/496
f 456/456 457/457 498/498 497/497
f 457/457 458/458 499/499 498/498
f 458/458 459/459 500/500 499/499
f 459/459 460/460 501/501 500/500
f 460/460 461/461 502/502 501/501
f 461/461 462/462 503/503 502/502
f 462/462 463/463 504/504 503/503
f 463/463 464/464 505/505 504/504
f 464/464 465/465 506/506 505/505
f 465/465 466/466 507/507 506/506
f 466/466 467/467 508/508 507/507
f 467/467 468/468 509/509 508/508
f 468/468 469/469 510/510 509/509
f 469/469 470/470 511/511 510/510
f 470/470 471/471 512/512 511/511
f 471/471 472/472 513/513 512/512
f 472/472 473/473 514/514 513/513
f 473/473 474/474 515/515 514/514
f 474/474 475/475 516/516 515/515
f 475/475 476/476 517/517 516/516
f 476/476 477/477 518/518 517/517
f 477/477 478/478 519/519 518/518
f 478/478 479/479 520/520 519/519
f 479/479 480/480 521/521 520/520
f 480/480 481/481 522/522 521/521
f 481/481 482/482 523/523 522/522
f 482/482 483/483 524/524 523/523
f 483/483 484/484 525/525 524/524
f 484/484 485/485 526/526 525/525
f 485/485 486/486 527/527 526/526
f 486/486 487/487 528/528 527/527
f 487/487 488/488 529/529 528/528
f 488/488 489/489 530/530 529/529
f 489/489 490/490 531/531 530/530
f 490/490 491/491 532/532 531/531
f 491/491 492/492 533/533 532/532
f 493/493 494/494 535/535 534/534
f 494/494 495/495 536/536 535/535
f 495/495 496/496 537/537 536/536
f 496/496 497/497 538/538 537/537
f 497/497 498/498 539/539 538/538
f 498/498 499/499 540/540 539/539
f 499/499 500/500 541/541 540/540
f 500/500 501/501 542/542 541/541
f 501/501 502/502 543/543 542/542
f 502/502 503/503 544/544 543/543
f 503/503 504/504 545/545 544/544
f 504/504 505/505 546/546 545/545
f 505/505 506/506 547/547 546/546
f 506/506 507/507 548/548 547/547
f 507/507 508/508 549/549 548/548
f 508/508 509/509 550/550 549/549
f 509/509 510/510 551/551 550/550
f 510/510 511/511 552/552 551/551
f 511/511 512/512 553/553 552/552
f 512/512 513/513 554/554 553/553
f 513/513 514/514 555/555 554/554
f 514/514 515/515 556/556 555/555
f 515/515 516/516 557/557 556/556
f 516/516 517/517 558/558 557/557
f 517/517 518/518 559/559 558/558
f 518/518 519/519 560/560 559/559
f 519/519 520/520 561/561 560/560
f 520/520 521/521 562/562 561/561
f 521/521 522/522 563/563 562/562
f 522/522 523/523 564/564 563/563
f 523/523 524/524 565/565 564/564
f 524/524 525/525 566/566 565/565
f 525/525 526/526 567/567 566/566
f 526/526 527/527 568/568 567/567
f 527/527 528/528 569/569 568/568
f 528/528 529/529 570/570 569/569
f 529/529 530/530 571/571 570/570
f 530/530 531/531 572/572 571/571
f 531/531 532/532 573/573 572/572
f 532/532 533/533 574/574 573/573
f 534/534 535/535 576/576 575/575
f 535/535 536/536 577/577 576/576
f 536/536 537/537 578/578 577/577
f 537/537 538/538 579/579 578/578
f 538/538 539/539 580/580 579/579
f 539/539 540/540 581/581 580/580
f 540/540 541/541 582/582 581/581
f 541/541 542/542 583/583 582/582
f 542/542 543/543 584/584 583/583
f 543/543 544/544 585/585 584/584
f 544/544 545/545 586/586 585/585
f 545/545 546/546 587/587 586/586
f 546/546 547/547 588/588 587/587
f 547/547 548/548 589/589 588/588
f 548/548 549/549 590/590 589/589
f 549/549 550/550 591/591 590/590
f 550/550 551/551 592/592 591/591
f 551/551 552/552 593/593 592/592
f 552/552 553/553 594/594 593/593
f 553/553 554/554 595/595 594/594
f 554/554 555/555 596/596 595/595
f 555/555 556/556 597/597 596/596
f 556/556 557/557 598/598 597/597
f 557/557 558/558 599/599 598/598
f 558/558 559/559 600/600 599/599
f 559/559 560/560 601/601 600/600
f 560/560 561/561 602/602 601/601
f 561/561 562/562 603/603 602/602
f 562/562 563/563 604/604 603/603
f 563/563 564/564 605/605 604/604
f 564/564 565/565 606/606 605/605
f 565/565 566/566 607/607 606/606
f 566/566 567/567 608/608 607/607
f 567/567 568/568 609/609 608/608
f 568/568 569/569 610/610 609/609
f 569/569 570/570 611/611 610/610
f 570/570 571/571 612/612 611/611
f 571/571 572/572 613/613 612/612
f 572/572 573/573 614/614 613/613
f 573/573 574/574 615/615 614/614
f 575/575 576/576 617/617 616/616
f 576/576 577/577 618/618 617/617
f 577/577 578/578 619/619 618/618
f 578/578 579/579 620/620 619/619
f 579/579 580/580 621/621 620/620
f 580/580 581/581 622/622 621/621
f 581/581 582/582 623/623 622/622
f 582/582 583/583 624/624 623/623
f 583/583 584/584 625/625 624/624
f 584/584 585/585 626/626 625/625
f 585/585 586/586 627/627 626/626
f 586/586 587/587 628/628 627/627
f 587/587 588/588 629/629 628/628
f 588/588 589/589 630/630 629/629
f 589/589 590/590 631/631 630/630
f 590/590 591/591 632/632 631/631
f 591/591 592/592 633/633 632/632
f 592/592 593/593 634/634 633/633
f 593/593 594/594 635/635 634/634
f 594/594 595/595 636/636 635/635
f 595/595 596/596 637/637 636/636
f 596/596 597/597 638/638 637/637
f 597/597 598/598 639/639 638/638
f 598/598 599/599 640/640 639/639
f 599/599 600/600 641/641 640/640
f 600/600 601/601 642/642 641/641
f 601/601 602/602 643/643 642/642
f 602/602 603/603 644/644 643/643
f 603/603 604/604 645/645 644/644
f 604/604 605/605 646/646 645/645
f 605/605 606/606 647/647 646/646
f 606/606 607/607 648/648 647/647
f 607/607 608/608 649/649 648/648
f 608/608 609/609 650/650 649/649
f 609/609 610/610 651/651 650/650
f 610/610 611/611 652/652 651/651
f 611/611 612/612 653/653 652/652
f 612/612 613/613 654/654 653/653
f 613/613 614/614 655/655 654/654
f 614/614 615/615 656/656 655/655
f 616/616 617/617 658/658 657/657
f 617/617 618/618 659/659 658/658
f 618/618 619/619 660/660 659/659
f 619/619 620/620 661/661 660/660
f 620/620 621/621 662/662 661/661
f 621/621 622/622 663/663 662/662
f 622/622 623/623 664/664 663/663
f 623/623 624/624 665/665 664/664
f 624/624 625/625 666/666 665/665
f 625/625 626/626 667/667 666/666
f 626/626 627/627 668/668 667/667
f 627/627 628/628 669/669 668/668
f 628/628 629/629 670/670 669/669
f 629/629 630/630 671/671 670/670
f 630/630 631/631 672/672 671/671
f 631/631 632/632 673/673 672/672
f 632/632 633/633 674/674 673/673
f 633/633 634/634 675/675 674/674
f 634/634 635/635 676/676 675/675
f 635/635 636/636 677/677 676/676
f 636/636 637/637 678/678 677/677
f 637/637 638/638 679/679 678/678
f 638/638 639/639 680/680 679/679
f 639/639 640/640 681/681 680/680
f 640/640 641/641 682/682 681/681
f 641/641 642/642 683/683 682/682
f 642/642 643/643 684/684 683/683
f 643/643 644/644 685/685 684/684
f 644/644 645/645 686/686 685/685
f 645/645 646/646 687/687 686/686
f 646/646 647/647 688/688 687/687
f 647/647 648/648 689/689 688/688
f 648/648 649/649 690/690 689/689
f 649/649 650/650 691/691 690/690
f 650/650 651/651 692/692 691/691
f 651/651 652/652 693/693 692/692
f 652/652 653/653 694/694 693/693
f 653/653 654/654 695/695 694/694
f 654/654 655/655 696/696 695/695
f 655/655 656/656 697/697 696/696
f 657/657 658/658 699/699 698/698
f 658/658 659/659 700/700 699/699
f 659/659 660/660 701/701 700/700
f 660/660 661/661 702/702 701/701
f 661/661 662/662 703/703 702/702
f 662/662 663/663 704/704 703/703
f 663/663 664/664 705/705 704/704
f 664/664 665/665 706/706 705/705
f 665/665 666/666 707/707 706/706
f 666/666 667/667 708/708 707/707
f 667/667 668/668 709/709 708/708
f 668/668 669/669 710/710 709/709
f 669/669 670/670 711/711 710/710
f 670/670 671/671 712/712 711/711
f 671/671 672/672 713/713 712/712
f 672/672 673/673 714/714 713/713
f 673/673 674/674 715/715 714/714
f 674/674 675/675 716/716 715/715
f 675/675 676/676 717/717 716/716
f 676/676 677/677 718/718 717/717
f 677/677 678/678 719/719 718/718
f 678/678 679/679 720/720 719/719
f 679/679 680/680 721/721 720/720
f 680/680 681/681 722/722 721/721
f 681/681 682/682 723/723 722/722
f 682/682 683/683 724/724 723/723
f 683/683 684/684 725/725 724/724
f 684/684 685/685 726/726 725/725
f 685/685 686/686 727/727 726/726
f 686/686 687/687 728/728 727/727
f 687/687 688/688 729/729 728/728
f 688/688 689/689 730/730 729/729
f 689/689 690/690 731/731 730/730
f 690/690 691/691 732/732 731/731
f 691/691 692/692 733/733 732/732
f 692/692 693/693 734/734 733/733
f 693/693 694/694 735/735 734/734
f 694/694 695/695 736/736 735/735
f 695/695 696/696 737/737 736/736
f 696/696 697/697 738/738 737/737
f 698/698 699/699 740/740 739/739
f 699/699 700/700 741/741 740/740
f 700/700 701/701 742/742 741/741
f 701/701 702/702 743/743 742/742
f 702/702 703/703 744/744 743/743
f 703/703 704/704 745/745 744/744
f 704/704 705/705 746/746 745/745
f 705/705 706/706 747/747 746/746
f 706/706 707/707 748/748 747/747
f 707/707 708/708 749/749 748/748
f 708/708 709/709 750/750 749/749
f 709/709 710/710 751/751 750/750
f 710/710 711/711 752/752 751/751
f 711/711 712/712 753/753 752/752
f 712/712 713/713 754/754 753/753
f 713/713 714/714 755/755 754/754
f 714/714 715/715 756/756 755/755
f 715/715 716/716 757/757 756/756
f 716/716 717/717 758/758 757/757
f 717/717 718/718 759/759 758/758
f 718/718 719/719 760/760 759/759
f 719/719 720/720 761/761 760/760
f 720/720 721/721 762/762 761/761
f 721/721 722/722 763/763 762/762
f 722/722 723/723 764/764 763/763
f 723/723 724/724 765/765 764/764
f 724/724 725/725 766/766 765/765
f 725/725 726/726 767/767 766/766
f 726/726 727/727 768/768 767/767
f 727/727 728/728 769/769 768/768
f 728/728 729/729 770/770 769/769
f 729/729 730/730 771/771 770/770
f 730/730 731/731 772/772 771/771
f 731/731 732/732 773/773 772/772
f 732/732 733/733 774/774 773/773
f 733/733 734/734 775/775 774/774
f 734/734 735/735 776/776 775/775
f 735/735 736/736 777/777 776/776
f 736/736 737/737 778/778 777/777
f 737/737 738/738 779/779 778/778
f 739/739 740/740 781/781 780/780
f 740/740 741/741 782/782 781/781
f 741/741 742/742 783/783 782/782
f 742/742 743/743 784/784 783/783
f 743/743 744/744 785/785 784/784
f 744/744 745/745 786/786 785/785
f 745/745 746/746 787/787 786/786
f 746/746 747/747 788/788 787/787
f 747/747 748/748 789/789 788/788
f 748/748 749/749 790/790 789/789
f 749/749 750/750 791/791 790/790
f 750/750 751/751 792/792 791/791
f 751/751 752/752 793/793 792/792
f 752/752 753/753 794/794 793/793
f 753/753 754/754 795/795 794/794
f 754/754 755/755 796/796 795/795
f 755/755 756/756 797/797 796/796
f 756/756 757/757 798/798 797/797
f 757/757 758/758 799/799 798/798
f 758/758 759/759 800/800 799/799
f 759/759 760/760 801/801 800/800
f 760/760 761/761 802/802 801/801
f 761/761 762/762 803/803 802/802
f 762/762 763/763 804/804 803/803
f 763/763 764/764 805/805 804/804
f 764/764 765/765 806/806 805/805
f 765/765 766/766 807/807 806/806
f 766/766 767/767 808/808 807/807
f 767/767 768/768 809/809 808/808
f 768/768 769/769 810/810 809/809
f 769/769 770/770 811/811 810/810
f 770/770 771/771 812/812 811/811
f 771/771 772/772 813/813 812/812
f 772/772 773/773 814/814 813/813
f 773/773 774/774 815/815 814/814
f 774/774 775/775 816/816 815/815
f 775/775 776/776 817/817 816/816
f 776/776 777/777 818/818 817/817
f 777/777 778/778 819/819 818/818
f 778/778 779/779 820/820 819/819
f 780/780 781/781 822/822 821/821
f 781/781 782/782 823/823 822/822
f 782/782 783/783 824/824 823/823
f 783/783 784/784 825/825 824/824
f 784/784 785/785 826/826 825/825
f 785/785 786/786 827/827 826/826
f 786/786 787/787 828/828 827/827
f 787/787 788/788 829/829 828/828
f 788/788 789/789 830/830 829/829
f 789/789 790/790 831/831 830/830
f 790/790 791/791 832/832 831/831
f 791/791 792/792 833/833 832/832
f 792/792 793/793 834/834 833/833
f 793/793 794/794 835/835 834/834
f 794/794 795/795 836/836 835/835
f 795/795 796/796 837/837 836/836
f 796/796 797/797 838/838 837/837
f 797/797 798/798 839/839 838/838
f 798/798 799/799 840/840 839/839
f 799/799 800/800 841/841 840/840
f 800/800 801/801 842/842 841/841
f 801/801 802/802 843/843 842/842
f 802/802 803/803 844/844 843/843
f 803/803 804/804 845/845 844/844
f 804/804 805/805 846/846 845/845
f 805/805 806/806 847/847 846/846
f 806/806 807/807 848/848 847/847
f 807/807 808/808 849/849 848/848
f 808/808 809/809 850/850 849/849
f 809/809 810/810 851/851 850/850
f 810/810 811/811 852/852 851/851
f 811/811 812/812 853/853 852/852
f 812/812 813/813 854/854 853/853
f 813/813 814/814 855/855 854/854
f 814/814 815/815 856/856 855/855
f 815/815 816/816 857/857 856/856
f 816/816 817/817 858/858 857/857
f 817/817 818/818 859/859 858/858
f 818/818 819/819 860/860 859/859
f 819/819 820/820 861/861 860/860
f 821/821 822/822 863/863 862/862
f 822/822 823/823 864/864 863/863
f 823/823 824/824 865/865 864/864
f 824/824 825/825 866/866 865/865
f 825/825 826/826 867/867 866/866
f 826/826 827/827 868/868 867/867
f 827/827 828/828 869/869 868/868
f 828/828 829/829 870/870 869/869
f 829/829 830/830 871/871 870/870
f 830/830 831/831 872/872 871/871
f 831/831 832/832 873/873 872/872
f 832/832 833/833 874/874 873/873
f 833/833 834/834 875/875 874/874
f 834/834 835/835 876/876 875/875
f 835/835 836/836 877/877 876/876
f 836/836 837/837 878/878 877/877
f 837/837 838/838 879/879 878/878
f 838/838 839/839 880/880 879/879
f 839/839 840/840 881/881 880/880
f 840/840 841/841 882/882 881/881
f 841/841 842/842 883/883 882/882
f 842/842 843/843 884/884 883/883
f 843/843 844/844 885/885 884/884
f 844/844 845/845 886/886 885/885
f 845/845 846/846 887/887 886/886
f 846/846 847/847 888/888 887/887
f 847/847 848/848 889/889 888/888
f 848/848 849/849 890/890 889/889
f 849/849 850/850 891/891 890/890
f 850/850 851/851 892/892 891/891
f 851/851 852/852 893/893 892/892
f 852/852 853/853 894/894 893/893
f 853/853 854/854 895/895 894/894
f 854/854 855/855 896/896 895/895
f 855/855 856/856 897/897 896/896
f 856/856 857/857 898/898 897/897
f 857/857 858/858 899/899 898/898
f 858/858 859/859 900/900 899/899
f 859/859 860/860 901/901 900/900
f 860/860 861/861 902/902 901/901
f 862/862 863/863 904/904 903/903
f 863/863 864/864 905/905 904/904
f 864/864 865/865 906/906 905/905
f 865/865 866/866 907/907 906/906
f 866/866 867/867 908/908 907/907
f 867/867 868/868 909/909 908/908
f 868/868 869/869 910/910 909/909
f 869/869 870/870 911/911 910/910
f 870/870 871/871 912/912 911/911
f 871/871 872/872 913/913 912/912
f 872/872 873/873 914/914 913/913
f 873/873 874/874 915/915 914/914
f 874/874 875/875 916/916 915/915
f 875/875 876/876 917/917 916/916
f 876/876 877/877 918/918 917/917
f 877/877 878/878 919/919 918/918
f 878/878 879/879 920/920 919/919
f 879/879 880/880 921/921 920/920
f 880/880 881/881 922/922 921/921
f 881/881 882/882 923/923 922/922
f 882/882 883/883 924/924 923/923
f 883/883 884/884 925/925 924/924
f 884/884 885/885 926/926 925/925
f 885/885 886/886 927/927 926/926
f 886/886 887/887 928/928 927/927
f 887/887 888/888 929/929 928/928
f 888/888 889/889 930/930 929/929
f 889/889 890/890 931/931 930/930
f 890/890 891/891 932/932 931/931
f 891/891 892/892 933/933 932/932
f 892/892 893/893 934/934 933/933
f 893/893 894/894 935/935 934/934
f 894/894 895/895 936/936 935/935
f 895/895 896/896 937/937 936/936
f 896/896 897/897 938/938 937/937
f 897/897 898/898 939/939 938/938
f 898/898 899/899 940/940 939/939
f 899/899 900/900 941/941 940/940
f 900/900 901/901 942/942 941/941
f 901/901 902/902 943/943 942/942
f 903/903 904/904 945/945 944/944
f 904/904 905/905 946/946 945/945
f 905/905 906/906 947/947 946/946
f 906/906 907/907 948/948 947/947
f 907/907 908/908 949/949 948/948
f 908/908 909/909 950/950 949/949
f 909/909 910/910 951/951 950/950
f 910/910 911/911 952/952 951/951
f 911/911 912/912 953/953 952/952
f 912/912 913/913 954/954 953/953
f 913/913 914/914 955/955 954/954
f 914/914 915/915 956/956 955/955
f 915/915 916/916 957/957 956/956
f 916/916 917/917 958/958 957/957
f 917/917 918/918 959/959 958/958
f 918/918 919/919 960/960 959/959
f 919/919 920/920 961/961 960/960
f 920/920 921/921 962/962 961/961
f 921/921 922/922 963/963 962/962
f 922/922 923/923 964/964 963/963
f 923/923 924/924 965/965 964/964
f 924/924 925/925 966/966 965/965
f 925/925 926/926 967/967 966/966
f 926/926 927/927 968/968 967/967
f 927/927 928/928 969/969 968/968
f 928/928 929/929 970/970 969/969
f 929/929 930/930 971/971 970/970
f 930/930 931/931 972/972 971/971
f 931/931 932/932 973/973 972/972
f 932/932 933/933 974/974 973/973
f 933/933 934/934 975/975 974/974
f 934/934 935/935 976/976 975/975
f 935/935 936/936 977/977 976/976
f 936/936 937/937 978/978 977/977
f 937/937 938/938 979/979 978/978
f 938/938 939/939 980/980 979/979
f 939/939 940/940 981/981 980/980
f 940/940 941/941 982/982 981/981
f 941/941 942/942 983/983 982/982
f 942/942 943/943 984/984 983/983
f 944/944 945/945 986/986 985/985
f 945/945 946/946 987/987 986/986
f 946/946 947/947 988/988 987/987
f 947/947 948/948 989/989 988/988
f 948/948 949/949 990/990 989/989
f 949/949 950/950 991/991 990/990
f 950/950 951/951 992/992 991/991
f 951/951 952/952 993/993 992/992
f 952/952 953/953 994/994 993/993
f 953/953 954/954 995/995 994/994
f 954/954 955/955 996/996 995/995
f 955/955 956/956 997/997 996/996
f 956/956 957/957 998/998 997/997
f 957/957 958/958 999/999 998/998
f 958/958 959/959 1000/1000 999/999
f 959/959 960/960 1001/1001 1000/1000
f 960/960 961/961 1002/1002 1001/1001
f 961/961 962/962 1003/1003 1002/1002
f 962/962 963/963 1004/1004 1003/1003
f 963/963 964/964 1005/1005 1004/1004
f 964/964 965/965 1006/1006 1005/1005
f 965/965 966/966 1007/1007 1006/1006
f 966/966 967/967 1008/1008 1007/1007
f 967/967 968/968 1009/1009 1008/1008
f 968/968 969/969 1010/1010 1009/1009
f 969/969 970/970 1011/1011 1010/1010
f 970/970 971/971 1012/1012 1011/1011
f 971/971 972/972 1013/1013 1012/1012
f 972/972 973/973 1014/1014 1013/1013
f 973/973 974/974 1015/1015 1014/1014
f 974/974 975/975 1016/1016 1015/1015
f 975/975 976/976 1017/1017 1016/1016
f 976/976 977/977 1018/1018 1017/1017
f 977/977 978/978 1019/1019 1018/1018
f 978/978 979/979 1020/1020 1019/1019
f 979/979 980/980 1021/1021 1020/1020
f 980/980 981/981 1022/1022 1021/1021
f 981/981 982/982 1023/1023 1022/1022
f 982/982 983/983 1024/1024 1023/1023
f 983/983 984/984 1025/1025 1024/1024
f 985/985 986/986 1027/1027 1026/1026
f 986/986 987/987 1028/1028 1027/1027
f 987/987 988/988 1029/1029 1028/1028
f 988/988 989/989 1030/1030 1029/1029
f 989/989 990/990 1031/1031 1030/1030
f 990/990 991/991 1032/1032 1031/1031
f 991/991 992/992 1033/1033 1032/1032
f 992/992 993/993 1034/1034 1033/1033
f 993/993 994/994 1035/1035 1034/1034
f 994/994 995/995 1036/1036 1035/1035
f 995/995 996/996 1037/1037 1036/1036
f 996/996 997/997 1038/1038 1037/1037
f 997/997 998/998 1039/1039 1038/1038
f 998/998 999/999 1040/1040 1039/1039
f 999/999 1000/1000 1041/1041 1040/1040
f 1000/1000 1001/1001 1042/1042 1041/1041
f 1001/1001 1002/1002 1043/1043 1042/1042
f 1002/1002 1003/1003 1044/1044 1043/1043
f 1003/1003 1004/1004 1045/1045 1044/1044
f 1004/1004 1005/1005 1046/1046 1045/1045
f 1005/1005 1006/1006 1047/1047 1046/1046
f 1006/1006 1007/1007 1048/1048 1047/1047
f 1007/1007 1008/1008 1049/1049 1048/1048
f 1008/1008 1009/1009 1050/1050 1049/1049
f 1009/1009 1010/1010 1051/1051 1050/1050
f 1010/1010 1011/1011 1052/1052 1051/1051
f 1011/1011 1012/1012 1053/1053 1052/1052
f 1012/1012 1013/1013 1054/1054 1053/1053
f 1013/1013 1014/1014 1055/1055 1054/1054
f 1014/1014 1015/1015 1056/1056 1055/1055
f 1015/1015 1016/1016 1057/1057 1056/1056
f 1016/1016 1017/1017 1058/1058 1057/1057
f 1017/1017 1018/1018 1059/1059 1058/1058
f 1018/1018 1019/1019 1060/1060 1059/1059
f 1019/1019 1020/1020 1061/1061 1060/1060
f 1020/1020 1021/1021 1062/1062 1061/1061
f 1021/1021 1022/1022 1063/1063 1062/1062
f 1022/1022 1023/1023 1064/1064 1063/1063
f 1023/1023 1024/1024 1065/1065 1064/1064
f 1024/1024 1025/1025 1066/1066 1065/1065
f 1026/1026 1027/1027 1068/1068 1067/1067
f 1027/1027 1028/1028 1069/1069 1068/1068
f 1028/1028 1029/1029 1070/1070 1069/1069
f 1029/1029 1030/1030 1071/1071 1070/1070
f 1030/1030 1031/1031 1072/1072 1071/1071
f 1031/1031 1032/1032 1073/1073 1072/1072
f 1032/1032 1033/1033 1074/1074 1073/1073
f 1033/1033 1034/1034 1075/1075 1074/1074
f 1034/1034 1035/1035 1076/1076 1075/1075
f 1035/1035 1036/1036 1077/1077 1076/1076
f 1036/1036 1037/1037 1078/1078 1077/1077
f 1037/1037 1038/1038 1079/1079 1078/1078
f 1038/1038 1039/1039 1080/1080 1079/1079
f 1039/1039 1040/1040 1081/1081 1080/1080
f 1040/1040 1041/1041 1082/1082 1081/1081
f 1041/1041 1042/1042 1083/1083 1082/1082
f 1042/1042 1043/1043 1084/1084 1083/1083
f 1043/1043 1044/1044 1085/1085 1084/1084
f 1044/1044 1045/1045 1086/1086 1085/1085
f 1045/1045 1046/1046 1087/1087 1086/1086
f 1046/1046 1047/1047 1088/1088 1087/1087
f 1047/1047 1048/1048 1089/1089 1088/1088
f 1048/1048 1049/1049 1090/1090 1089/1089
f 1049/1049 1050/1050 1091/1091 1090/1090
f 1050/1050 1051/1051 1092/1092 1091/1091
f 1051/1051 1052/1052 1093/1093 1092/1092
f 1052/1052 1053/1053 1094/1094 1093/1093
f 1053/1053 1054/1054 1095/1095 1094/1094
f 1054/1054 1055/1055 1096/1096 1095/1095
f 1055/1055 1056/1056 1097/1097 1096/1096
f 1056/1056 1057/1057 1098/1098 1097/1097
f 1057/1057 1058/1058 1099/1099 1098/1098
f 1058/1058 1059/1059 1100/1100 1099/1099
f 1059/1059 1060/1060 1101/1101 1100/1100
f 1060/1060 1061/1061 1102/1102 1101/1101
f 1061/1061 1062/1062 1103/1103 1102/1102
f 1062/1062 1063/1063 1104/1104 1103/1103
f 1063/1063 1064/1064 1105/1105 1104/1104
f 1064/1064 1065/1065 1106/1106 1105/1105
f 1065/1065 1066/1066 1107/1107 1106/1106
f 1067/1067 1068/1068 1109/1109 1108/1108
f 1068/1068 1069/1069 1110/1110 1109/1109
f 1069/1069 1070/1070 1111/1111 1110/1110
f 1070/1070 1071/1071 1112/1112 1111/1111
f 1071/1071 1072/1072 1113/1113 1112/1112
f 1072/1072 1073/1073 1114/1114 1113/1113
f 1073/1073 1074/1074 1115/1115 1114/1114
f 1074/1074 1075/1075 1116/1116 1115/1115
f 1075/1075 1076/1076 1117/1117 1116/1116
f 1076/1076 1077/1077 1118/1118 1117/1117
f 1077/1077 1078/1078 1119/1119 1118/1118
f 1078/1078 1079/1079 1120/1120 1119/1119
f 1079/1079 1080/1080 1121/1121 1120/1120
f 1080/1080 1081/1081 1122/1122 1121/1121
f 1081/1081 1082/1082 1123/1123 1122/1122
f 1082/1082 1083/1083 1124/1124 1123/1123
f 1083/1083 1084/1084 1125/1125 1124/1124
f 1084/1084 1085/1085 1126/1126 1125/1125
f 1085/1085 1086/1086 1127/1127 1126/1126
f 1086/1086 1087/1087 1128/1128 1127/1127
f 1087/1087 1088/1088 1129/1129 1128/1128
f 1088/1088 1089/1089 1130/1130 1129/1129
f 1089/1089 1090/1090 1131/1131 1130/1130
f 1090/1090 1091/1091 1132/1132 1131/1131
f 1091/1091 1092/1092 1133/1133 1132/1132
f 1092/1092 1093/1093 1134/1134 1133/1133
f 1093/1093 1094/1094 1135/1135 1134/1134
f 1094/1094 1095/1095 1136/1136 1135/1135
f 1095/1095 1096/1096 1137/1137 1136/1136
f 1096/1096 1097/1097 1138/1138 1137/1137
f 1097/1097 1098/1098 1139/1139 1138/1138
f 1098/1098 1099/1099 1140/1140 1139/1139
f 1099/1099 1100/1100 1141/1141 1140/1140
f 1100/1100 1101/1101 1142/1142 1141/1141
f 1101/1101 1102/1102 1143/1143 1142/1142
f 1102/1102 1103/1103 1144/1144 1143/1143
f 1103/1103 1104/1104 1145/1145 1144/1144
f 1104/1104 1105/1105 1146/1146 1145/1145
f 1105/1105 1106/1106 1147/1147 1146/1146
f 1106/1106 1107/1107 1148/1148 1147/1147
f 1108/1108 1109/1109 1150/1150 1149/1149
f 1109/1109 1110/1110 1151/1151 1150/1150
f 1110/1110 1111/1111 1152/1152 1151/1151
f 1111/1111 1112/1112 1153/1153 1152/1152
f 1112/1112 1113/1113 1154/1154 1153/1153
f 1113/1113 1114/1114 1155/1155 1154/1154
f 1114/1114 1115/1115 1156/1156 1155/1155
f 1115/1115 1116/1116 1157/1157 1156/1156
f 1116/1116 1117/1117 1158/1158 1157/1157
f 1117/1117 1118/1118 1159/1159 1158/1158
f 1118/1118 1119/1119 1160/1160 1159/1159
f 1119/1119 1120/1120 1161/1161 1160/1160
f 1120/1120 1121/1121 1162/1162 1161/1161
f 1121/1121 1122/1122 1163/1163 1162/1162
f 1122/1122 1123/1123 1164/1164 1163/1163
f 1123/1123 1124/1124 1165/1165 1164/1164
f 1124/1124 1125/1125 1166/1166 1165/1165
f 1125/1125 1126/1126 1167/1167 1166/1166
f 1126/1126 1127/1127 1168/1168 1167/1167
f 1127/1127 1128/1128 1169/1169 1168/1168
f 1128/1128 1129/1129 1170/1170 1169/1169
f 1129/1129 1130/1130 1171/1171 1170/1170
f 1130/1130 1131/1131 1172/1172 1171/1171
f 1131/1131 1132/1132 1173/1173 1172/1172
f 1132/1132 1133/1133 1174/1174 1173/1173
f 1133/1133 1134/1134 1175/1175 1174/1174
f 1134/1134 1135/1135 1176/1176 1175/1175
f 1135/1135 1136/1136 1177/1177 1176/1176
f 1136/1136 1137/1137 1178/1178 1177/1177
f 1137/1137 1138/1138 1179/1179 1178/1178
f 1138/1138 1139/1139 1180/1180 1179/1179
f 1139/1139 1140/1140 1181/1181 1180/1180
f 1140/1140 1141/1141 1182/1182 1181/1181
f 1141/1141 1142/1142 1183/1183 1182/1182
f 1142/1142 1143/1143 1184/1184 1183/1183
f 1143/1143 1144/1144 1185/1185 1184/1184
f 1144/1144 1145/1145 1186/1186 1185/1185
f 1145/1145 1146/1146 1187/1187 1186/1186
f 1146/1146 1147/1147 1188/1188 1187/1187
f 1147/1147 1148/1148 1189/1189 1188/1188
f 1149/1149 1150/1150 1191/1191 1190/1190
f 1150/1150 1151/1151 1192/1192 1191/1191
f 1151/1151 1152/1152 1193/1193 1192/1192
f 1152/1152 1153/1153 1194/1194 1193/1193
f 1153/1153 1154/1154 1195/1195 1194/1194
f 1154/1154 1155/1155 1196/1196 1195/1195
f 1155/1155 1156/1156 1197/1197 1196/1196
f 1156/1156 1157/1157 1198/1198 1197/1197
f 1157/1157 1158/1158 1199/1199 1198/1198
f 1158/1158 1159/1159 1200/1200 1199/1199
f 1159/1159 1160/1160 1201/1201 1200/1200
f 1160/1160 1161/1161 1202/1202 1201/1201
f 1161/1161 1162/1162 1203/1203 1202/1202
f 1162/1162 1163/1163 1204/1204 1203/1203
f 1163/1163 1164/1164 1205/1205 1204/1204
f 1164/1164 1165/1165 1206/1206 1205/1205
f 1165/1165 1166/1166 1207/1207 1206/1206
f 1166/1166 1167/1167 1208/1208 1207/1207
f 1167/1167 1168/1168 1209/1209 1208/1208
f 1168/1168 1169/1169 1210/1210 1209/1209
f 1169/1169 1170/1170 1211/1211 1210/1210
f 1170/1170 1171/1171 1212/1212 1211/1211
f 1171/1171 1172/1172 1213/1213 1212/1212
f 1172/1172 1173/1173 1214/1214 1213/1213
f 1173/1173 1174/1174 1215/1215 1214/1214
f 1174/1174 1175/1175 1216/1216 1215/1215
f 1175/1175 1176/1176 1217/1217 1216/1216
f 1176/1176 1177/1177 1218/1218 1217/1217
f 1177/1177 1178/1178 1219/1219 1218/1218
f 1178/1178 1179/1179 1220/1220 1219/1219
f 1179/1179 1180/1180 1221/1221 1220/1220
f 1180/1180 1181/1181 1222/1222 1221/1221
f 1181/1181 1182/1182 1223/1223 1222/1222
f 1182/1182 1183/1183 1224/1224 1223/1223
f 1183/1183 1184/1184 1225/1225 1224/1224
f 1184/1184 1185/1185 1226/1226 1225/1225
f 1185/1185 1186/1186 1227/1227 1226/1226
f 1186/1186 1187/1187 1228/1228 1227/1227
f 1187/1187 1188/1188 1229/1229 1228/1228
f 1188/1188 1189/1189 1230/1230 1229/1229
f 1190/1190 1191/1191 1232/1232 1231/1231
f 1191/1191 1192/1192 1233/1233 1232/1232
f 1192/1192 1193/1193 1234/1234 1233/1233
f 1193/1193 1194/1194 1235/1235 1234/1234
f 1194/1194 1195/1195 1236/1236 1235/1235
f 1195/1195 1196/1196 1237/1237 1236/1236
f 1196/1196 1197/1197 1238/1238 1237/1237
f 1197/1197 1198/1198 1239/1239 1238/1238
f 1198/1198 1199/1199 1240/1240 1239/1239
f 1199/1199 1200/1200 1241/1241 1240/1240
f 1200/1200 1201/1201 1242/1242 1241/1241
f 1201/1201 1202/1202 1243/1243 1242/1242
f 1202/1202 1203/1203 1244/1244 1243/1243
f 1203/1203 1204/1204 1245/1245 1244/1244
f 1204/1204 1205/1205 1246/1246 1245/1245
f 1205/1205 1206/1206 1247/1247 1246/1246
f 1206/1206 1207/1207 1248/1248 1247/1247
f 1207/1207 1208/1208 1249/1249 1248/1248
f 1208/1208 1209/1209 1250/1250 1249/1249
f 1209/1209 1210/1210 1251/1251 1250/1250
f 1210/1210 1211/1211 1252/1252 1251/1251
f 1211/1211 1212/1212 1253/1253 1252/1252
f 1212/1212 1213/1213 1254/1254 1253/1253
f 1213/1213 1214/1214 1255/1255 1254/1254
f 1214/1214 1215/1215 1256/1256 1255/1255
f 1215/1215 1216/1216 1257/1257 1256/1256
f 1216/1216 1217/1217 1258/1258 1257/1257
f 1217/1217 1218/1218 1259/1259 1258/1258
f 1218/1218 1219/1219 1260/1260 1259/1259
f 1219/1219 1220/1220 1261/1261 1260/1260
f 1220/1220 1221/1221 1262/1262 1261/1261
f 1221/1221 1222/1222 1263/1263 1262/1262
f 1222/1222 1223/1223 1264/1264 1263/1263
f 1223/1223 1224/1224 1265/1265 1264/1264
f 1224/1224 1225/1225 1266/1266 1265/1265
f 1225/1225 1226/1226 1267/1267 1266/1266
f 1226/1226 1227/1227 1268/1268 1267/1267
f 1227/1227 1228/1228 1269/1269 1268/1268
f 1228/1228 1229/1229 1270/1270 1269/1269
f 1229/1229 1230/1230 1271/1271 1270/1270
