# Aspose.3D Wavefront OBJ Exporter
# Copyright 2004-2025 Aspose Pty Ltd.
# File created: 06/05/2025 10:46:06

mtllib material.lib
g BookOpen_LP

#
# object BookOpen_LP
#

v -17.049557 0.71086574 24.618608
v 16.68745 0.71086574 24.618608
v -17.049557 0.15440857 -24.268402
v 16.68745 0.15440857 -24.268402
v -17.049557 1.1384163 24.61861
v 16.68745 1.1384163 24.61861
v -17.049557 0.6773882 -24.268402
v 16.68745 0.6773882 -24.2684
v -17.049557 0.19812739 -19.744404
v 16.68745 0.19812739 -19.744404
v -16.668543 3.301053 -19.744402
v -17.049557 0.27157384 -14.801273
v 16.68745 0.27157384 -14.801273
v 16.245584 3.4538465 -14.801271
v -16.668543 3.4538465 -14.801271
v -17.049557 0.33884114 -9.934185
v 16.68745 0.33884114 -9.934185
v -16.668543 4.18445 -9.934183
v -17.049557 0.406954 -4.80093
v 16.68745 0.406954 -4.80093
v 16.245584 4.8227167 -4.8009276
v -16.668543 4.8227167 -4.800927
v 16.68745 5.1828338E-17 -0.846421
v 16.245584 3.415824 -0.84641844
v -17.049557 6.0555985E-19 -0.009889543
v 16.68745 6.0555985E-19 -0.009889543
v 16.245584 1.6567135 -0.009887099
v -16.668543 1.6567135 -0.009887069
v -17.049557 0.30557555 4.020666
v 16.68745 0.30557555 4.020666
v 16.245584 5.403507 4.020669
v -16.668543 5.2037754 3.8071637
v -17.049557 0.34698427 10.028324
v 16.68745 0.34698427 10.028324
v 16.245584 4.7086883 10.028326
v -16.668543 4.652672 10.028326
v -17.049557 0.35268295 13.6406145
v 16.68745 0.35268295 13.6406145
v 16.245584 4.0242534 13.640616
v -16.668543 4.0242534 13.640616
v -17.049557 0.31912327 19.040041
v 16.68745 0.31912327 19.040041
v 16.245584 3.98623 19.040043
v -16.668543 3.98623 19.040043
v -17.049557 0.49211136 23.450838
v 16.68745 0.49211136 23.450838
v -17.049557 0.57657737 -2.734144
v 16.68745 0.57657737 -2.734144
v 16.245584 4.5565834 -2.775497
v -16.668543 4.5565834 -2.775497
v -17.049557 1.3831421E-16 -2.2588425
v 16.68745 1.3831421E-16 -2.2588425
v 16.245584 4.2264733 -2.0048735
v -16.668543 4.062852 -1.7426319
v -17.049557 0.10048127 2.0165925
v 16.68745 0.10048127 2.0165925
v 16.245584 3.9346004 0.88639903
v -16.668543 3.6704068 0.8871298
v -17.049557 0.62474245 2.6623576
v 16.68745 0.62474245 2.6623576
v 16.245584 4.862997 1.9884535
v -16.668543 4.7427664 2.0018477
v -17.049557 0.4972428 -0.009889144
v -17.049557 0.5389268 -0.8464206
v -17.049557 0.66682583 -2.218773
v -17.049557 1.2045171 -2.7406683
v -17.049557 1.054023 -4.8009295
v -17.049557 0.82126445 -9.934184
v -17.049557 0.6786351 -14.801272
v -17.049557 0.60923815 -19.744402
v 16.68745 0.60923815 -19.744402
v 16.68745 0.6786351 -14.801272
v 16.68745 0.82126445 -9.934184
v 16.68745 1.054023 -4.8009295
v 16.68745 1.2045171 -2.7406683
v 16.68745 0.66682583 -2.218773
v 16.68745 0.5389268 -0.8464206
v 16.68745 0.4972428 -0.009889144
v 16.68745 0.620776 1.8382778
v 16.68745 1.293427 2.5560334
v 16.68745 1.1098945 4.0206666
v 16.68745 0.8556589 10.028324
v 16.68745 0.8430647 13.6406145
v 16.68745 0.7808387 19.04004
v 16.68745 1.0410115 23.45084
v -17.049557 1.041011 23.45084
v -17.049557 0.7808387 19.04004
v -17.049557 0.8430647 13.6406145
v -17.049557 0.8556589 10.028324
v -17.049557 1.1098945 4.0206666
v -17.049557 1.293427 2.5560334
v -17.049557 0.620776 1.8382778
v -16.75881 0.6773882 -23.736942
v -16.668543 0.60923815 -19.744402
v -16.668543 0.6786351 -14.801272
v -16.668543 0.8212645 -9.934184
v -16.668543 1.054023 -4.8009295
v -16.668543 1.2045171 -2.7406683
v -16.668543 0.6668258 -2.218773
v -16.668543 0.53892684 -0.84642065
v -16.668543 0.4972428 -0.009889156
v -16.668543 0.62077594 1.8382778
v -16.668543 1.293427 2.5560334
v -16.668543 1.1098945 4.0206666
v -16.668543 0.8556589 10.028324
v -16.668543 0.8430648 13.6406145
v -16.668543 0.7808387 19.04004
v -16.660234 1.041011 23.45084
v 16.285355 0.6773882 -23.73694
v 16.245584 3.301053 -19.744402
v 16.240412 1.0410115 23.45084
v 16.245584 0.7808387 19.04004
v 16.245584 0.8430648 13.6406145
v 16.245584 0.8556589 10.028324
v 16.245584 1.1098945 4.0206666
v 16.245584 1.293427 2.5560331
v 16.245584 0.62077594 1.8382779
v 16.245584 0.4972428 -0.009889156
v 16.245584 0.53892684 -0.8464206
v 16.245584 0.6668258 -2.218773
v 16.245584 1.2045171 -2.7406683
v 16.245584 1.054023 -4.8009295
v 16.245584 0.8212645 -9.934184
v 16.245584 0.6786351 -14.801272
v 16.245584 0.60923815 -19.744402
v -16.675194 1.1384163 24.61861
v 16.270166 1.137923 24.612696
v 16.308193 0.6773882 -24.268402
v -16.66268 0.6773882 -24.268402
v 15.973461 0.57657737 -2.734144
v 15.973461 1.3831421E-16 -2.2588425
v 15.973461 6.0555985E-19 -0.009889543
v 15.973461 0.10048127 2.0165925
v 15.973461 0.62474245 2.6623576
v 8.619782 0.57657737 -2.734144
v 8.619782 1.3831421E-16 -2.2588425
v 8.619782 6.0555985E-19 -0.009889543
v 8.619782 0.10048127 2.0165925
v 8.619782 0.62474245 2.6623576
v 7.650067 0.57657737 -2.734144
v 7.650067 1.3831421E-16 -2.2588425
v 7.650067 6.0555985E-19 -0.009889543
v 7.650067 0.10048127 2.0165925
v 7.650067 0.62474245 2.6623576
v 2.5590582 0.57657737 -2.734144
v 2.5590582 1.3831421E-16 -2.2588425
v 2.5590582 6.0555985E-19 -0.009889543
v 2.5590582 0.10048127 2.0165925
v 2.5590582 0.62474245 2.6623576
v 1.7105584 0.57657737 -2.734144
v 1.7105584 1.3831421E-16 -2.2588425
v 1.7105584 6.0555985E-19 -0.009889543
v 1.7105584 0.10048127 2.0165925
v 1.7105584 0.62474245 2.6623576
v -3.4208546 0.57657737 -2.734144
v -3.4208546 1.3831421E-16 -2.2588425
v -3.4208546 6.0555985E-19 -0.009889543
v -3.4208546 0.10048127 2.0165925
v -3.4208546 0.62474245 2.6623576
v -4.3501654 0.57657737 -2.734144
v -4.3501654 1.3831421E-16 -2.2588425
v -4.3501654 6.0555985E-19 -0.009889543
v -4.3501654 0.10048127 2.0165925
v -4.3501654 0.62474245 2.6623576
v -9.360363 0.57657737 -2.734144
v -9.360363 1.3831421E-16 -2.2588425
v -9.360363 6.0555985E-19 -0.009889543
v -9.360363 0.10048127 2.0165925
v -9.360363 0.62474245 2.6623576
v -10.208864 0.57657737 -2.734144
v -10.208864 1.3831421E-16 -2.2588425
v -10.208864 6.0555985E-19 -0.009889543
v -10.208864 0.10048127 2.0165925
v -10.208864 0.62474245 2.6623576
v -16.229183 0.57657737 -2.7341442
v -16.229183 1.3831421E-16 -2.2588425
v -16.229183 5.1828338E-17 -0.846421
v -16.229183 6.0555985E-19 -0.009889543
v -16.229183 0.10048128 2.0165925
v -16.229183 0.62474245 2.6623576
v -16.903557 -0.12599498 -2.2577178
v -16.903557 0.33792597 -2.640151
v -16.375183 0.33792594 -2.6401513
v -16.375183 -0.12599498 -2.2577178
v -16.375183 -0.12599498 -0.84529644
v -16.375183 -0.12599498 -0.008765007
v -16.375183 -0.025513701 2.0177171
v -16.375183 0.40672567 2.5501332
v -16.903557 0.40672567 2.5501332
v -16.903557 -0.025513709 2.0177171
v -16.903557 -0.12599498 -0.008765007
v 16.54145 -0.12599498 -0.008765007
v 16.54145 -0.025513709 2.0177171
v 16.54145 0.40672567 2.5501332
v 16.119461 0.40672567 2.5501332
v 16.119461 -0.025513709 2.0177171
v 16.119461 -0.12599498 -0.008765007
v 16.119461 -0.12599498 -2.2577178
v 16.119461 0.33792594 -2.640151
v 16.54145 0.33792594 -2.640151
v 16.54145 -0.12599498 -2.2577178
v 8.473783 -0.12599498 -2.2577178
v 8.473783 -0.12599498 -0.008765008
v 8.473783 -0.025513709 2.0177171
v 8.473783 0.40672567 2.5501332
v 7.7960668 0.40672567 2.5501332
v 7.7960668 -0.025513709 2.0177171
v 7.7960668 -0.12599498 -0.008765008
v 7.7960668 -0.12599498 -2.2577178
v 7.7960668 0.33792594 -2.640151
v 8.473783 0.33792594 -2.640151
v 2.4130583 -0.12599498 -2.2577178
v 2.4130583 -0.12599498 -0.008765008
v 2.4130583 -0.025513709 2.0177171
v 2.4130583 0.40672567 2.5501332
v 1.8565583 0.40672567 2.5501332
v 1.8565583 -0.025513709 2.0177171
v 1.8565583 -0.12599498 -0.008765008
v 1.8565583 -0.12599498 -2.2577178
v 1.8565583 0.33792594 -2.640151
v 2.4130583 0.33792594 -2.640151
v -3.5668545 -0.12599498 -2.2577178
v -3.5668545 -0.12599498 -0.008765007
v -3.5668545 -0.025513709 2.0177171
v -3.5668545 0.40672567 2.5501332
v -4.2041655 0.40672567 2.5501332
v -4.2041655 -0.025513709 2.0177171
v -4.2041655 -0.12599498 -0.008765007
v -4.2041655 -0.12599498 -2.2577178
v -4.2041655 0.33792594 -2.640151
v -3.5668545 0.33792594 -2.640151
v -9.506363 -0.12599498 -2.2577178
v -9.506363 -0.12599498 -0.008765007
v -9.506363 -0.025513709 2.0177171
v -9.506363 0.40672567 2.5501332
v -10.062864 0.40672567 2.5501332
v -10.062864 -0.025513709 2.0177171
v -10.062864 -0.12599498 -0.008765007
v -10.062864 -0.12599498 -2.2577178
v -10.062864 0.33792594 -2.640151
v -9.506363 0.33792594 -2.640151
v -16.668543 3.191257 -0.8464185
v 16.241817 4.189892 -9.937741
# 243 vertices

vn 0 -0.98290306 0.18412383
vn 0 -0.99371326 0.11195452
vn 0 -0.982903 0.18412381
vn 3.2245644E-08 0.9965393 -0.08312233
vn 0 0.99653935 -0.08312234
vn 1.13584186E-07 0.99653935 -0.08312231
vn 1.13584186E-07 0.99653935 -0.08312231
vn 1.4736898E-07 0.99653935 -0.08312229
vn 3.2245644E-08 0.9965393 -0.08312233
vn 0 -4.4611065E-06 1
vn 0 -4.4611065E-06 1
vn 0 -4.4611065E-06 1
vn 0 -4.4611065E-06 1
vn 0 -4.4611065E-06 1
vn 0 -4.4611065E-06 0.99999994
vn 0 -4.4611065E-06 1
vn 0 -4.4611065E-06 0.99999994
vn 0 -4.461107E-06 1
vn 1 0 0
vn 1 0 0
vn 1 0 0
vn 1 0 0
vn 0.99999994 0 0
vn 1 0 0
vn -0.004517747 -0.71387154 -0.7002621
vn 0.0045195306 -0.71399575 -0.70013547
vn 0 2.220446E-16 -1
vn -0.004517747 -0.71387154 -0.7002621
vn 0 2.220446E-16 -1
vn 0 2.220446E-16 -1
vn -0.004517747 -0.71387154 -0.7002621
vn 0 2.220446E-16 -1
vn 1.5101738E-06 1.095156E-06 -1
vn -0.004517747 -0.71387154 -0.7002621
vn 1.5101738E-06 1.095156E-06 -1
vn 5.0291696E-06 3.6470803E-06 -1
vn -1 0 0
vn -1 0 0
vn -1 0 0
vn -1 0 0
vn -1 0 0
vn -1 0 0
vn -0.008630348 0.9999475 0.0055269916
vn 0 0.9999998 0.0005124065
vn -0.0006407778 0.99999964 0.00046091157
vn -0.008630348 0.9999475 0.0055269916
vn -0.0006407778 0.99999964 0.00046091157
vn -0.018298144 0.9997825 0.010010401
vn -0.008630348 0.9999475 0.0055269916
vn -0.018298144 0.9997825 0.010010401
vn 0 1 2.220446E-16
vn 1 0 0
vn 1 0 0
vn 0.99999994 0 0
vn 0.99999994 0 0
vn 0.99999994 0 0
vn 1 0 0
vn -1 0 0
vn -1 0 0
vn -1 0 0
vn -1 0 0
vn -1 0 0
vn -1 0 0
vn 0 0.9995226 -0.030895498
vn 0 0.9995226 -0.030895496
vn -8.144493E-05 0.9959522 -0.08988474
vn 1 0 0
vn 1 0 0
vn 0.99999994 0 0
vn 0.99999994 0 0
vn 1 0 0
vn 1 0 0
vn -1 0 0
vn -1 0 0
vn -1 0 0
vn -1 0 0
vn -1 0 0
vn -1 0 0
vn -1.7283792E-05 0.9907135 -0.13596585
vn -8.144493E-05 0.9959522 -0.08988474
vn -0.00017850961 0.99071854 -0.13592878
vn 1 0 0
vn 1 0 0
vn 1 0 0
vn 1 0 0
vn 1 0 0
vn 1 0 0
vn -1 0 0
vn -1 0 0
vn -1 0 0
vn -1 0 0
vn -1 0 0
vn -1 0 0
vn -1.7283792E-05 0.9907135 -0.13596585
vn -0.00017850961 0.99071854 -0.13592878
vn -8.055294E-05 0.9999938 0.003527487
vn 1 0 0
vn 1 0 0
vn 1 0 0
vn 1 0 0
vn 1 0 0
vn 1 0 0
vn -1 0 0
vn -1 0 0
vn -1 0 0
vn -1 0 0
vn -1 0 0
vn -1 0 0
vn 0.00013237158 0.64567 0.7636165
vn -0.002430204 0.8212833 0.57051545
vn -0.0041219406 0.6041408 0.79686695
vn 1 0 0
vn 1 0 0
vn 1 0 0
vn 1 0 0
vn 1 0 0
vn 1 0 0
vn -0.30590045 -0.87108934 -0.3842243
vn 0.30590048 -0.87108934 -0.38422424
vn 0.34851915 -0.9373017 -1.110223E-16
vn 0.34851915 -0.9373017 -1.110223E-16
vn 0.34671763 -0.9376834 0.023168178
vn -0.3467176 -0.9376834 0.023168178
vn -0.30590045 -0.87108934 -0.3842243
vn 0.34851915 -0.9373017 -1.110223E-16
vn -0.3467176 -0.9376834 0.023168178
vn 0.00013237158 0.64567 0.7636165
vn -0.0041219406 0.6041408 0.79686695
vn -0.0031429117 0.47680843 0.8790017
vn 1 0 0
vn 1 0 0
vn 1 0 0
vn 1 0 0
vn 1 0 0
vn 1 0 0
vn -1 0 0
vn -1 0 0
vn -0.99999994 0 0
vn -0.99999994 0 0
vn -1 0 0
vn -1 0 0
vn -0.0030164663 0.9973317 -0.07294081
vn -0.005156102 0.8739311 -0.4860223
vn -0.0055194153 0.99665916 -0.08148659
vn 1 0 0
vn 1 0 0
vn 1 0 0
vn 1 0 0
vn 1 0 0
vn 1 0 0
vn -1 0 0
vn -1 0 0
vn -1 0 0
vn -1 0 0
vn -1 0 0
vn -1 0 0
vn -0.0030164663 0.9973317 -0.07294081
vn -0.0055194153 0.99665916 -0.08148659
vn -0.0030849758 0.99124503 0.13199875
vn 1 0 0
vn 1 0 0
vn 1 0 0
vn 1 0 0
vn 1 0 0
vn 1 0 0
vn -1 0 0
vn -1 0 0
vn -1 0 0
vn -1 0 0
vn -1 0 0
vn -1 0 0
vn -0.0007801576 0.99533576 0.09646768
vn -0.0030849758 0.99124503 0.13199875
vn 0 0.9959848 0.08952248
vn 0.99999994 0 0
vn 1 0 0
vn 1 0 0
vn 1 0 0
vn 1 0 0
vn 0.99999994 0 0
vn -1 0 0
vn -1 0 0
vn -1 0 0
vn -1 0 0
vn -1 0 0
vn -1 0 0
vn -0.0007801576 0.99533576 0.09646768
vn 0 0.9959848 0.08952248
vn 0 0.9999752 0.0070419568
vn 1 0 0
vn 1 0 0
vn 1 0 0
vn 1 0 0
vn 0.99999994 0 0
vn 1 0 0
vn -1 0 0
vn -1 0 0
vn -1 0 0
vn -1 0 0
vn -0.99999994 0 0
vn -1 0 0
vn 0 -0.97348666 -0.22874384
vn 0 -0.97348666 -0.22874387
vn -0.0050307084 -0.9940695 -0.10862998
vn -0.020225804 -0.9995306 0.023011941
vn -0.007324129 -0.9944905 0.10457112
vn 0.08532396 -0.98467577 -0.15209739
vn -0.00705538 -0.9999703 -0.0030992196
vn -0.020225804 -0.9995306 0.023011941
vn 0.08532396 -0.98467577 -0.15209739
vn -0.009077878 -0.9999513 0.003871287
vn -0.00705538 -0.9999703 -0.0030992196
vn 0.08532396 -0.98467577 -0.15209739
vn -0.0050307084 -0.9940695 -0.10862998
vn -0.009077878 -0.9999513 0.003871287
vn 0.08532396 -0.98467577 -0.15209739
vn -0.0050307084 -0.9940695 -0.10862998
vn 0.08532396 -0.98467577 -0.15209739
vn 0 -0.97348666 -0.22874382
vn -0.0050307084 -0.9940695 -0.10862998
vn 0 -0.97348666 -0.22874382
vn 0 -0.97348666 -0.2287438
vn -0.0050307084 -0.9940695 -0.10862998
vn 0 -0.97348666 -0.2287438
vn 0 -0.97348666 -0.22874384
vn -0.0050307084 -0.9940695 -0.10862998
vn 0 -0.97348666 -0.22874384
vn 0 -0.9734866 -0.22874384
vn -0.0050307084 -0.9940695 -0.10862998
vn 0 -0.9734866 -0.22874384
vn 0 -0.97348666 -0.22874385
vn -0.0050307084 -0.9940695 -0.10862998
vn 0 -0.97348666 -0.22874385
vn 0 -0.97348666 -0.22874387
vn -0.0050307084 -0.9940695 -0.10862998
vn 0 -0.97348666 -0.22874387
vn 0 -0.97348666 -0.22874388
vn -0.0050307084 -0.9940695 -0.10862998
vn 0 -0.97348666 -0.22874388
vn 0 -0.97348666 -0.22874385
vn -0.0050307084 -0.9940695 -0.10862998
vn 0 -0.97348666 -0.22874385
vn 0 -0.97348666 -0.22874382
vn 0 -0.97348666 -0.22874384
vn -0.0050307084 -0.9940695 -0.10862998
vn 0 -0.97348666 -0.22874382
vn 1 0 0
vn 0.99999994 0 0
vn 1 0 0
vn 1 0 0
vn 1 0 0
vn 1 0 0
vn -1 0 0
vn -0.99999994 0 0
vn -1 0 0
vn -1 0 0
vn -1 0 0
vn -1 0 0
vn -1 0 0
vn -1 0 0
vn -1 0 0
vn -1 0 0
vn -1 0 0
vn -1 0 0
vn 0.039624214 -0.9990227 0.019585362
vn 1 0 0
vn 0.99999994 0 0
vn 0.039624214 -0.9990227 0.019585362
vn 0.99999994 0 0
vn 1 0 0
vn 0.039624214 -0.9990227 0.019585362
vn 1 0 0
vn 0.99999994 0 0
vn 0.039624214 -0.9990227 0.019585362
vn 0.99999994 0 0
vn 0.0045195306 -0.71399575 -0.70013547
vn 0.039624214 -0.9990227 0.019585362
vn 0.0045195306 -0.71399575 -0.70013547
vn -0.004517747 -0.71387154 -0.7002621
vn -0.0007069757 0.9642654 0.2649374
vn -8.055294E-05 0.9999938 0.003527487
vn 0 0.9587346 0.2843027
vn 1 0 0
vn 1 0 0
vn 1 0 0
vn 1 0 0
vn 1 0 0
vn 1 0 0
vn 0.30590048 -0.87108934 -0.38422424
vn -0.30590045 -0.87108934 -0.3842243
vn -0.20389168 -0.5352343 -0.819727
vn -0.20389168 -0.5352343 -0.819727
vn 0.20389152 -0.53523433 -0.81972706
vn 0.30590048 -0.87108934 -0.38422424
vn -0.0007069757 0.9642654 0.2649374
vn 0 0.9587346 0.2843027
vn -0.002430204 0.8212833 0.57051545
vn 1 0 0
vn 1 0 0
vn 1 0 0
vn 1 0 0
vn 1 0 0
vn 1 0 0
vn -0.99999994 0 0
vn -1 0 0
vn -1 0 0
vn -1 0 0
vn -1 0 0
vn -1 0 0
vn -0.99999994 0 0
vn -1 0 0
vn -1 0 0
vn -1 0 0
vn -1 0 0
vn -1 0 0
vn -1 0 0
vn -1 0 0
vn -1 0 0
vn 0.31725645 -0.89084786 0.32517442
vn -0.31725645 -0.89084786 0.32517436
vn -0.3467176 -0.9376834 0.023168178
vn -0.3467176 -0.9376834 0.023168178
vn 0.34671763 -0.9376834 0.023168178
vn 0.31725645 -0.89084786 0.32517442
vn -0.0016962561 0.5840926 -0.81168514
vn -0.0031312732 0.40500128 -0.91431075
vn -0.0046237404 0.57377595 -0.81899923
vn 1 0 0
vn 1 0 0
vn 1 0 0
vn 1 0 0
vn 1 0 0
vn 1 0 0
vn 0.23940837 -0.6529115 0.71860296
vn -0.23940837 -0.6529115 0.71860296
vn -0.31725645 -0.89084786 0.32517436
vn -0.31725645 -0.89084786 0.32517436
vn 0.31725645 -0.89084786 0.32517442
vn 0.23940837 -0.6529115 0.71860296
vn -0.0016962561 0.5840926 -0.81168514
vn -0.0046237404 0.57377595 -0.81899923
vn -0.005156102 0.8739311 -0.4860223
vn 1 0 0
vn 1 0 0
vn 1 0 0
vn 1 0 0
vn 1 0 0
vn 1 0 0
vn -1 0 0
vn -1 0 0
vn -1 0 0
vn -1 0 0
vn -1 0 0
vn -1 0 0
vn -0.99993634 0 0.01129132
vn -0.99996275 -1.7347235E-18 0.008632179
vn -0.99974453 -6.938894E-18 0.022603182
vn 0.9999504 -1.7347235E-18 0.009960619
vn 0.9999928 -4.3368087E-19 0.0038035612
vn 0.9999876 -8.6736174E-19 0.0049755215
vn -1 0 0
vn -0.99996275 -1.7347235E-18 0.008632179
vn -0.99993634 0 0.01129132
vn 0.9999876 -8.6736174E-19 0.0049755215
vn 0.99999994 0.00022166925 0.000119899734
vn 1 0 0
vn -1 0 0
vn -1 0 0
vn -1 0 0
vn 1 0 0
vn 0.99999994 0.00022166925 0.000119899734
vn 0.99999976 0.0007096557 -4.5565415E-05
vn -1 0 0
vn -1 0 0
vn -1 0 0
vn 0.99999976 0.0007096557 -4.5565415E-05
vn 1 0.0002087203 -0.00016270067
vn 0.99999994 0 0
vn -1 0 0
vn -1 0 0
vn -1 0 0
vn 1 0 0
vn 1 0 0
vn 1 0 0
vn -1 0 0
vn -1 0 0
vn -1 0 0
vn 1 0 0
vn 1 0 0
vn 1 0 0
vn -1 0 0
vn -1 0 0
vn -0.99999994 0 0
vn 1 0 0
vn 1 0 0
vn 1 0 0
vn -1 0 0
vn -1 0 0
vn -1 0 0
vn 1 0 0
vn 1 0 0
vn 1 0 0
vn -1 0 0
vn -1 0 0
vn -1 0 0
vn 1 0 0
vn 1 0 0
vn 1 0 0
vn -0.9999995 -1.1035565E-09 0.00092728983
vn -0.9999997 -8.5999236E-10 0.00072262925
vn -1 0 0
vn 1 0 0
vn 0.9999999 -5.3542254E-10 0.0004499017
vn 0.9999998 -6.870632E-10 0.00057732133
vn -0.9999983 -2.241707E-09 0.0018836482
vn -0.9999997 -8.5999236E-10 0.00072262925
vn -0.9999995 -1.1035565E-09 0.00092728983
vn 0.9999998 -6.870632E-10 0.00057732133
vn 0.9999999 -5.3542254E-10 0.0004499017
vn 0.9999993 -1.3956647E-09 0.0011727407
vn -1 0 0
vn -1 0 0
vn -1 0 0
vn 0.99999994 0 0
vn 1 0.0002087203 -0.00016270067
vn 1 0 0
vn 1 0 0
vn 1 0 0
vn 1 0 0
vn -1 0 0
vn -1 0 0
vn -1 0 0
vn -1 0 0
vn -1 0 0
vn -1 0 0
vn 0.99999994 0 0
vn 1 0 0
vn 1 0 0
vn 1 0 0
vn 1 0 0
vn 1 0 0
vn -1 0 0
vn -1 0 0
vn -1 0 0
vn 0 0.9997653 -0.021665622
vn -0.0006407778 0.99999964 0.00046091157
vn 0 0.9999998 0.0005124065
vn 0 0.9999998 0.0005124065
vn -3.887076E-09 0.9997653 -0.021665625
vn 0 0.9997653 -0.021665622
vn -1.5244102E-07 0.9993043 -0.037295695
vn 0 0.9997653 -0.021665622
vn -3.887076E-09 0.9997653 -0.021665625
vn -3.887076E-09 0.9997653 -0.021665625
vn -1.5264628E-07 0.9993043 -0.037295703
vn -1.5244102E-07 0.9993043 -0.037295695
vn -3.6820693E-09 0.9982533 -0.059080012
vn -1.5244102E-07 0.9993043 -0.037295695
vn -1.5264628E-07 0.9993043 -0.037295703
vn -1.5264628E-07 0.9993043 -0.037295703
vn 0 0.99825317 -0.05908
vn -3.6820693E-09 0.9982533 -0.059080012
vn 0 0.9973427 -0.07285202
vn -3.6820693E-09 0.9982533 -0.059080012
vn 0 0.99825317 -0.05908
vn 0 0.99825317 -0.05908
vn 0 0.99734277 -0.07285202
vn 0 0.9973427 -0.07285202
vn 1.2370154E-07 0.90191364 0.43191642
vn 0 0.6964881 0.71756834
vn 3.2629163E-08 0.69648814 0.7175684
vn 3.2629163E-08 0.69648814 0.7175684
vn 1.1391243E-07 0.90191364 0.43191648
vn 1.2370154E-07 0.90191364 0.43191642
vn -1.193815E-07 0.997455 0.07129792
vn 1.2370154E-07 0.90191364 0.43191642
vn 1.1391243E-07 0.90191364 0.43191648
vn 1.1391243E-07 0.90191364 0.43191648
vn -1.2450752E-07 0.997455 0.071297914
vn -1.193815E-07 0.997455 0.07129792
vn -2.0656186E-08 0.99996406 -0.008476523
vn -1.193815E-07 0.997455 0.07129792
vn -1.2450752E-07 0.997455 0.071297914
vn -1.2450752E-07 0.997455 0.071297914
vn 9.97451E-09 0.999964 -0.0084765395
vn -2.0656186E-08 0.99996406 -0.008476523
vn 1.3264308E-07 0.9171783 -0.39847696
vn -2.0656186E-08 0.99996406 -0.008476523
vn 9.97451E-09 0.999964 -0.0084765395
vn 9.97451E-09 0.999964 -0.0084765395
vn 1.2922268E-07 0.9171783 -0.39847708
vn 1.3264308E-07 0.9171783 -0.39847696
vn 2.6853586E-08 0.72966135 -0.6838087
vn 1.3264308E-07 0.9171783 -0.39847696
vn 1.2922268E-07 0.9171783 -0.39847708
vn 1.2922268E-07 0.9171783 -0.39847708
vn 0 0.72966135 -0.6838087
vn 2.6853586E-08 0.72966135 -0.6838087
vn 0 0.9965179 0.08337963
vn 0 0.9922401 0.12433713
vn 0 0.9922401 0.12433712
vn 0 0.9922401 0.12433712
vn 0 0.9965179 0.083379626
vn 0 0.9965179 0.08337963
vn 0 0.999738 0.022887908
vn 0 0.9965179 0.08337963
vn 0 0.9965179 0.083379626
vn 0 0.9965179 0.083379626
vn -5.233793E-09 0.9997381 0.022887912
vn 0 0.999738 0.022887908
vn -1.5119969E-07 0.99997187 0.0075051924
vn 0 0.999738 0.022887908
vn -5.233793E-09 0.9997381 0.022887912
vn -5.233793E-09 0.9997381 0.022887912
vn -1.5292491E-07 0.9999718 0.0075051915
vn -1.5119969E-07 0.99997187 0.0075051924
vn -3.5076724E-09 0.9997187 -0.02371532
vn -1.5119969E-07 0.99997187 0.0075051924
vn -1.5292491E-07 0.9999718 0.0075051915
vn -1.5292491E-07 0.9999718 0.0075051915
vn 0 0.99971926 -0.023694254
vn -3.5076724E-09 0.9997187 -0.02371532
vn -7.25563E-09 0.9974717 -0.07106435
vn -3.5076724E-09 0.9997187 -0.02371532
vn 0 0.99971926 -0.023694254
vn 0 0.99971926 -0.023694254
vn 0 0.9982649 -0.05888291
vn -7.25563E-09 0.9974717 -0.07106435
vn 0 0.99971884 -0.023707412
vn -1.1186602E-09 0.9974684 -0.07111009
vn 0 0.9982649 -0.058883026
vn 0 0.9982649 -0.058883026
vn 3.507706E-09 0.9997192 -0.023694314
vn 0 0.99971884 -0.023707412
vn 1.313837E-07 0.9999718 0.007505176
vn 0 0.99971884 -0.023707412
vn 3.507706E-09 0.9997192 -0.023694314
vn 3.507706E-09 0.9997192 -0.023694314
vn 1.2966296E-07 0.99997187 0.007505179
vn 1.313837E-07 0.9999718 0.007505176
vn 5.2272306E-09 0.9997381 0.022887908
vn 1.313837E-07 0.9999718 0.007505176
vn 1.2966296E-07 0.99997187 0.007505179
vn 1.2966296E-07 0.99997187 0.007505179
vn 0 0.9997381 0.02288791
vn 5.2272306E-09 0.9997381 0.022887908
vn 0 0.9965178 0.083379604
vn 5.2272306E-09 0.9997381 0.022887908
vn 0 0.9997381 0.02288791
vn 0 0.9997381 0.02288791
vn -6.21659E-09 0.9965179 0.08337962
vn 0 0.9965178 0.083379604
vn -5.4666206E-08 0.9922401 0.12433712
vn 0 0.9965178 0.083379604
vn -6.21659E-09 0.9965179 0.08337962
vn -6.21659E-09 0.9965179 0.08337962
vn -6.7088855E-08 0.99224 0.12433712
vn -5.4666206E-08 0.9922401 0.12433712
vn -1.3820008E-07 0.9171783 -0.39847702
vn 3.689643E-07 0.7296613 -0.68380886
vn 1.9375972E-07 0.7296612 -0.6838088
vn 1.9375972E-07 0.7296612 -0.6838088
vn -2.190133E-07 0.91717833 -0.39847693
vn -1.3820008E-07 0.9171783 -0.39847702
vn -1.1304592E-08 0.99996406 -0.008476499
vn -1.3820008E-07 0.9171783 -0.39847702
vn -2.190133E-07 0.91717833 -0.39847693
vn -2.190133E-07 0.91717833 -0.39847693
vn 2.1262926E-08 0.999964 -0.008476522
vn -1.1304592E-08 0.99996406 -0.008476499
vn 1.1353205E-07 0.997455 0.071297854
vn -1.1304592E-08 0.99996406 -0.008476499
vn 2.1262926E-08 0.999964 -0.008476522
vn 2.1262926E-08 0.999964 -0.008476522
vn 1.08016835E-07 0.997455 0.07129784
vn 1.1353205E-07 0.997455 0.071297854
vn -9.338484E-08 0.90191364 0.43191648
vn 1.1353205E-07 0.997455 0.071297854
vn 1.08016835E-07 0.997455 0.07129784
vn 1.08016835E-07 0.997455 0.07129784
vn -1.04676765E-07 0.90191364 0.4319165
vn -9.338484E-08 0.90191364 0.43191648
vn -3.186754E-08 0.6964881 0.71756834
vn -9.338484E-08 0.90191364 0.43191648
vn -1.04676765E-07 0.90191364 0.4319165
vn -1.04676765E-07 0.90191364 0.4319165
vn 0 0.6964881 0.71756834
vn -3.186754E-08 0.6964881 0.71756834
vn 0 0.99825317 -0.059079994
vn 0 0.99734277 -0.07285202
vn 0 0.99734277 -0.072852015
vn 0 0.99734277 -0.072852015
vn 3.6797652E-09 0.99825317 -0.05908
vn 0 0.99825317 -0.059079994
vn 1.3111968E-07 0.9993043 -0.03729571
vn 0 0.99825317 -0.059079994
vn 3.6797652E-09 0.99825317 -0.05908
vn 3.6797652E-09 0.99825317 -0.05908
vn 1.3091488E-07 0.9993043 -0.03729571
vn 1.3111968E-07 0.9993043 -0.03729571
vn 3.8843178E-09 0.9997653 -0.02166562
vn 1.3111968E-07 0.9993043 -0.03729571
vn 1.3091488E-07 0.9993043 -0.03729571
vn 1.3091488E-07 0.9993043 -0.03729571
vn 0 0.9997653 -0.021665618
vn 3.8843178E-09 0.9997653 -0.02166562
vn 0 0.9999989 0.0014653024
vn 3.8843178E-09 0.9997653 -0.02166562
vn 0 0.9997653 -0.021665618
vn 0 0.9997653 -0.021665618
vn 0.0006360469 0.9999988 0.0014507226
vn 0 0.9999989 0.0014653024
vn -1.1112264E-09 0.83164215 0.5553119
vn -9.8176E-09 0.83164215 0.555312
vn -1.0930627E-08 0.83164215 0.555312
vn 2.9363008E-09 0.83570594 -0.5491773
vn 0 0.83570594 -0.5491772
vn 2.8813483E-08 0.8357058 -0.54917735
vn 0 0.99653935 -0.08312269
vn 0 0.99653935 -0.08312271
vn 0 0.99653935 -0.0831227
vn 0 0.99653935 -0.0831227
vn 0 0.99653935 -0.08312269
vn 0 0.99653935 -0.08312269
vn -1.1186602E-09 0.9974684 -0.07111009
vn -7.25563E-09 0.9974717 -0.07106435
vn -1.4158917E-08 0.99653935 -0.08312269
vn 0.010089026 0.9999169 0.008031967
vn 0 0.9999989 0.0014653024
vn 0.0006360469 0.9999988 0.0014507226
vn 0.010089026 0.9999169 0.008031967
vn 0.0006360469 0.9999988 0.0014507226
vn 0.008209119 0.9999471 0.0062109116
vn 0.010089026 0.9999169 0.008031967
vn 0.008209119 0.9999471 0.0062109116
vn 0 1 2.220446E-16
vn -0.018298144 0.9997825 0.010010401
vn 0 1 2.220446E-16
vn 0 1 2.220446E-16
vn -0.3467176 -0.9376834 0.023168178
vn -0.3059005 -0.87108934 -0.3842243
vn 0.30590057 -0.87108934 -0.3842243
vn 0.30590057 -0.87108934 -0.3842243
vn 0.34671763 -0.9376834 0.023168178
vn -0.3467176 -0.9376834 0.023168178
vn -0.3059005 -0.87108934 -0.3842243
vn -0.20389152 -0.5352342 -0.8197271
vn 0.20389153 -0.5352342 -0.8197271
vn 0.20389153 -0.5352342 -0.8197271
vn 0.30590057 -0.87108934 -0.3842243
vn -0.3059005 -0.87108934 -0.3842243
vn -0.31725642 -0.89084786 0.32517433
vn -0.3467176 -0.9376834 0.023168178
vn 0.34671763 -0.9376834 0.023168178
vn 0.34671763 -0.9376834 0.023168178
vn 0.31725642 -0.89084786 0.32517442
vn -0.31725642 -0.89084786 0.32517433
vn -0.23940837 -0.6529115 0.71860296
vn -0.31725642 -0.89084786 0.32517433
vn 0.31725642 -0.89084786 0.32517442
vn 0.31725642 -0.89084786 0.32517442
vn 0.23940836 -0.6529115 0.7186029
vn -0.23940837 -0.6529115 0.71860296
vn 0 -0.9996932 0.02476922
vn 0 -0.9044569 -0.42656496
vn 0 -0.90445685 -0.42656505
vn 0 -0.90445685 -0.42656505
vn 0 -0.9996932 0.024769226
vn 0 -0.9996932 0.02476922
vn 0 -0.9044569 -0.42656496
vn 0 -0.6360845 -0.7716195
vn 0 -0.63608444 -0.7716195
vn 0 -0.63608444 -0.7716195
vn 0 -0.90445685 -0.42656505
vn 0 -0.9044569 -0.42656496
vn 0 -0.93386203 0.35763368
vn 0 -0.9996932 0.02476922
vn 0 -0.9996932 0.024769226
vn 0 -0.9996932 0.024769226
vn 0 -0.933862 0.3576336
vn 0 -0.93386203 0.35763368
vn 0 -0.77636284 0.6302863
vn 0 -0.93386203 0.35763368
vn 0 -0.933862 0.3576336
vn 0 -0.933862 0.3576336
vn 0 -0.77636284 0.6302863
vn 0 -0.77636284 0.6302863
vn 0.3467177 -0.9376833 0.02316817
vn -0.3467176 -0.9376834 0.023168178
vn -0.3059005 -0.87108934 -0.38422433
vn -0.3059005 -0.87108934 -0.38422433
vn 0.30590057 -0.87108934 -0.3842243
vn 0.3467177 -0.9376833 0.02316817
vn -0.3059005 -0.87108934 -0.38422433
vn -0.20389152 -0.5352342 -0.8197271
vn 0.20389152 -0.5352342 -0.8197271
vn 0.20389152 -0.5352342 -0.8197271
vn 0.30590057 -0.87108934 -0.3842243
vn -0.3059005 -0.87108934 -0.38422433
vn -0.31725645 -0.89084786 0.3251744
vn -0.3467176 -0.9376834 0.023168178
vn 0.3467177 -0.9376833 0.02316817
vn 0.3467177 -0.9376833 0.02316817
vn 0.31725645 -0.89084786 0.32517442
vn -0.31725645 -0.89084786 0.3251744
vn -0.23940837 -0.6529115 0.71860296
vn -0.31725645 -0.89084786 0.3251744
vn 0.31725645 -0.89084786 0.32517442
vn 0.31725645 -0.89084786 0.32517442
vn 0.23940837 -0.6529115 0.71860296
vn -0.23940837 -0.6529115 0.71860296
vn 0 -0.9996932 0.02476922
vn 0 -0.90445685 -0.42656514
vn 0 -0.90445685 -0.4265651
vn 0 -0.90445685 -0.4265651
vn 0 -0.9996932 0.024769224
vn 0 -0.9996932 0.02476922
vn 0 -0.90445685 -0.42656514
vn 0 -0.6360845 -0.7716195
vn 0 -0.6360845 -0.7716195
vn 0 -0.6360845 -0.7716195
vn 0 -0.90445685 -0.4265651
vn 0 -0.90445685 -0.42656514
vn 0 -0.93386203 0.3576337
vn 0 -0.9996932 0.02476922
vn 0 -0.9996932 0.024769224
vn 0 -0.9996932 0.024769224
vn 0 -0.93386203 0.35763374
vn 0 -0.93386203 0.3576337
vn 0 -0.77636284 0.6302864
vn 0 -0.93386203 0.3576337
vn 0 -0.93386203 0.35763374
vn 0 -0.93386203 0.35763374
vn 0 -0.7763628 0.63028634
vn 0 -0.77636284 0.6302864
vn 0.34671766 -0.9376834 0.023168175
vn -0.3467176 -0.9376834 0.023168178
vn -0.30590048 -0.87108934 -0.38422427
vn -0.30590048 -0.87108934 -0.38422427
vn 0.30590057 -0.87108934 -0.3842243
vn 0.34671766 -0.9376834 0.023168175
vn -0.30590048 -0.87108934 -0.38422427
vn -0.20389152 -0.5352342 -0.8197271
vn 0.20389153 -0.5352342 -0.8197271
vn 0.20389153 -0.5352342 -0.8197271
vn 0.30590057 -0.87108934 -0.3842243
vn -0.30590048 -0.87108934 -0.38422427
vn -0.31725642 -0.89084786 0.32517436
vn -0.3467176 -0.9376834 0.023168178
vn 0.34671766 -0.9376834 0.023168175
vn 0.34671766 -0.9376834 0.023168175
vn 0.31725645 -0.89084786 0.32517442
vn -0.31725642 -0.89084786 0.32517436
vn -0.23940837 -0.6529115 0.71860296
vn -0.31725642 -0.89084786 0.32517436
vn 0.31725645 -0.89084786 0.32517442
vn 0.31725645 -0.89084786 0.32517442
vn 0.23940833 -0.6529115 0.7186029
vn -0.23940837 -0.6529115 0.71860296
vn 0 -0.9996932 0.024769222
vn 0 -0.90445685 -0.4265651
vn 0 -0.9044568 -0.4265651
vn 0 -0.9044568 -0.4265651
vn 0 -0.9996932 0.024769222
vn 0 -0.9996932 0.024769222
vn 0 -0.90445685 -0.4265651
vn 0 -0.63608444 -0.77161944
vn 0 -0.6360845 -0.7716195
vn 0 -0.6360845 -0.7716195
vn 0 -0.9044568 -0.4265651
vn 0 -0.90445685 -0.4265651
vn 0 -0.93386203 0.35763368
vn 0 -0.9996932 0.024769222
vn 0 -0.9996932 0.024769222
vn 0 -0.9996932 0.024769222
vn 0 -0.93386203 0.35763368
vn 0 -0.93386203 0.35763368
vn 0 -0.7763628 0.6302862
vn 0 -0.93386203 0.35763368
vn 0 -0.93386203 0.35763368
vn 0 -0.93386203 0.35763368
vn 0 -0.77636284 0.6302863
vn 0 -0.7763628 0.6302862
vn 0.3467177 -0.9376834 0.02316817
vn -0.3467176 -0.9376834 0.023168175
vn -0.30590048 -0.87108934 -0.38422436
vn -0.30590048 -0.87108934 -0.38422436
vn 0.30590057 -0.87108934 -0.3842243
vn 0.3467177 -0.9376834 0.02316817
vn -0.30590048 -0.87108934 -0.38422436
vn -0.20389152 -0.5352342 -0.8197272
vn 0.2038915 -0.53523415 -0.8197271
vn 0.2038915 -0.53523415 -0.8197271
vn 0.30590057 -0.87108934 -0.3842243
vn -0.30590048 -0.87108934 -0.38422436
vn -0.31725645 -0.89084786 0.3251744
vn -0.3467176 -0.9376834 0.023168175
vn 0.3467177 -0.9376834 0.02316817
vn 0.3467177 -0.9376834 0.02316817
vn 0.31725645 -0.89084786 0.32517442
vn -0.31725645 -0.89084786 0.3251744
vn -0.23940837 -0.6529115 0.71860296
vn -0.31725645 -0.89084786 0.3251744
vn 0.31725645 -0.89084786 0.32517442
vn 0.31725645 -0.89084786 0.32517442
vn 0.23940836 -0.6529115 0.7186029
vn -0.23940837 -0.6529115 0.71860296
vn 0 -0.9996932 0.024769222
vn 0 -0.90445685 -0.42656514
vn 0 -0.90445685 -0.4265651
vn 0 -0.90445685 -0.4265651
vn 0 -0.9996932 0.024769224
vn 0 -0.9996932 0.024769222
vn 0 -0.90445685 -0.42656514
vn 0 -0.6360845 -0.7716195
vn 0 -0.63608444 -0.7716195
vn 0 -0.63608444 -0.7716195
vn 0 -0.90445685 -0.4265651
vn 0 -0.90445685 -0.42656514
vn 0 -0.93386203 0.35763365
vn 0 -0.9996932 0.024769222
vn 0 -0.9996932 0.024769224
vn 0 -0.9996932 0.024769224
vn 0 -0.9338619 0.35763365
vn 0 -0.93386203 0.35763365
vn 0 -0.7763628 0.6302862
vn 0 -0.93386203 0.35763365
vn 0 -0.9338619 0.35763365
vn 0 -0.9338619 0.35763365
vn 0 -0.77636284 0.6302863
vn 0 -0.7763628 0.6302862
vn 0.3467177 -0.9376834 0.02316817
vn -0.34671757 -0.9376834 0.023168176
vn -0.3059005 -0.87108934 -0.3842243
vn -0.3059005 -0.87108934 -0.3842243
vn 0.30590057 -0.87108934 -0.3842243
vn 0.3467177 -0.9376834 0.02316817
vn -0.3059005 -0.87108934 -0.3842243
vn -0.20389152 -0.5352342 -0.8197272
vn 0.20389153 -0.5352342 -0.8197271
vn 0.20389153 -0.5352342 -0.8197271
vn 0.30590057 -0.87108934 -0.3842243
vn -0.3059005 -0.87108934 -0.3842243
vn -0.31725645 -0.89084786 0.32517436
vn -0.34671757 -0.9376834 0.023168176
vn 0.3467177 -0.9376834 0.02316817
vn 0.3467177 -0.9376834 0.02316817
vn 0.31725642 -0.89084786 0.32517442
vn -0.31725645 -0.89084786 0.32517436
vn -0.23940837 -0.6529115 0.71860296
vn -0.31725645 -0.89084786 0.32517436
vn 0.31725642 -0.89084786 0.32517442
vn 0.31725642 -0.89084786 0.32517442
vn 0.23940837 -0.6529115 0.71860296
vn -0.23940837 -0.6529115 0.71860296
vn 0 -1 -2.220446E-16
vn 1.5564938E-08 -0.90445685 -0.4265649
vn 0 -0.9044568 -0.4265651
vn 0 -1 -2.220446E-16
vn 0 -0.9044568 -0.4265651
vn -4.902811E-10 -0.9996933 0.024769235
vn 0 -1 -2.220446E-16
vn -4.902811E-10 -0.9996933 0.024769235
vn 0 -0.9996932 0.024769224
vn 1.5564938E-08 -0.90445685 -0.4265649
vn 3.0557914E-08 -0.6360847 -0.7716193
vn 2.4022717E-09 -0.63608444 -0.7716195
vn 2.4022717E-09 -0.63608444 -0.7716195
vn 0 -0.9044568 -0.4265651
vn 1.5564938E-08 -0.90445685 -0.4265649
vn -6.400269E-10 -0.93386203 0.35763362
vn 0 -0.9996932 0.024769224
vn -4.902811E-10 -0.9996933 0.024769235
vn -4.902811E-10 -0.9996933 0.024769235
vn -6.944412E-10 -0.933862 0.3576335
vn -6.400269E-10 -0.93386203 0.35763362
vn -8.768276E-10 -0.77636284 0.6302863
vn -6.400269E-10 -0.93386203 0.35763362
vn -6.944412E-10 -0.933862 0.3576335
vn -6.944412E-10 -0.933862 0.3576335
vn 0 -0.77636284 0.6302863
vn -8.768276E-10 -0.77636284 0.6302863
vn -0.20389168 -0.5352343 -0.819727
vn -0.30590045 -0.87108934 -0.3842243
vn -0.592044 -0.6897662 -0.4167811
vn -0.592044 -0.6897662 -0.4167811
vn -0.17973657 -0.45372173 -0.8728295
vn -0.20389168 -0.5352343 -0.819727
vn 0.20389152 -0.53523433 -0.81972706
vn -0.20389168 -0.5352343 -0.819727
vn -0.17973657 -0.45372173 -0.8728295
vn -0.17973657 -0.45372173 -0.8728295
vn 0.17973629 -0.45372167 -0.8728296
vn 0.20389152 -0.53523433 -0.81972706
vn 0.30590048 -0.87108934 -0.38422424
vn 0.20389152 -0.53523433 -0.81972706
vn 0.17973629 -0.45372167 -0.8728296
vn 0.17973629 -0.45372167 -0.8728296
vn 0.592044 -0.6897662 -0.416781
vn 0.30590048 -0.87108934 -0.38422424
vn 0.34851915 -0.9373017 -1.110223E-16
vn 0.30590048 -0.87108934 -0.38422424
vn 0.592044 -0.6897662 -0.416781
vn 0.592044 -0.6897662 -0.416781
vn 0.6533352 -0.7570689 -1.110223E-16
vn 0.34851915 -0.9373017 -1.110223E-16
vn 0.34671763 -0.9376834 0.023168178
vn 0.34851915 -0.9373017 -1.110223E-16
vn 0.6533352 -0.7570689 -1.110223E-16
vn 0.6533352 -0.7570689 -1.110223E-16
vn 0.6533021 -0.75686204 0.018878177
vn 0.34671763 -0.9376834 0.023168178
vn 0.31725645 -0.89084786 0.32517442
vn 0.34671763 -0.9376834 0.023168178
vn 0.6533021 -0.75686204 0.018878177
vn 0.6533021 -0.75686204 0.018878177
vn 0.6202045 -0.71581376 0.3208691
vn 0.31725645 -0.89084786 0.32517442
vn 0.23940837 -0.6529115 0.71860296
vn 0.31725645 -0.89084786 0.32517442
vn 0.6202045 -0.71581376 0.3208691
vn 0.6202045 -0.71581376 0.3208691
vn 0.23278168 -0.5637931 0.7924329
vn 0.23940837 -0.6529115 0.71860296
vn -0.23940837 -0.6529115 0.71860296
vn 0.23940837 -0.6529115 0.71860296
vn 0.23278168 -0.5637931 0.7924329
vn 0.23278168 -0.5637931 0.7924329
vn -0.23278172 -0.56379324 0.79243296
vn -0.23940837 -0.6529115 0.71860296
vn -0.31725645 -0.89084786 0.32517436
vn -0.23940837 -0.6529115 0.71860296
vn -0.23278172 -0.56379324 0.79243296
vn -0.23278172 -0.56379324 0.79243296
vn -0.6202045 -0.71581376 0.32086918
vn -0.31725645 -0.89084786 0.32517436
vn -0.3467176 -0.9376834 0.023168178
vn -0.31725645 -0.89084786 0.32517436
vn -0.6202045 -0.71581376 0.32086918
vn -0.6202045 -0.71581376 0.32086918
vn -0.6533021 -0.75686204 0.018878179
vn -0.3467176 -0.9376834 0.023168178
vn -0.30590045 -0.87108934 -0.3842243
vn -0.3467176 -0.9376834 0.023168178
vn -0.6533021 -0.75686204 0.018878179
vn -0.6533021 -0.75686204 0.018878179
vn -0.592044 -0.6897662 -0.4167811
vn -0.30590045 -0.87108934 -0.3842243
vn 0.31725642 -0.89084786 0.32517442
vn 0.34671763 -0.9376834 0.023168178
vn 0.6533021 -0.75686204 0.018878173
vn 0.6533021 -0.75686204 0.018878173
vn 0.6202045 -0.71581376 0.3208691
vn 0.31725642 -0.89084786 0.32517442
vn 0.23940836 -0.6529115 0.7186029
vn 0.31725642 -0.89084786 0.32517442
vn 0.6202045 -0.71581376 0.3208691
vn 0.6202045 -0.71581376 0.3208691
vn 0.23278168 -0.5637932 0.79243296
vn 0.23940836 -0.6529115 0.7186029
vn -0.23940837 -0.6529115 0.71860296
vn 0.23940836 -0.6529115 0.7186029
vn 0.23278168 -0.5637932 0.79243296
vn 0.23278168 -0.5637932 0.79243296
vn -0.23278171 -0.56379324 0.7924329
vn -0.23940837 -0.6529115 0.71860296
vn -0.31725642 -0.89084786 0.32517433
vn -0.23940837 -0.6529115 0.71860296
vn -0.23278171 -0.56379324 0.7924329
vn -0.23278171 -0.56379324 0.7924329
vn -0.6202045 -0.71581376 0.32086918
vn -0.31725642 -0.89084786 0.32517433
vn -0.3467176 -0.9376834 0.023168178
vn -0.31725642 -0.89084786 0.32517433
vn -0.6202045 -0.71581376 0.32086918
vn -0.6202045 -0.71581376 0.32086918
vn -0.6533021 -0.75686204 0.018878179
vn -0.3467176 -0.9376834 0.023168178
vn -0.3059005 -0.87108934 -0.3842243
vn -0.3467176 -0.9376834 0.023168178
vn -0.6533021 -0.75686204 0.018878179
vn -0.6533021 -0.75686204 0.018878179
vn -0.59204394 -0.6897662 -0.41678107
vn -0.3059005 -0.87108934 -0.3842243
vn -0.20389152 -0.5352342 -0.8197271
vn -0.3059005 -0.87108934 -0.3842243
vn -0.59204394 -0.6897662 -0.41678107
vn -0.59204394 -0.6897662 -0.41678107
vn -0.17973638 -0.45372164 -0.8728295
vn -0.20389152 -0.5352342 -0.8197271
vn 0.20389153 -0.5352342 -0.8197271
vn -0.20389152 -0.5352342 -0.8197271
vn -0.17973638 -0.45372164 -0.8728295
vn -0.17973638 -0.45372164 -0.8728295
vn 0.1797364 -0.45372167 -0.87282956
vn 0.20389153 -0.5352342 -0.8197271
vn 0.30590057 -0.87108934 -0.3842243
vn 0.20389153 -0.5352342 -0.8197271
vn 0.1797364 -0.45372167 -0.87282956
vn 0.1797364 -0.45372167 -0.87282956
vn 0.592044 -0.6897662 -0.41678116
vn 0.30590057 -0.87108934 -0.3842243
vn 0.6533351 -0.75706875 -1.110223E-16
vn 0.6533021 -0.75686204 0.018878173
vn 0.34671763 -0.9376834 0.023168178
vn 0.6533351 -0.75706875 -1.110223E-16
vn 0.34671763 -0.9376834 0.023168178
vn 0.30590057 -0.87108934 -0.3842243
vn 0.6533351 -0.75706875 -1.110223E-16
vn 0.30590057 -0.87108934 -0.3842243
vn 0.592044 -0.6897662 -0.41678116
vn 0.3467177 -0.9376833 0.02316817
vn 0.30590057 -0.87108934 -0.3842243
vn 0.59204394 -0.6897663 -0.416781
vn 0.59204394 -0.6897663 -0.416781
vn 0.6533021 -0.75686204 0.018878173
vn 0.3467177 -0.9376833 0.02316817
vn 0.31725645 -0.89084786 0.32517442
vn 0.3467177 -0.9376833 0.02316817
vn 0.6533021 -0.75686204 0.018878173
vn 0.6533021 -0.75686204 0.018878173
vn 0.6202045 -0.71581376 0.3208691
vn 0.31725645 -0.89084786 0.32517442
vn 0.23940837 -0.6529115 0.71860296
vn 0.31725645 -0.89084786 0.32517442
vn 0.6202045 -0.71581376 0.3208691
vn 0.6202045 -0.71581376 0.3208691
vn 0.23278175 -0.56379324 0.7924329
vn 0.23940837 -0.6529115 0.71860296
vn -0.23940837 -0.6529115 0.71860296
vn 0.23940837 -0.6529115 0.71860296
vn 0.23278175 -0.56379324 0.7924329
vn 0.23278175 -0.56379324 0.7924329
vn -0.23278168 -0.5637932 0.7924329
vn -0.23940837 -0.6529115 0.71860296
vn -0.31725645 -0.89084786 0.3251744
vn -0.23940837 -0.6529115 0.71860296
vn -0.23278168 -0.5637932 0.7924329
vn -0.23278168 -0.5637932 0.7924329
vn -0.6202045 -0.71581376 0.32086918
vn -0.31725645 -0.89084786 0.3251744
vn -0.3467176 -0.9376834 0.023168178
vn -0.31725645 -0.89084786 0.3251744
vn -0.6202045 -0.71581376 0.32086918
vn -0.6202045 -0.71581376 0.32086918
vn -0.6533021 -0.75686204 0.018878179
vn -0.3467176 -0.9376834 0.023168178
vn -0.3059005 -0.87108934 -0.38422433
vn -0.3467176 -0.9376834 0.023168178
vn -0.6533021 -0.75686204 0.018878179
vn -0.6533021 -0.75686204 0.018878179
vn -0.59204394 -0.6897662 -0.41678107
vn -0.3059005 -0.87108934 -0.38422433
vn -0.20389152 -0.5352342 -0.8197271
vn -0.3059005 -0.87108934 -0.38422433
vn -0.59204394 -0.6897662 -0.41678107
vn -0.59204394 -0.6897662 -0.41678107
vn -0.17973638 -0.45372173 -0.87282956
vn -0.20389152 -0.5352342 -0.8197271
vn 0.20389152 -0.5352342 -0.8197271
vn -0.20389152 -0.5352342 -0.8197271
vn -0.17973638 -0.45372173 -0.87282956
vn -0.17973638 -0.45372173 -0.87282956
vn 0.1797364 -0.45372167 -0.87282956
vn 0.20389152 -0.5352342 -0.8197271
vn 0.30590057 -0.87108934 -0.3842243
vn 0.20389152 -0.5352342 -0.8197271
vn 0.1797364 -0.45372167 -0.87282956
vn 0.1797364 -0.45372167 -0.87282956
vn 0.59204394 -0.6897663 -0.416781
vn 0.30590057 -0.87108934 -0.3842243
vn 0.34671766 -0.9376834 0.023168175
vn 0.30590057 -0.87108934 -0.3842243
vn 0.59204394 -0.6897663 -0.416781
vn 0.59204394 -0.6897663 -0.416781
vn 0.6533021 -0.75686204 0.018878173
vn 0.34671766 -0.9376834 0.023168175
vn 0.31725645 -0.89084786 0.32517442
vn 0.34671766 -0.9376834 0.023168175
vn 0.6533021 -0.75686204 0.018878173
vn 0.6533021 -0.75686204 0.018878173
vn 0.6202045 -0.71581376 0.3208691
vn 0.31725645 -0.89084786 0.32517442
vn 0.23940833 -0.6529115 0.7186029
vn 0.31725645 -0.89084786 0.32517442
vn 0.6202045 -0.71581376 0.3208691
vn 0.6202045 -0.71581376 0.3208691
vn 0.23278172 -0.5637932 0.7924329
vn 0.23940833 -0.6529115 0.7186029
vn -0.23940837 -0.6529115 0.71860296
vn 0.23940833 -0.6529115 0.7186029
vn 0.23278172 -0.5637932 0.7924329
vn 0.23278172 -0.5637932 0.7924329
vn -0.23278172 -0.56379324 0.79243296
vn -0.23940837 -0.6529115 0.71860296
vn -0.31725642 -0.89084786 0.32517436
vn -0.23940837 -0.6529115 0.71860296
vn -0.23278172 -0.56379324 0.79243296
vn -0.23278172 -0.56379324 0.79243296
vn -0.6202045 -0.71581376 0.32086918
vn -0.31725642 -0.89084786 0.32517436
vn -0.3467176 -0.9376834 0.023168178
vn -0.31725642 -0.89084786 0.32517436
vn -0.6202045 -0.71581376 0.32086918
vn -0.6202045 -0.71581376 0.32086918
vn -0.6533021 -0.75686204 0.018878179
vn -0.3467176 -0.9376834 0.023168178
vn -0.30590048 -0.87108934 -0.38422427
vn -0.3467176 -0.9376834 0.023168178
vn -0.6533021 -0.75686204 0.018878179
vn -0.6533021 -0.75686204 0.018878179
vn -0.59204394 -0.6897662 -0.41678107
vn -0.30590048 -0.87108934 -0.38422427
vn -0.20389152 -0.5352342 -0.8197271
vn -0.30590048 -0.87108934 -0.38422427
vn -0.59204394 -0.6897662 -0.41678107
vn -0.59204394 -0.6897662 -0.41678107
vn -0.1797364 -0.45372173 -0.8728296
vn -0.20389152 -0.5352342 -0.8197271
vn 0.20389153 -0.5352342 -0.8197271
vn -0.20389152 -0.5352342 -0.8197271
vn -0.1797364 -0.45372173 -0.8728296
vn -0.1797364 -0.45372173 -0.8728296
vn 0.1797364 -0.45372167 -0.87282956
vn 0.20389153 -0.5352342 -0.8197271
vn 0.30590057 -0.87108934 -0.3842243
vn 0.20389153 -0.5352342 -0.8197271
vn 0.1797364 -0.45372167 -0.87282956
vn 0.1797364 -0.45372167 -0.87282956
vn 0.59204394 -0.6897663 -0.416781
vn 0.30590057 -0.87108934 -0.3842243
vn 0.3467177 -0.9376834 0.02316817
vn 0.30590057 -0.87108934 -0.3842243
vn 0.59204394 -0.6897663 -0.416781
vn 0.59204394 -0.6897663 -0.416781
vn 0.6533021 -0.75686204 0.018878173
vn 0.3467177 -0.9376834 0.02316817
vn 0.31725645 -0.89084786 0.32517442
vn 0.3467177 -0.9376834 0.02316817
vn 0.6533021 -0.75686204 0.018878173
vn 0.6533021 -0.75686204 0.018878173
vn 0.6202045 -0.71581376 0.3208691
vn 0.31725645 -0.89084786 0.32517442
vn 0.23940836 -0.6529115 0.7186029
vn 0.31725645 -0.89084786 0.32517442
vn 0.6202045 -0.71581376 0.3208691
vn 0.6202045 -0.71581376 0.3208691
vn 0.23278175 -0.5637932 0.7924328
vn 0.23940836 -0.6529115 0.7186029
vn -0.23940837 -0.6529115 0.71860296
vn 0.23940836 -0.6529115 0.7186029
vn 0.23278175 -0.5637932 0.7924328
vn 0.23278175 -0.5637932 0.7924328
vn -0.23278168 -0.5637932 0.7924329
vn -0.23940837 -0.6529115 0.71860296
vn -0.31725645 -0.89084786 0.3251744
vn -0.23940837 -0.6529115 0.71860296
vn -0.23278168 -0.5637932 0.7924329
vn -0.23278168 -0.5637932 0.7924329
vn -0.6202045 -0.71581376 0.32086918
vn -0.31725645 -0.89084786 0.3251744
vn -0.3467176 -0.9376834 0.023168175
vn -0.31725645 -0.89084786 0.3251744
vn -0.6202045 -0.71581376 0.32086918
vn -0.6202045 -0.71581376 0.32086918
vn -0.6533021 -0.75686204 0.018878179
vn -0.3467176 -0.9376834 0.023168175
vn -0.30590048 -0.87108934 -0.38422436
vn -0.3467176 -0.9376834 0.023168175
vn -0.6533021 -0.75686204 0.018878179
vn -0.6533021 -0.75686204 0.018878179
vn -0.59204394 -0.6897662 -0.41678107
vn -0.30590048 -0.87108934 -0.38422436
vn -0.20389152 -0.5352342 -0.8197272
vn -0.30590048 -0.87108934 -0.38422436
vn -0.59204394 -0.6897662 -0.41678107
vn -0.59204394 -0.6897662 -0.41678107
vn -0.17973635 -0.45372167 -0.8728297
vn -0.20389152 -0.5352342 -0.8197272
vn 0.2038915 -0.53523415 -0.8197271
vn -0.20389152 -0.5352342 -0.8197272
vn -0.17973635 -0.45372167 -0.8728297
vn -0.17973635 -0.45372167 -0.8728297
vn 0.1797364 -0.45372167 -0.87282956
vn 0.2038915 -0.53523415 -0.8197271
vn 0.30590057 -0.87108934 -0.3842243
vn 0.2038915 -0.53523415 -0.8197271
vn 0.1797364 -0.45372167 -0.87282956
vn 0.1797364 -0.45372167 -0.87282956
vn 0.59204394 -0.6897663 -0.416781
vn 0.30590057 -0.87108934 -0.3842243
vn 0.3467177 -0.9376834 0.02316817
vn 0.30590057 -0.87108934 -0.3842243
vn 0.59204394 -0.6897663 -0.416781
vn 0.59204394 -0.6897663 -0.416781
vn 0.6533021 -0.75686204 0.018878173
vn 0.3467177 -0.9376834 0.02316817
vn 0.31725642 -0.89084786 0.32517442
vn 0.3467177 -0.9376834 0.02316817
vn 0.6533021 -0.75686204 0.018878173
vn 0.6533021 -0.75686204 0.018878173
vn 0.6202045 -0.71581376 0.3208691
vn 0.31725642 -0.89084786 0.32517442
vn 0.23940837 -0.6529115 0.71860296
vn 0.31725642 -0.89084786 0.32517442
vn 0.6202045 -0.71581376 0.3208691
vn 0.6202045 -0.71581376 0.3208691
vn 0.23278172 -0.5637932 0.79243296
vn 0.23940837 -0.6529115 0.71860296
vn -0.23940837 -0.6529115 0.71860296
vn 0.23940837 -0.6529115 0.71860296
vn 0.23278172 -0.5637932 0.79243296
vn 0.23278172 -0.5637932 0.79243296
vn -0.23278172 -0.56379324 0.79243296
vn -0.23940837 -0.6529115 0.71860296
vn -0.31725645 -0.89084786 0.32517436
vn -0.23940837 -0.6529115 0.71860296
vn -0.23278172 -0.56379324 0.79243296
vn -0.23278172 -0.56379324 0.79243296
vn -0.6202045 -0.71581376 0.32086918
vn -0.31725645 -0.89084786 0.32517436
vn -0.34671757 -0.9376834 0.023168176
vn -0.31725645 -0.89084786 0.32517436
vn -0.6202045 -0.71581376 0.32086918
vn -0.6202045 -0.71581376 0.32086918
vn -0.6533021 -0.75686204 0.018878179
vn -0.34671757 -0.9376834 0.023168176
vn -0.3059005 -0.87108934 -0.3842243
vn -0.34671757 -0.9376834 0.023168176
vn -0.6533021 -0.75686204 0.018878179
vn -0.6533021 -0.75686204 0.018878179
vn -0.59204394 -0.6897662 -0.41678107
vn -0.3059005 -0.87108934 -0.3842243
vn -0.20389152 -0.5352342 -0.8197272
vn -0.3059005 -0.87108934 -0.3842243
vn -0.59204394 -0.6897662 -0.41678107
vn -0.59204394 -0.6897662 -0.41678107
vn -0.17973638 -0.45372164 -0.87282956
vn -0.20389152 -0.5352342 -0.8197272
vn 0.20389153 -0.5352342 -0.8197271
vn -0.20389152 -0.5352342 -0.8197272
vn -0.17973638 -0.45372164 -0.87282956
vn -0.17973638 -0.45372164 -0.87282956
vn 0.1797364 -0.45372167 -0.87282956
vn 0.20389153 -0.5352342 -0.8197271
vn 0.30590057 -0.87108934 -0.3842243
vn 0.20389153 -0.5352342 -0.8197271
vn 0.1797364 -0.45372167 -0.87282956
vn 0.1797364 -0.45372167 -0.87282956
vn 0.59204394 -0.6897663 -0.416781
vn 0.30590057 -0.87108934 -0.3842243
vn -1 0 0
vn -1 0 0
vn -1 0 0
vn -1 0 0
vn -1 0 0
vn -1 0 0
vn -1 0 0
vn -1 0 0
vn -1 0 0
vn -1 0 0
vn -1 0 0
vn -1 0 0
vn -1 0 0
vn -1 0 0
vn -0.99996275 -1.7347235E-18 0.008632179
vn -1 0 0
vn -1 0 0
vn -1 0 0
vn -1 0 0
vn -1 0 0
vn -1 0 0
vn -0.99999994 0 0
vn -1 0 0
vn -1 0 0
vn -1 0 0
vn -1 0 0
vn -1 0 0
vn -1 0 0
vn -1 0 0
vn -1 0 0
vn -1 0 0
vn -1 0 0
vn -1 0 0
vn -1 0 0
vn -1 0 0
vn -1 0 0
vn -1 0 0
vn -1 0 0
vn -0.9999995 -1.1035565E-09 0.00092728983
vn -1.4158917E-08 0.99653935 -0.08312269
vn 0 0.9965402 -0.083111964
vn -6.415498E-10 0.9965399 -0.08311539
vn -6.415498E-10 0.9965399 -0.08311539
vn -1.1186602E-09 0.9974684 -0.07111009
vn -1.4158917E-08 0.99653935 -0.08312269
vn -1.1112264E-09 0.83164215 0.5553119
vn 0 0.83164215 0.55531186
vn -9.8176E-09 0.83164215 0.555312
vn 0 0.9999752 0.0070419568
vn 0 0.99997526 0.007041958
vn -0.0007801576 0.99533576 0.09646768
vn -0.0007801576 0.99533576 0.09646768
vn -0.0016824793 0.9885907 0.15061761
vn -0.0030849758 0.99124503 0.13199875
vn -0.0030849758 0.99124503 0.13199875
vn -0.0016824793 0.9885907 0.15061761
vn -0.0030164663 0.9973317 -0.07294081
vn -0.0030164663 0.9973317 -0.07294081
vn -0.0034281893 0.8870674 -0.46162724
vn -0.005156102 0.8739311 -0.4860223
vn -0.005156102 0.8739311 -0.4860223
vn -0.0034281893 0.8870674 -0.46162724
vn -0.0016962561 0.5840926 -0.81168514
vn -0.0016962561 0.5840926 -0.81168514
vn -8.425788E-10 0.3661485 -0.9305565
vn -0.0031312732 0.40500128 -0.91431075
vn -0.0031429117 0.47680843 0.8790017
vn 8.1770696E-10 0.42945632 0.9030877
vn 0.00013237158 0.64567 0.7636165
vn 0.00013237158 0.64567 0.7636165
vn -0.0004768718 0.8741898 0.48558414
vn -0.002430204 0.8212833 0.57051545
vn -0.002430204 0.8212833 0.57051545
vn -0.0004768718 0.8741898 0.48558414
vn -0.0007069757 0.9642654 0.2649374
vn -0.0007069757 0.9642654 0.2649374
vn 5.889101E-11 0.9999918 0.0040650065
vn -8.055294E-05 0.9999938 0.003527487
vn -8.055294E-05 0.9999938 0.003527487
vn 5.889101E-11 0.9999918 0.0040650065
vn -1.7283792E-05 0.9907135 -0.13596585
vn -1.7283792E-05 0.9907135 -0.13596585
vn 0 0.9959044 -0.09041196
vn -8.144493E-05 0.9959522 -0.08988474
vn -8.144493E-05 0.9959522 -0.08988474
vn 0 0.9959044 -0.09041196
vn 0 0.9995226 -0.030895498
vn 2.8813483E-08 0.8357058 -0.54917735
vn 3.1699173E-08 0.83570576 -0.54917735
vn 2.9363008E-09 0.83570594 -0.5491773
vn -0.018298144 0.9997825 0.010010401
vn 0.010089026 0.9999169 0.008031967
vn 0 1 2.220446E-16
vn 0.9999876 -8.6736174E-19 0.0049755215
vn 0.9999928 -4.3368087E-19 0.0038035612
vn 0.99999994 0.00022166925 0.000119899734
vn 0.99999994 0.00022166925 0.000119899734
vn 0.9999994 0.001118055 -0.00019704395
vn 0.99999976 0.0007096557 -4.5565415E-05
vn 0.99999976 0.0007096557 -4.5565415E-05
vn 0.9999994 0.001118055 -0.00019704395
vn 1 0.0002087203 -0.00016270067
vn 1 0.0002087203 -0.00016270067
vn 1 0 0
vn 1 0 0
vn 1 0 0
vn 1 0 0
vn 1 0 0
vn 1 0 0
vn 1 0 0
vn 1 0 0
vn 1 0 0
vn 1 0 0
vn 1 0 0
vn 0.99999994 0 0
vn 1 0 0
vn 1 0 0
vn 1 0 0
vn 1 0 0
vn 1 0 0
vn 1 0 0
vn 0.99999994 0 0
vn 1 0 0
vn 1 0 0
vn 0.99999994 0 0
vn 1 0 0
vn 1 0 0
vn 1 0 0
vn 1 0 0
vn 1 0 0
vn 1 0 0
vn 0.9999999 -5.3542254E-10 0.0004499017
vn -0.007324129 -0.9944905 0.10457112
vn 0 -0.99371326 0.11195452
vn 0.003216677 -0.9998881 0.014611342
vn -0.007324129 -0.9944905 0.10457112
vn 0.003216677 -0.9998881 0.014611342
vn 0.0046029324 -0.9999881 -0.0016169283
vn -0.007324129 -0.9944905 0.10457112
vn 0.0046029324 -0.9999881 -0.0016169283
vn 0.0023618345 -0.99998534 0.004875668
vn -0.007324129 -0.9944905 0.10457112
vn 0.0023618345 -0.99998534 0.004875668
vn 0.09156313 -0.9845083 -0.14953135
vn -0.007324129 -0.9944905 0.10457112
vn 0.09156313 -0.9845083 -0.14953135
vn 0.08532396 -0.98467577 -0.15209739
vn 0 -0.99371326 0.11195452
vn -0.007324129 -0.9944905 0.10457112
vn 0 -0.982903 0.18412381
vn -0.99999994 0 0
vn -1 0 0
vn -0.036014847 -0.9990322 0.025251104
vn 4.5026405E-09 -0.9998079 0.01960076
vn 0.039624214 -0.9990227 0.019585362
vn -0.004517747 -0.71387154 -0.7002621
vn -6.093984E-10 -0.99980783 0.01960075
vn 4.5026405E-09 -0.9998079 0.01960076
vn -0.004517747 -0.71387154 -0.7002621
vn 0 -0.99980783 0.019600753
vn -6.093984E-10 -0.99980783 0.01960075
vn -0.004517747 -0.71387154 -0.7002621
vn 0 -0.99980795 0.019600756
vn 0 -0.99980783 0.019600753
vn -0.004517747 -0.71387154 -0.7002621
vn 0 -0.99980795 0.019600756
vn 0 -0.99980795 0.019600756
vn -0.004517747 -0.71387154 -0.7002621
vn 0 -0.99980783 0.01960075
vn 0 -0.99980795 0.019600756
vn -0.004517747 -0.71387154 -0.7002621
vn 0 -0.99980795 0.019600755
vn 0 -0.99980783 0.01960075
vn -0.004517747 -0.71387154 -0.7002621
vn 0 -0.99980795 0.019600756
vn 0 -0.99980795 0.019600755
vn -0.004517747 -0.71387154 -0.7002621
vn 0 -0.99980795 0.019600755
vn 0 -0.99980795 0.019600756
vn -0.004517747 -0.71387154 -0.7002621
vn -0.0018002455 -0.99975044 0.022267947
vn 0 -0.99980795 0.019600755
vn -0.004517747 -0.71387154 -0.7002621
vn -0.004517747 -0.71387154 -0.7002621
vn -1 0 0
vn -0.21330287 -0.97690827 0.01233272
vn -0.0018002455 -0.99975044 0.022267947
vn -0.004517747 -0.71387154 -0.7002621
vn -0.21330287 -0.97690827 0.01233272
vn -0.036014847 -0.9990322 0.025251104
vn -0.0018002455 -0.99975044 0.022267947
vn -0.21330287 -0.97690827 0.01233272
vn -0.99999994 0 0
vn -0.036014847 -0.9990322 0.025251104
vn -0.21330287 -0.97690827 0.01233272
# 1446 vertex normals

vt 0.65908325 0.9824674 0
vt 0.6446787 0.9824674 0
vt 0.27145976 0.9807509 0
vt 0.24595053 0.9807509 0
vt 0.9251171 0.67447925 0
vt 0.83680356 0.018965025 0
vt 0.090673044 0.47551623 0
vt 0.090452515 0.07018425 0
vt 0.8630103 0.49840078 0
vt 0.8630103 0.9733784 0
vt 0.856991 0.9733784 0
vt 0.856991 0.5036716 0
vt 0.92783433 0.012671228 0
vt 0.8988295 0.25215426 0
vt 0.9309141 0.029111791 0
vt 0.899445 0.31584626 0
vt 0.8276684 0.5025642 0
vt 0.8276684 0.97754097 0
vt 0.8203057 0.97754097 0
vt 0.8203057 0.9720944 0
vt 0.89944464 0.3360338 0
vt 0.89856845 0.6800163 0
vt 0.8988294 0.39972574 0
vt 0.8979853 0.7645964 0
vt 0.15135527 0.07015107 0
vt 0.21199112 0.47550696 0
vt 0.65908325 0.56631446 0
vt 0.21196438 0.07011811 0
vt 0.3882484 0.98246765 0
vt 0.27570298 0.07011248 0
vt 0.18259339 0.9807509 0
vt 0.89304155 0.39972574 0
vt 0.12252134 0.9807509 0
vt 0.89208215 0.31584626 0
vt 0.002 0.07397098 0
vt 0.3286286 0.47567594 0
vt 0.119440906 0.006911724 0
vt 0.061510928 0.9807509 0
vt 0.8920819 0.3360338 0
vt 0.005673631 0.9807509 0
vt 0.8930417 0.25215426 0
vt 0.31498066 0.070112385 0
vt 0.3882484 0.972348 0
vt 0.3303849 0.0701059 0
vt 0.119440906 0.04006424 0
vt 0.005673495 0.5643525 0
vt 0.89779526 0.46931896 0
vt 0.061510794 0.5643525 0
vt 0.8977955 0.1825611 0
vt 0.3882484 0.89808613 0
vt 0.3882484 0.88761973 0
vt 0.35191983 0.07007014 0
vt 0.070267 0.007750973 0
vt 0.12252134 0.5643525 0
vt 0.8920644 0.46931896 0
vt 0.18259339 0.5643525 0
vt 0.8920645 0.1825611 0
vt 0.3008747 0.47567704 0
vt 0.3882484 0.8258179 0
vt 0.30087462 0.07011248 0
vt 0.180321 0.007766228 0
vt 0.35263032 0.47563395 0
vt 0.31120563 0.47567743 0
vt 0.33030823 0.99610883 0
vt 0.783078 0.60953385 0
vt 0.27570298 0.47567695 0
vt 0.07376174 0.53943324 0
vt 0.3882484 0.8143547 0
vt 0.24026437 0.00952297 0
vt 0.30118164 0.99610883 0
vt 0.772125 0.57113653 0
vt 0.30118164 0.989266 0
vt 0.80296296 0.60953385 0
vt 0.45508096 0.4732136 0
vt 0.4165561 0.53609306 0
vt 0.42969632 0.06779529 0
vt 0.24026437 0.050944205 0
vt 0.3882484 0.7510577 0
vt 0.8908239 0.7645964 0
vt 0.3882484 0.7405911 0
vt 0.9231861 0.029111791 0
vt 0.45264456 0.06783598 0
vt 0.40956554 0.4921304 0
vt 0.5295641 0.06782967 0
vt 0.38681117 0.041080553 0
vt 0.3882484 0.6777925 0
vt 0.8872445 0.6800163 0
vt 0.3882484 0.66583085 0
vt 0.92181486 0.012671228 0
vt 0.57484424 0.4731848 0
vt 0.3882484 0.5751217 0
vt 0.5747209 0.06781583 0
vt 0.37576333 0.016280051 0
vt 0.3882484 0.56631446 0
vt 0.8979052 0.81545264 0
vt 0.4050036 0.56631446 0
vt 0.9335403 0.30266345 0
vt 0.64122164 0.06779563 0
vt 0.47910908 0.56631446 0
vt 0.41143483 0.47310758 0
vt 0.37576333 0.002 0
vt 0.5236675 0.56631446 0
vt 0.89100105 0.81545264 0
vt 0.5902706 0.56631446 0
vt 0.9290468 0.32178694 0
vt 0.38349655 0.06758066 0
vt 0.6446787 0.56631446 0
vt 0.7493124 0.47047862 0
vt 0.49939358 0.006414229 0
vt 0.5902706 0.98246765 0
vt 0.8983777 0.8914697 0
vt 0.5236675 0.98246765 0
vt 0.9196325 0.3232839 0
vt 0.9255126 0.6542085 0
vt 0.9251171 0.69511324 0
vt 0.31947407 0.989266 0
vt 0.8006555 0.5725512 0
vt 0.33030823 0.989266 0
vt 0.8968485 0.11403866 0
vt 0.15157592 0.47548318 0
vt 0.47910908 0.98246765 0
vt 0.41064596 0.06772671 0
vt 0.30348593 0.012389659 0
vt 0.2962285 0.99610883 0
vt 0.79814523 0.57987624 0
vt 0.2962285 0.989266 0
vt 0.8023988 0.61892194 0
vt 0.641345 0.47316438 0
vt 0.4050036 0.98246765 0
vt 0.5295641 0.473199 0
vt 0.32886004 0.014243154 0
vt 0.35655364 0.99610883 0
vt 0.772125 0.578137 0
vt 0.35655364 0.989266 0
vt 0.783078 0.6171213 0
vt 0.429182 0.4731665 0
vt 0.43459442 0.5383534 0
vt 0.3812874 0.47294337 0
vt 0.49939358 0.05317803 0
vt 0.36344904 0.99610883 0
vt 0.8918775 0.8914697 0
vt 0.36344904 0.989266 0
vt 0.7713006 0.60953385 0
vt 0.24595053 0.5643525 0
vt 0.50858444 0.49403077 0
vt 0.27145976 0.5643525 0
vt 0.42277402 0.05996549 0
vt 0.73371273 0.6749328 0
vt 0.7442616 0.6749997 0
vt 0.7442278 0.6803635 0
vt 0.95917636 0.6393287 0
vt 0.95372814 0.6393287 0
vt 0.95372814 0.5756766 0
vt 0.9590934 0.5756766 0
vt 0.9578225 0.6318477 0
vt 0.27145976 0.5731649 0
vt 0.27145976 0.6639275 0
vt 0.95995015 0.012671228 0
vt 0.95995015 0.041731637 0
vt 0.9537279 0.041731637 0
vt 0.9537279 0.012671228 0
vt 0.81539446 0.6541521 0
vt 0.8015456 0.65425277 0
vt 0.8015004 0.64803183 0
vt 0.8153492 0.64793116 0
vt 0.7754682 0.6544423 0
vt 0.91963404 0.6542917 0
vt 0.91963404 0.6378501 0
vt 0.92593163 0.6378501 0
vt 0.9196337 0.57573724 0
vt 0.9258587 0.57573724 0
vt 0.9196333 0.49966708 0
vt 0.91974956 0.69511324 0
vt 0.91974956 0.67447925 0
vt 0.9251171 0.7797487 0
vt 0.91974956 0.7797487 0
vt 0.9251171 0.8306383 0
vt 0.73367876 0.6802968 0
vt 0.76366544 0.675122 0
vt 0.9537279 0.50606793 0
vt 0.9590934 0.50606793 0
vt 0.9537279 0.43749943 0
vt 0.9590933 0.43749943 0
vt 0.9537278 0.3651473 0
vt 0.9590933 0.3651473 0
vt 0.76363176 0.68048614 0
vt 0.775457 0.6751958 0
vt 0.77542335 0.68055993 0
vt 0.8015349 0.6753588 0
vt 0.8015012 0.680723 0
vt 0.91974956 0.8306383 0
vt 0.9251171 0.9067054 0
vt 0.91974956 0.9067054 0
vt 0.9251171 0.9688444 0
vt 0.9196325 0.9688444 0
vt 0.27145976 0.6758963 0
vt 0.27145976 0.7387319 0
vt 0.9251171 0.985296 0
vt 0.919843 0.985296 0
vt 0.27145976 0.74920446 0
vt 0.27145976 0.81253874 0
vt 0.27145976 0.82400876 0
vt 0.27145976 0.88584703 0
vt 0.27145976 0.89631945 0
vt 0.27145976 0.9706254 0
vt 0.9599499 0.11407867 0
vt 0.9258582 0.49966708 0
vt 0.919633 0.4487777 0
vt 0.92585784 0.4487777 0
vt 0.9196325 0.3641214 0
vt 0.9537279 0.11407867 0
vt 0.9599499 0.1826431 0
vt 0.9537278 0.1826431 0
vt 0.9599498 0.25224772 0
vt 0.8644731 0.012671228 0
vt 0.83680356 0.48216626 0
vt 0.30118135 0.56841975 0
vt 0.856991 0.47821322 0
vt 0.30118135 0.5629546 0
vt 0.856991 0.49840078 0
vt 0.8203057 0.48237672 0
vt 0.856991 0.0140245585 0
vt 0.8203057 0.50790375 0
vt 0.8644731 0.4778917 0
vt 0.8203057 0.5025642 0
vt 0.33030808 0.5629546 0
vt 0.33030808 0.56841975 0
vt 0.2962285 0.56841975 0
vt 0.2962285 0.5629546 0
vt 0.35655364 0.5629546 0
vt 0.35655364 0.56841975 0
vt 0.36344904 0.5629546 0
vt 0.36344904 0.56841975 0
vt 0.3011669 0.66555 0
vt 0.3011667 0.5703107 0
vt 0.33029348 0.5703107 0
vt 0.33029348 0.66555 0
vt 0.29501116 0.66555 0
vt 0.29501116 0.5703107 0
vt 0.35653904 0.5703107 0
vt 0.35653904 0.66555 0
vt 0.36490253 0.5703107 0
vt 0.36490253 0.66555 0
vt 0.30118147 0.67621815 0
vt 0.30118147 0.66744083 0
vt 0.33030808 0.66744083 0
vt 0.33030808 0.67621815 0
vt 0.2962285 0.67621815 0
vt 0.2962285 0.66744083 0
vt 0.35655364 0.66744083 0
vt 0.35655364 0.67621815 0
vt 0.36344904 0.66744083 0
vt 0.36344904 0.67621815 0
vt 0.3011669 0.7440439 0
vt 0.3011669 0.67810893 0
vt 0.33029348 0.67810893 0
vt 0.33029348 0.7440439 0
vt 0.29501116 0.7440439 0
vt 0.29501116 0.67810893 0
vt 0.35653904 0.67810893 0
vt 0.35653904 0.7440439 0
vt 0.36490253 0.67810893 0
vt 0.36490253 0.7440439 0
vt 0.30118147 0.7531421 0
vt 0.30118147 0.7459348 0
vt 0.33030808 0.7459348 0
vt 0.33030808 0.7531421 0
vt 0.2962285 0.7531421 0
vt 0.2962285 0.7459348 0
vt 0.35655364 0.7459348 0
vt 0.35655364 0.7531421 0
vt 0.36344904 0.7459348 0
vt 0.36344904 0.7531421 0
vt 0.3011669 0.8214911 0
vt 0.3011669 0.7550331 0
vt 0.33029348 0.7550331 0
vt 0.33029348 0.8214911 0
vt 0.29501116 0.8214911 0
vt 0.29501116 0.7550331 0
vt 0.35653904 0.7550331 0
vt 0.35653904 0.8214911 0
vt 0.36490253 0.7550331 0
vt 0.36490253 0.8214911 0
vt 0.30118147 0.83163613 0
vt 0.30118147 0.82338196 0
vt 0.33030808 0.82338196 0
vt 0.33030808 0.83163613 0
vt 0.2962285 0.83163613 0
vt 0.2962285 0.82338196 0
vt 0.35655364 0.82338196 0
vt 0.35655364 0.83163613 0
vt 0.36344904 0.82338196 0
vt 0.36344904 0.83163613 0
vt 0.3011669 0.8984153 0
vt 0.3011669 0.83352685 0
vt 0.33029348 0.83352685 0
vt 0.33029348 0.8984153 0
vt 0.29501116 0.8984153 0
vt 0.29501116 0.83352685 0
vt 0.35653904 0.83352685 0
vt 0.35653904 0.8984153 0
vt 0.36490253 0.83352685 0
vt 0.36490253 0.8984153 0
vt 0.30118147 0.90751356 0
vt 0.30118147 0.9003061 0
vt 0.33030808 0.9003061 0
vt 0.33030808 0.90751356 0
vt 0.2962285 0.90751356 0
vt 0.2962285 0.9003061 0
vt 0.35655364 0.9003061 0
vt 0.35655364 0.90751356 0
vt 0.36344904 0.9003061 0
vt 0.36344904 0.90751356 0
vt 0.31945935 0.987375 0
vt 0.3011669 0.987375 0
vt 0.3011669 0.9094043 0
vt 0.33029348 0.9094043 0
vt 0.33029366 0.987375 0
vt 0.29501116 0.987375 0
vt 0.29501116 0.9094043 0
vt 0.35653904 0.9094043 0
vt 0.35653904 0.987375 0
vt 0.36490253 0.9094043 0
vt 0.36490253 0.987375 0
vt 0.3011669 0.9979999 0
vt 0.29501116 0.9979999 0
vt 0.36490253 0.9979999 0
vt 0.35653904 0.9979999 0
vt 0.33029366 0.9979999 0
vt 0.33029348 0.56106365 0
vt 0.35653904 0.56106365 0
vt 0.36490253 0.56106365 0
vt 0.29501116 0.56106365 0
vt 0.3011667 0.56106365 0
vt 0.31945935 0.56106365 0
vt 0.06083891 0.07508251 0
vt 0.06083891 0.48045143 0
vt 0.002 0.48094136 0
vt 0.68399215 0.06517269 0
vt 0.7493124 0.06527507 0
vt 0.68399215 0.47054234 0
vt 0.5438824 0.045438573 0
vt 0.6103818 0.0054928036 0
vt 0.6103818 0.044970233 0
vt 0.6647049 0.008697044 0
vt 0.4073652 0.011805818 0
vt 0.4005398 0.05428771 0
vt 0.39852518 0.0035214021 0
vt 0.42540345 0.009545345 0
vt 0.5438824 0.0062592 0
vt 0.3284313 0.055527464 0
vt 0.36249277 0.019812383 0
vt 0.35218996 0.038712 0
vt 0.36249277 0.0055322642 0
vt 0.33528796 0.0076209297 0
vt 0.3411522 0.04944667 0
vt 0.30348608 0.058805168 0
vt 0.180321 0.041946076 0
vt 0.35218996 0.006045727 0
vt 0.12289059 0.5071489 0
vt 0.12289059 0.5402718 0
vt 0.18371612 0.5052687 0
vt 0.18371612 0.5394179 0
vt 0.24360599 0.5376628 0
vt 0.3067712 0.48842472 0
vt 0.30677104 0.5347987 0
vt 0.34117696 0.49576148 0
vt 0.3554317 0.54113704 0
vt 0.33854485 0.53956336 0
vt 0.36572522 0.52738255 0
vt 0.36572522 0.5416499 0
vt 0.33212295 0.532947 0
vt 0.24360599 0.49591085 0
vt 0.33169407 0.4916995 0
vt 0.3554317 0.50573653 0
vt 0.5085843 0.54148453 0
vt 0.55307335 0.5416396 0
vt 0.61957246 0.50292856 0
vt 0.61957246 0.54240596 0
vt 0.67389554 0.53920174 0
vt 0.3849543 0.53161883 0
vt 0.40771607 0.54437727 0
vt 0.384954 0.54589885 0
vt 0.3959926 0.5035645 0
vt 0.43459442 0.48547342 0
vt 0.55307335 0.5024603 0
vt 0.8968484 0.5378412 0
vt 0.8900563 0.5378412 0
vt 0.8958891 0.61011106 0
vt 0.88677937 0.61011106 0
vt 0.8935012 0.63920873 0
vt 0.88466066 0.6391167 0
vt 0.7337709 0.57925403 0
vt 0.7404625 0.57113653 0
vt 0.7410265 0.5805245 0
vt 0.73367876 0.58809453 0
vt 0.7603478 0.57872397 0
vt 0.809747 0.57993203 0
vt 0.8082502 0.58934635 0
vt 0.8959423 0.95356786 0
vt 0.8882143 0.95356786 0
vt 0.8928625 0.9700086 0
vt 0.886843 0.9700086 0
vt 0.894075 0.6608932 0
vt 0.88466066 0.6593963 0
vt 0.9222165 0.30266345 0
vt 0.93295723 0.2180837 0
vt 0.92579573 0.2180837 0
vt 0.932877 0.16722722 0
vt 0.925973 0.16722722 0
vt 0.93334943 0.091210455 0
vt 0.9268492 0.091210455 0
vt 0.7713006 0.6165345 0
vt 0.8096545 0.6176513 0
vt 0.8097463 0.62649184 0
vt 0.7427704 0.6109485 0
vt 0.7452808 0.61827374 0
vt 0.73367876 0.6183295 0
vt 0.73517555 0.6277436 0
vt 0.89005667 0.11403866 0
vt 0.89588946 0.041768994 0
vt 0.8867795 0.041768994 0
vt 0.89350146 0.012671228 0
vt 0.88466066 0.012763071 0
vt 0.9537278 0.25224772 0
vt 0.95428795 0.3084166 0
vt 0.9599498 0.3158971 0
vt 0.95460933 0.3158971 0
vt 0.77542305 0.6482215 0
vt 0.76367676 0.6545278 0
vt 0.7636315 0.64830726 0
vt 0.74427265 0.65466887 0
vt 0.7442277 0.6484482 0
vt 0.733724 0.6547453 0
vt 0.73367876 0.64852494 0
vt 0.9258576 0.36412123 0
vt 0.9196325 0.3434714 0
vt 0.92585737 0.3434714 0
vt 0.8203057 0.012671228 0
vt 0.8203893 0.018546265 0
vt 0.8153836 0.67544514 0
vt 0.81535035 0.68080914 0
vt 0.9537278 0.33608466 0
vt 0.95909303 0.33608466 0
# 444 texture coords

usemtl 01 - Default
s 1
f 1/1/1 45/2/2 2/27/3
f 85/168/4 111/169/5 127/114/6
f 127/114/7 6/167/8 85/168/9
f 2/10/10 6/11/11 126/12/12
f 2/10/13 126/12/14 5/220/15
f 2/10/16 5/220/17 1/9/18
f 85/81/19 6/89/20 2/13/21
f 2/13/22 46/15/23 85/81/24
f 4/17/25 3/18/26 7/19/27
f 4/17/28 7/19/29 129/20/30
f 4/17/31 129/20/32 128/223/33
f 4/17/34 128/223/35 8/225/36
f 7/39/37 3/21/38 9/23/39
f 9/23/40 70/32/41 7/39/42
f 7/152/43 70/153/44 94/154/45
f 7/152/46 94/154/47 93/155/48
f 7/152/49 93/155/50 129/151/51
f 8/34/52 71/41/53 10/14/54
f 10/14/55 4/16/56 8/34/57
f 70/32/58 9/23/59 12/47/60
f 12/47/61 69/55/62 70/32/63
f 110/7/64 11/8/65 15/25/66
f 72/57/67 13/49/68 10/14/69
f 10/14/70 71/41/71 72/57/72
f 69/55/73 12/47/74 16/387/75
f 16/387/76 68/388/77 69/55/78
f 243/26/79 15/25/80 18/28/81
f 73/420/82 17/119/83 13/49/84
f 13/49/85 72/57/86 73/420/87
f 68/388/88 16/387/89 19/389/90
f 19/389/91 67/390/92 68/388/93
f 243/26/94 18/28/95 22/30/96
f 73/420/97 74/422/98 20/421/99
f 20/421/100 17/119/101 73/420/102
f 67/390/103 19/389/104 47/391/105
f 47/391/106 66/392/107 67/390/108
f 24/36/109 54/42/110 242/44/111
f 77/135/112 23/65/113 52/73/114
f 52/73/115 76/127/116 77/135/117
f 181/70/118 184/72/119 185/116/120
f 185/116/121 186/118/122 191/64/123
f 181/70/124 185/116/125 191/64/126
f 24/36/127 242/44/128 28/52/129
f 78/413/130 26/143/131 23/65/132
f 23/65/133 77/135/134 78/413/135
f 92/125/136 63/133/137 25/71/138
f 25/71/139 55/117/140 92/125/141
f 31/74/142 62/76/143 32/82/144
f 81/406/145 30/97/146 60/105/147
f 60/105/148 80/113/149 81/406/150
f 89/79/151 90/87/152 29/22/153
f 29/22/154 33/24/155 89/79/156
f 31/74/157 32/82/158 36/84/159
f 82/408/160 34/407/161 30/97/162
f 30/97/163 81/406/164 82/408/165
f 88/103/166 89/79/167 33/24/168
f 33/24/169 37/95/170 88/103/171
f 39/90/172 36/84/173 40/92/174
f 83/410/175 38/409/176 34/407/177
f 34/407/178 82/408/179 83/410/180
f 88/103/181 37/95/182 41/111/183
f 41/111/184 87/141/185 88/103/186
f 39/90/187 40/92/188 44/98/189
f 84/412/190 42/411/191 38/409/192
f 38/409/193 83/410/194 84/412/195
f 86/401/196 87/141/197 41/111/198
f 41/111/199 45/400/200 86/401/201
f 134/91/202 60/94/203 30/96/204
f 42/104/205 46/107/206 59/29/207
f 38/102/208 42/104/209 59/29/210
f 34/99/211 38/102/212 59/29/213
f 30/96/214 34/99/215 59/29/216
f 30/96/217 59/29/218 180/43/219
f 30/96/220 180/43/221 174/50/222
f 30/96/223 174/50/224 169/51/225
f 30/96/226 169/51/227 164/59/228
f 30/96/229 164/59/230 159/68/231
f 30/96/232 159/68/233 154/78/234
f 30/96/235 154/78/236 149/80/237
f 30/96/238 149/80/239 144/86/240
f 30/96/241 144/86/242 139/88/243
f 134/91/244 30/96/245 139/88/246
f 85/81/247 46/15/248 42/411/249
f 42/411/250 84/412/251 85/81/252
f 86/401/253 45/400/254 1/402/255
f 1/402/256 5/403/257 86/401/258
f 65/395/259 66/396/260 47/393/261
f 47/393/262 51/394/263 65/395/264
f 47/3/265 19/4/266 16/31/267
f 47/3/268 16/31/269 12/33/270
f 47/3/271 12/33/272 9/38/273
f 47/3/274 9/38/275 3/40/276
f 47/3/277 3/40/278 4/46/279
f 49/58/280 22/30/281 50/60/282
f 74/422/283 75/424/284 48/423/285
f 48/423/286 20/421/287 74/422/288
f 184/72/289 181/70/290 182/124/291
f 182/124/292 183/126/293 184/72/294
f 49/58/295 50/60/296 54/42/297
f 76/127/298 52/73/299 48/414/300
f 48/414/301 75/415/302 76/127/303
f 25/71/304 63/133/305 64/397/306
f 64/397/307 65/395/308 51/394/309
f 25/71/310 64/397/311 51/394/312
f 92/125/313 55/117/314 59/398/315
f 59/398/316 91/399/317 92/125/318
f 187/134/319 190/132/320 191/64/321
f 191/64/322 186/118/323 187/134/324
f 57/100/325 28/106/326 58/122/327
f 79/417/328 56/416/329 26/143/330
f 26/143/331 78/413/332 79/417/333
f 188/142/334 189/140/335 190/132/336
f 190/132/337 187/134/338 188/142/339
f 57/100/340 58/122/341 62/76/342
f 79/417/343 80/419/344 60/418/345
f 60/418/346 56/416/347 79/417/348
f 90/87/349 91/405/350 59/404/351
f 59/404/352 29/22/353 90/87/354
f 94/37/355 11/45/356 93/53/357
f 109/67/358 110/360/359 125/361/360
f 95/61/361 11/45/362 94/37/363
f 125/361/364 14/362/365 124/363/366
f 96/69/367 18/77/368 95/61/369
f 124/363/370 14/362/371 123/364/372
f 97/123/373 18/77/374 96/69/375
f 123/364/376 21/365/377 122/366/378
f 98/131/379 50/351/380 97/123/381
f 53/367/382 119/368/383 120/369/384
f 28/352/385 242/353/386 101/354/387
f 27/370/388 118/371/389 119/368/390
f 58/85/391 28/93/392 101/101/393
f 116/75/394 61/83/395 115/137/396
f 105/109/397 36/139/398 32/147/399
f 115/137/400 35/145/401 114/376/402
f 40/342/403 36/139/404 105/109/405
f 114/376/406 35/145/407 113/377/408
f 107/343/409 44/344/410 40/342/411
f 113/377/412 43/378/413 112/379/414
f 108/345/415 44/344/416 107/343/417
f 112/379/418 43/378/419 111/380/420
f 50/351/421 98/131/422 99/355/423
f 122/366/424 21/365/425 121/372/426
f 121/372/427 53/367/428 120/369/429
f 54/356/430 99/355/431 242/353/432
f 103/346/433 62/347/434 58/85/435
f 27/381/436 117/382/437 118/383/438
f 61/83/439 116/75/440 117/382/441
f 32/147/442 62/347/443 103/346/444
f 95/181/445 94/154/446 70/153/447
f 70/153/448 69/180/449 95/181/450
f 96/183/451 95/181/452 69/180/453
f 69/180/454 68/182/455 96/183/456
f 97/185/457 96/183/458 68/182/459
f 68/182/460 67/184/461 97/185/462
f 98/444/463 97/185/464 67/184/465
f 67/184/466 66/443/467 98/444/468
f 99/150/469 98/178/470 66/148/471
f 66/148/472 65/149/473 99/150/474
f 100/186/475 99/150/476 65/149/477
f 65/149/478 64/179/479 100/186/480
f 101/188/481 100/186/482 64/179/483
f 64/179/484 63/187/485 101/188/486
f 102/190/487 101/188/488 63/187/489
f 63/187/490 92/189/491 102/190/492
f 103/442/493 102/190/494 92/189/495
f 92/189/496 91/441/497 103/442/498
f 104/173/499 103/174/500 91/5/501
f 91/5/502 90/115/503 104/173/504
f 105/176/505 104/173/506 90/115/507
f 90/115/508 89/175/509 105/176/510
f 106/191/511 105/176/512 89/175/513
f 89/175/514 88/177/515 106/191/516
f 107/193/517 106/191/518 88/177/519
f 88/177/520 87/192/521 107/193/522
f 108/195/523 107/193/524 87/192/525
f 87/192/526 86/194/527 108/195/528
f 112/171/529 111/169/530 85/168/531
f 85/168/532 84/170/533 112/171/534
f 113/207/535 112/171/536 84/170/537
f 84/170/538 83/172/539 113/207/540
f 114/209/541 113/207/542 83/172/543
f 83/172/544 82/208/545 114/209/546
f 115/436/547 114/209/548 82/208/549
f 82/208/550 81/210/551 115/436/552
f 116/438/553 115/436/554 81/210/555
f 81/210/556 80/437/557 116/438/558
f 117/164/559 116/165/560 80/162/561
f 80/162/562 79/163/563 117/164/564
f 118/429/565 117/164/566 79/163/567
f 79/163/568 78/166/569 118/429/570
f 119/431/571 118/429/572 78/166/573
f 78/166/574 77/430/575 119/431/576
f 120/433/577 119/431/578 77/430/579
f 77/430/580 76/432/581 120/433/582
f 121/435/583 120/433/584 76/432/585
f 76/432/586 75/434/587 121/435/588
f 122/160/589 121/161/590 75/158/591
f 75/158/592 74/159/593 122/160/594
f 123/211/595 122/160/596 74/159/597
f 74/159/598 73/206/599 123/211/600
f 124/213/601 123/211/602 73/206/603
f 73/206/604 72/212/605 124/213/606
f 125/425/607 124/213/608 72/212/609
f 72/212/610 71/214/611 125/425/612
f 111/108/613 44/339/614 108/340/615
f 93/35/616 11/336/617 110/337/618
f 126/199/619 108/195/620 86/194/621
f 86/194/622 5/198/623 126/199/624
f 111/6/625 108/216/626 126/221/627
f 109/426/628 125/425/629 71/214/630
f 109/426/631 71/214/632 8/427/633
f 109/426/634 8/427/635 128/428/636
f 93/215/637 128/218/638 129/222/639
f 197/227/640 198/217/641 201/219/642
f 201/219/643 192/226/644 197/227/645
f 198/217/646 199/228/647 200/229/648
f 200/229/649 201/219/650 198/217/651
f 196/231/652 197/227/653 192/226/654
f 192/226/655 193/230/656 196/231/657
f 195/233/658 196/231/659 193/230/660
f 193/230/661 194/232/662 195/233/663
f 137/237/664 136/234/665 131/235/666
f 131/235/667 132/236/668 137/237/669
f 136/234/670 135/238/671 130/239/672
f 130/239/673 131/235/674 136/234/675
f 138/241/676 137/237/677 132/236/678
f 132/236/679 133/240/680 138/241/681
f 139/243/682 138/241/683 133/240/684
f 133/240/685 134/242/686 139/243/687
f 203/246/688 208/247/689 209/244/690
f 209/244/691 202/245/692 203/246/693
f 209/244/694 210/248/695 211/249/696
f 211/249/697 202/245/698 209/244/699
f 207/251/700 208/247/701 203/246/702
f 203/246/703 204/250/704 207/251/705
f 206/253/706 207/251/707 204/250/708
f 204/250/709 205/252/710 206/253/711
f 147/257/712 146/254/713 141/255/714
f 141/255/715 142/256/716 147/257/717
f 146/254/718 145/258/719 140/259/720
f 140/259/721 141/255/722 146/254/723
f 148/261/724 147/257/725 142/256/726
f 142/256/727 143/260/728 148/261/729
f 149/263/730 148/261/731 143/260/732
f 143/260/733 144/262/734 149/263/735
f 213/266/736 218/267/737 219/264/738
f 219/264/739 212/265/740 213/266/741
f 219/264/742 220/268/743 221/269/744
f 221/269/745 212/265/746 219/264/747
f 217/271/748 218/267/749 213/266/750
f 213/266/751 214/270/752 217/271/753
f 216/273/754 217/271/755 214/270/756
f 214/270/757 215/272/758 216/273/759
f 157/277/760 156/274/761 151/275/762
f 151/275/763 152/276/764 157/277/765
f 156/274/766 155/278/767 150/279/768
f 150/279/769 151/275/770 156/274/771
f 158/281/772 157/277/773 152/276/774
f 152/276/775 153/280/776 158/281/777
f 159/283/778 158/281/779 153/280/780
f 153/280/781 154/282/782 159/283/783
f 223/286/784 228/287/785 229/284/786
f 229/284/787 222/285/788 223/286/789
f 229/284/790 230/288/791 231/289/792
f 231/289/793 222/285/794 229/284/795
f 227/291/796 228/287/797 223/286/798
f 223/286/799 224/290/800 227/291/801
f 226/293/802 227/291/803 224/290/804
f 224/290/805 225/292/806 226/293/807
f 167/297/808 166/294/809 161/295/810
f 161/295/811 162/296/812 167/297/813
f 166/294/814 165/298/815 160/299/816
f 160/299/817 161/295/818 166/294/819
f 168/301/820 167/297/821 162/296/822
f 162/296/823 163/300/824 168/301/825
f 169/303/826 168/301/827 163/300/828
f 163/300/829 164/302/830 169/303/831
f 233/306/832 238/307/833 239/304/834
f 239/304/835 232/305/836 233/306/837
f 239/304/838 240/308/839 241/309/840
f 241/309/841 232/305/842 239/304/843
f 237/311/844 238/307/845 233/306/846
f 233/306/847 234/310/848 237/311/849
f 236/313/850 237/311/851 234/310/852
f 234/310/853 235/312/854 236/313/855
f 177/314/856 176/315/857 171/316/858
f 177/314/859 171/316/860 172/317/861
f 177/314/862 172/317/863 178/318/864
f 176/315/865 175/319/866 170/320/867
f 170/320/868 171/316/869 176/315/870
f 179/322/871 178/318/872 172/317/873
f 172/317/874 173/321/875 179/322/876
f 180/324/877 179/322/878 173/321/879
f 173/321/880 174/323/881 180/324/882
f 182/124/883 181/70/884 51/325/885
f 51/325/886 47/326/887 182/124/888
f 183/126/889 182/124/890 47/326/891
f 47/326/892 175/319/893 183/126/894
f 184/72/895 183/126/896 175/319/897
f 175/319/898 176/315/899 184/72/900
f 185/116/901 184/72/902 176/315/903
f 176/315/904 177/314/905 185/116/906
f 186/118/907 185/116/908 177/314/909
f 177/314/910 178/318/911 186/118/912
f 187/134/913 186/118/914 178/318/915
f 178/318/916 179/322/917 187/134/918
f 188/142/919 187/134/920 179/322/921
f 179/322/922 180/324/923 188/142/924
f 189/140/925 188/142/926 180/324/927
f 180/324/928 59/327/929 189/140/930
f 190/132/931 189/140/932 59/327/933
f 59/327/934 55/328/935 190/132/936
f 191/64/937 190/132/938 55/328/939
f 55/328/940 25/329/941 191/64/942
f 181/70/943 191/64/944 25/329/945
f 25/329/946 51/325/947 181/70/948
f 193/230/949 192/226/950 26/330/951
f 26/330/952 56/331/953 193/230/954
f 194/232/955 193/230/956 56/331/957
f 56/331/958 60/332/959 194/232/960
f 195/233/961 194/232/962 60/332/963
f 60/332/964 134/242/965 195/233/966
f 196/231/967 195/233/968 134/242/969
f 134/242/970 133/240/971 196/231/972
f 197/227/973 196/231/974 133/240/975
f 133/240/976 132/236/977 197/227/978
f 198/217/979 197/227/980 132/236/981
f 132/236/982 131/235/983 198/217/984
f 199/228/985 198/217/986 131/235/987
f 131/235/988 130/239/989 199/228/990
f 200/229/991 199/228/992 130/239/993
f 130/239/994 48/333/995 200/229/996
f 201/219/997 200/229/998 48/333/999
f 48/333/1000 52/334/1001 201/219/1002
f 23/335/1003 26/330/1004 192/226/1005
f 23/335/1006 192/226/1007 201/219/1008
f 23/335/1009 201/219/1010 52/334/1011
f 203/246/1012 202/245/1013 136/234/1014
f 136/234/1015 137/237/1016 203/246/1017
f 204/250/1018 203/246/1019 137/237/1020
f 137/237/1021 138/241/1022 204/250/1023
f 205/252/1024 204/250/1025 138/241/1026
f 138/241/1027 139/243/1028 205/252/1029
f 206/253/1030 205/252/1031 139/243/1032
f 139/243/1033 144/262/1034 206/253/1035
f 207/251/1036 206/253/1037 144/262/1038
f 144/262/1039 143/260/1040 207/251/1041
f 208/247/1042 207/251/1043 143/260/1044
f 143/260/1045 142/256/1046 208/247/1047
f 209/244/1048 208/247/1049 142/256/1050
f 142/256/1051 141/255/1052 209/244/1053
f 210/248/1054 209/244/1055 141/255/1056
f 141/255/1057 140/259/1058 210/248/1059
f 211/249/1060 210/248/1061 140/259/1062
f 140/259/1063 135/238/1064 211/249/1065
f 202/245/1066 211/249/1067 135/238/1068
f 135/238/1069 136/234/1070 202/245/1071
f 213/266/1072 212/265/1073 146/254/1074
f 146/254/1075 147/257/1076 213/266/1077
f 214/270/1078 213/266/1079 147/257/1080
f 147/257/1081 148/261/1082 214/270/1083
f 215/272/1084 214/270/1085 148/261/1086
f 148/261/1087 149/263/1088 215/272/1089
f 216/273/1090 215/272/1091 149/263/1092
f 149/263/1093 154/282/1094 216/273/1095
f 217/271/1096 216/273/1097 154/282/1098
f 154/282/1099 153/280/1100 217/271/1101
f 218/267/1102 217/271/1103 153/280/1104
f 153/280/1105 152/276/1106 218/267/1107
f 219/264/1108 218/267/1109 152/276/1110
f 152/276/1111 151/275/1112 219/264/1113
f 220/268/1114 219/264/1115 151/275/1116
f 151/275/1117 150/279/1118 220/268/1119
f 221/269/1120 220/268/1121 150/279/1122
f 150/279/1123 145/258/1124 221/269/1125
f 212/265/1126 221/269/1127 145/258/1128
f 145/258/1129 146/254/1130 212/265/1131
f 223/286/1132 222/285/1133 156/274/1134
f 156/274/1135 157/277/1136 223/286/1137
f 224/290/1138 223/286/1139 157/277/1140
f 157/277/1141 158/281/1142 224/290/1143
f 225/292/1144 224/290/1145 158/281/1146
f 158/281/1147 159/283/1148 225/292/1149
f 226/293/1150 225/292/1151 159/283/1152
f 159/283/1153 164/302/1154 226/293/1155
f 227/291/1156 226/293/1157 164/302/1158
f 164/302/1159 163/300/1160 227/291/1161
f 228/287/1162 227/291/1163 163/300/1164
f 163/300/1165 162/296/1166 228/287/1167
f 229/284/1168 228/287/1169 162/296/1170
f 162/296/1171 161/295/1172 229/284/1173
f 230/288/1174 229/284/1175 161/295/1176
f 161/295/1177 160/299/1178 230/288/1179
f 231/289/1180 230/288/1181 160/299/1182
f 160/299/1183 155/278/1184 231/289/1185
f 222/285/1186 231/289/1187 155/278/1188
f 155/278/1189 156/274/1190 222/285/1191
f 233/306/1192 232/305/1193 166/294/1194
f 166/294/1195 167/297/1196 233/306/1197
f 234/310/1198 233/306/1199 167/297/1200
f 167/297/1201 168/301/1202 234/310/1203
f 235/312/1204 234/310/1205 168/301/1206
f 168/301/1207 169/303/1208 235/312/1209
f 236/313/1210 235/312/1211 169/303/1212
f 169/303/1213 174/323/1214 236/313/1215
f 237/311/1216 236/313/1217 174/323/1218
f 174/323/1219 173/321/1220 237/311/1221
f 238/307/1222 237/311/1223 173/321/1224
f 173/321/1225 172/317/1226 238/307/1227
f 239/304/1228 238/307/1229 172/317/1230
f 172/317/1231 171/316/1232 239/304/1233
f 240/308/1234 239/304/1235 171/316/1236
f 171/316/1237 170/320/1238 240/308/1239
f 241/309/1240 240/308/1241 170/320/1242
f 170/320/1243 165/298/1244 241/309/1245
f 232/305/1246 241/309/1247 165/298/1248
f 165/298/1249 166/294/1250 232/305/1251
f 99/355/1252 54/356/1253 50/351/1254
f 50/351/1255 22/357/1256 97/123/1257
f 97/123/1258 22/357/1259 18/77/1260
f 18/77/1261 15/358/1262 95/61/1263
f 95/61/1264 15/358/1265 11/45/1266
f 99/355/1267 100/359/1268 242/353/1269
f 242/353/1270 100/359/1271 101/354/1272
f 101/101/1273 102/348/1274 58/85/1275
f 58/85/1276 102/348/1277 103/346/1278
f 103/346/1279 104/349/1280 32/147/1281
f 32/147/1282 104/349/1283 105/109/1284
f 105/109/1285 106/350/1286 40/342/1287
f 40/342/1288 106/350/1289 107/343/1290
f 126/221/1291 6/439/1292 127/440/1293
f 127/440/1294 111/6/1295 126/221/1296
f 111/108/1297 43/341/1298 44/339/1299
f 44/98/1300 43/128/1301 39/90/1302
f 39/90/1303 35/130/1304 36/84/1305
f 36/84/1306 35/130/1307 31/74/1308
f 31/74/1309 61/136/1310 62/76/1311
f 62/76/1312 61/136/1313 57/100/1314
f 57/100/1315 27/138/1316 28/106/1317
f 28/52/1318 27/62/1319 24/36/1320
f 24/36/1321 53/63/1322 54/42/1323
f 54/42/1324 53/63/1325 49/58/1326
f 49/58/1327 21/66/1328 22/30/1329
f 22/30/1330 21/66/1331 243/26/1332
f 243/26/1333 14/120/1334 15/25/1335
f 15/25/1336 14/120/1337 110/7/1338
f 110/337/1339 109/338/1340 93/35/1341
f 93/215/1342 109/224/1343 128/218/1344
f 125/361/1345 110/360/1346 14/362/1347
f 14/362/1348 243/373/1349 123/364/1350
f 123/364/1351 243/373/1352 21/365/1353
f 21/365/1354 49/374/1355 121/372/1356
f 121/372/1357 49/374/1358 53/367/1359
f 53/367/1360 24/375/1361 119/368/1362
f 119/368/1363 24/375/1364 27/370/1365
f 27/381/1366 57/384/1367 117/382/1368
f 117/382/1369 57/384/1370 61/83/1371
f 61/83/1372 31/385/1373 115/137/1374
f 115/137/1375 31/385/1376 35/145/1377
f 35/145/1378 39/386/1379 113/377/1380
f 113/377/1381 39/386/1382 43/378/1383
f 46/107/1384 45/2/1385 41/110/1386
f 46/107/1387 41/110/1388 37/112/1389
f 46/107/1390 37/112/1391 33/121/1392
f 46/107/1393 33/121/1394 29/129/1395
f 46/107/1396 29/129/1397 59/29/1398
f 45/2/1399 46/107/1400 2/27/1401
f 17/56/1402 20/144/1403 48/146/1404
f 175/205/1405 47/3/1406 4/46/1407
f 170/204/1408 175/205/1409 4/46/1410
f 165/203/1411 170/204/1412 4/46/1413
f 160/202/1414 165/203/1415 4/46/1416
f 155/201/1417 160/202/1418 4/46/1419
f 150/200/1420 155/201/1421 4/46/1422
f 145/197/1423 150/200/1424 4/46/1425
f 140/196/1426 145/197/1427 4/46/1428
f 135/157/1429 140/196/1430 4/46/1431
f 130/156/1432 135/157/1433 4/46/1434
f 4/46/1435 10/48/1436 13/54/1437
f 130/156/1438 4/46/1439 13/54/1440
f 48/146/1441 130/156/1442 13/54/1443
f 17/56/1444 48/146/1445 13/54/1446
#482 polygons

